Fraternidad-Bold.ufo
<glyph name="exclam" format="2">
  <advance width="752"/>
  <unicode hex="0021"/>
  <outline>
    <contour>
      <point x="376" y="-22" type="qcurve" smooth="yes"/>
      <point x="308" y="-22"/>
      <point x="217" y="70"/>
      <point x="217" y="136" type="qcurve" smooth="yes"/>
      <point x="217" y="203"/>
      <point x="308" y="294"/>
      <point x="376" y="294" type="qcurve" smooth="yes"/>
      <point x="445" y="294"/>
      <point x="535" y="203"/>
      <point x="535" y="136" type="qcurve" smooth="yes"/>
      <point x="535" y="70"/>
      <point x="445" y="-22"/>
    </contour>
    <contour>
      <point x="260" y="420" type="line"/>
      <point x="220" y="1440" type="line"/>
      <point x="532" y="1440" type="line"/>
      <point x="492" y="420" type="line"/>
    </contour>
  </outline>
</glyph>
<glyph name="dollar" format="2">
  <advance width="1282"/>
  <unicode hex="0024"/>
  <outline>
    <contour>
      <point x="516" y="-200" type="line"/>
      <point x="516" y="40" type="line"/>
      <point x="788" y="40" type="line"/>
      <point x="788" y="-200" type="line"/>
    </contour>
    <contour>
      <point x="516" y="1398" type="line"/>
      <point x="516" y="1638" type="line"/>
      <point x="788" y="1638" type="line"/>
      <point x="788" y="1398" type="line"/>
    </contour>
    <contour>
      <point x="654" y="-30" type="curve" smooth="yes"/>
      <point x="551" y="-30"/>
      <point x="458" y="-11"/>
      <point x="377" y="28" type="curve" smooth="yes"/>
      <point x="214" y="104"/>
      <point x="108" y="248"/>
      <point x="80" y="440" type="curve"/>
      <point x="350" y="482" type="line"/>
      <point x="368" y="403"/>
      <point x="406" y="341"/>
      <point x="464" y="294" type="curve" smooth="yes"/>
      <point x="521" y="247"/>
      <point x="590" y="224"/>
      <point x="670" y="224" type="curve" smooth="yes"/>
      <point x="745" y="224"/>
      <point x="808" y="242"/>
      <point x="858" y="277" type="curve" smooth="yes"/>
      <point x="907" y="312"/>
      <point x="932" y="356"/>
      <point x="932" y="408" type="curve" smooth="yes"/>
      <point x="932" y="443"/>
      <point x="921" y="473"/>
      <point x="900" y="496" type="curve" smooth="yes"/>
      <point x="878" y="519"/>
      <point x="844" y="537"/>
      <point x="798" y="552" type="curve" smooth="yes"/>
      <point x="442" y="662" type="line" smooth="yes"/>
      <point x="237" y="725"/>
      <point x="134" y="851"/>
      <point x="134" y="1038" type="curve" smooth="yes"/>
      <point x="134" y="1126"/>
      <point x="155" y="1202"/>
      <point x="197" y="1267" type="curve" smooth="yes"/>
      <point x="280" y="1396"/>
      <point x="436" y="1469"/>
      <point x="644" y="1468" type="curve" smooth="yes"/>
      <point x="739" y="1467"/>
      <point x="824" y="1450"/>
      <point x="898" y="1417" type="curve" smooth="yes"/>
      <point x="1046" y="1351"/>
      <point x="1147" y="1225"/>
      <point x="1192" y="1046" type="curve"/>
      <point x="912" y="996" type="line"/>
      <point x="903" y="1039"/>
      <point x="885" y="1076"/>
      <point x="860" y="1109" type="curve" smooth="yes"/>
      <point x="809" y="1173"/>
      <point x="732" y="1211"/>
      <point x="640" y="1214" type="curve" smooth="yes"/>
      <point x="596" y="1215"/>
      <point x="556" y="1209"/>
      <point x="521" y="1195" type="curve" smooth="yes"/>
      <point x="449" y="1167"/>
      <point x="404" y="1115"/>
      <point x="404" y="1052" type="curve" smooth="yes"/>
      <point x="404" y="983"/>
      <point x="460" y="934"/>
      <point x="588" y="898" type="curve" smooth="yes"/>
      <point x="842" y="826" type="line" smooth="yes"/>
      <point x="969" y="789"/>
      <point x="1061" y="740"/>
      <point x="1118" y="677" type="curve" smooth="yes"/>
      <point x="1174" y="614"/>
      <point x="1202" y="531"/>
      <point x="1202" y="428" type="curve" smooth="yes"/>
      <point x="1202" y="337"/>
      <point x="1179" y="258"/>
      <point x="1133" y="189" type="curve" smooth="yes"/>
      <point x="1041" y="52"/>
      <point x="871" y="-30"/>
    </contour>
  </outline>
</glyph>
<glyph name="percent" format="2">
  <advance width="1800"/>
  <unicode hex="0025"/>
  <outline>
    <contour>
      <point x="360" y="0" type="line"/>
      <point x="180" y="180" type="line"/>
      <point x="1440" y="1440" type="line"/>
      <point x="1620" y="1258" type="line"/>
    </contour>
    <contour>
      <point x="1320" y="-30" type="curve" smooth="yes"/>
      <point x="1122" y="-30"/>
      <point x="960" y="132"/>
      <point x="960" y="330" type="curve" smooth="yes"/>
      <point x="960" y="525"/>
      <point x="1125" y="690"/>
      <point x="1320" y="690" type="curve" smooth="yes"/>
      <point x="1520" y="690"/>
      <point x="1680" y="530"/>
      <point x="1680" y="330" type="curve" smooth="yes"/>
      <point x="1680" y="131"/>
      <point x="1520" y="-30"/>
    </contour>
    <contour>
      <point x="1320" y="200" type="curve" smooth="yes"/>
      <point x="1390" y="200"/>
      <point x="1450" y="260"/>
      <point x="1450" y="330" type="curve" smooth="yes"/>
      <point x="1450" y="400"/>
      <point x="1390" y="460"/>
      <point x="1320" y="460" type="curve" smooth="yes"/>
      <point x="1251" y="460"/>
      <point x="1190" y="399"/>
      <point x="1190" y="330" type="curve" smooth="yes"/>
      <point x="1190" y="261"/>
      <point x="1251" y="200"/>
    </contour>
    <contour>
      <point x="480" y="750" type="curve" smooth="yes"/>
      <point x="281" y="750"/>
      <point x="120" y="911"/>
      <point x="120" y="1110" type="curve" smooth="yes"/>
      <point x="120" y="1305"/>
      <point x="285" y="1470"/>
      <point x="480" y="1470" type="curve" smooth="yes"/>
      <point x="679" y="1470"/>
      <point x="840" y="1309"/>
      <point x="840" y="1110" type="curve" smooth="yes"/>
      <point x="840" y="912"/>
      <point x="678" y="750"/>
    </contour>
    <contour>
      <point x="480" y="980" type="curve" smooth="yes"/>
      <point x="550" y="980"/>
      <point x="610" y="1040"/>
      <point x="610" y="1110" type="curve" smooth="yes"/>
      <point x="610" y="1180"/>
      <point x="550" y="1240"/>
      <point x="480" y="1240" type="curve" smooth="yes"/>
      <point x="411" y="1240"/>
      <point x="350" y="1179"/>
      <point x="350" y="1110" type="curve" smooth="yes"/>
      <point x="350" y="1041"/>
      <point x="411" y="980"/>
    </contour>
  </outline>
</glyph>
<glyph name="ampersand" format="2">
  <advance width="1348"/>
  <unicode hex="0026"/>
  <outline>
    <contour>
      <point x="622" y="-30" type="curve" smooth="yes"/>
      <point x="343" y="-30"/>
      <point x="100" y="118"/>
      <point x="100" y="422" type="curve" smooth="yes"/>
      <point x="100" y="580"/>
      <point x="153" y="696"/>
      <point x="276" y="794" type="curve"/>
      <point x="207" y="873"/>
      <point x="168" y="950"/>
      <point x="168" y="1056" type="curve" smooth="yes"/>
      <point x="168" y="1332"/>
      <point x="384" y="1466"/>
      <point x="638" y="1466" type="curve" smooth="yes"/>
      <point x="849" y="1466"/>
      <point x="1031" y="1363"/>
      <point x="1082" y="1148" type="curve"/>
      <point x="812" y="1094" type="line"/>
      <point x="787" y="1183"/>
      <point x="716" y="1212"/>
      <point x="630" y="1212" type="curve" smooth="yes"/>
      <point x="528" y="1212"/>
      <point x="442" y="1163"/>
      <point x="442" y="1052" type="curve" smooth="yes"/>
      <point x="442" y="960"/>
      <point x="536" y="892"/>
      <point x="598" y="834" type="curve" smooth="yes"/>
      <point x="928" y="528" type="line"/>
      <point x="928" y="609"/>
      <point x="928" y="690"/>
      <point x="928" y="774" type="curve"/>
      <point x="1164" y="774" type="line"/>
      <point x="1164" y="500" type="line" smooth="yes"/>
      <point x="1164" y="441"/>
      <point x="1165" y="378"/>
      <point x="1152" y="320" type="curve"/>
      <point x="1328" y="158" type="line"/>
      <point x="1154" y="-28" type="line"/>
      <point x="1022" y="98" type="line"/>
      <point x="903" y="-5"/>
      <point x="775" y="-30"/>
    </contour>
    <contour>
      <point x="634" y="228" type="curve" smooth="yes"/>
      <point x="701" y="228"/>
      <point x="771" y="240"/>
      <point x="826" y="280" type="curve"/>
      <point x="474" y="604" type="line"/>
      <point x="404" y="574"/>
      <point x="374" y="512"/>
      <point x="374" y="438" type="curve" smooth="yes"/>
      <point x="374" y="287"/>
      <point x="500" y="228"/>
    </contour>
  </outline>
</glyph>
<glyph name="parenleft" format="2">
  <advance width="924"/>
  <unicode hex="0028"/>
  <outline>
    <contour>
      <point x="642" y="-388" type="line"/>
      <point x="565" y="-297"/>
      <point x="499" y="-194"/>
      <point x="444" y="-79" type="curve" smooth="yes"/>
      <point x="334" y="152"/>
      <point x="275" y="411"/>
      <point x="280" y="660" type="curve"/>
      <point x="277" y="785"/>
      <point x="290" y="910"/>
      <point x="319" y="1037" type="curve" smooth="yes"/>
      <point x="375" y="1290"/>
      <point x="487" y="1527"/>
      <point x="642" y="1708" type="curve"/>
      <point x="844" y="1560" type="line"/>
      <point x="763" y="1462"/>
      <point x="699" y="1364"/>
      <point x="653" y="1267" type="curve" smooth="yes"/>
      <point x="561" y="1071"/>
      <point x="527" y="872"/>
      <point x="526" y="660" type="curve" smooth="yes"/>
      <point x="527" y="554"/>
      <point x="537" y="451"/>
      <point x="556" y="351" type="curve" smooth="yes"/>
      <point x="594" y="150"/>
      <point x="681" y="-44"/>
      <point x="844" y="-240" type="curve"/>
    </contour>
  </outline>
</glyph>
<glyph name="parenright" format="2">
  <advance width="924"/>
  <unicode hex="0029"/>
  <outline>
    <contour>
      <point x="80" y="-240" type="line"/>
      <point x="161" y="-142"/>
      <point x="225" y="-44"/>
      <point x="271" y="54" type="curve" smooth="yes"/>
      <point x="363" y="249"/>
      <point x="397" y="448"/>
      <point x="398" y="660" type="curve" smooth="yes"/>
      <point x="397" y="766"/>
      <point x="388" y="869"/>
      <point x="369" y="970" type="curve" smooth="yes"/>
      <point x="331" y="1170"/>
      <point x="243" y="1364"/>
      <point x="80" y="1560" type="curve"/>
      <point x="282" y="1708" type="line"/>
      <point x="359" y="1617"/>
      <point x="426" y="1515"/>
      <point x="481" y="1400" type="curve" smooth="yes"/>
      <point x="591" y="1170"/>
      <point x="649" y="909"/>
      <point x="644" y="660" type="curve"/>
      <point x="647" y="535"/>
      <point x="634" y="410"/>
      <point x="606" y="284" type="curve" smooth="yes"/>
      <point x="549" y="31"/>
      <point x="437" y="-207"/>
      <point x="282" y="-388" type="curve"/>
    </contour>
  </outline>
</glyph>
<glyph name="comma" format="2">
  <advance width="632"/>
  <unicode hex="002C"/>
  <outline>
    <contour>
      <point x="198" y="272" type="line"/>
      <point x="455" y="272" type="line"/>
      <point x="281" y="-329" type="line"/>
      <point x="111" y="-329" type="line"/>
    </contour>
  </outline>
</glyph>
<glyph name="hyphen" format="2">
  <advance width="840"/>
  <unicode hex="002D"/>
  <outline>
    <contour>
      <point x="120" y="435" type="line"/>
      <point x="120" y="645" type="line"/>
      <point x="720" y="645" type="line"/>
      <point x="720" y="435" type="line"/>
    </contour>
  </outline>
</glyph>
<glyph name="period" format="2">
  <advance width="640"/>
  <unicode hex="002E"/>
  <outline>
    <contour>
      <point x="320" y="-22" type="curve" smooth="yes"/>
      <point x="230" y="-22"/>
      <point x="161" y="46"/>
      <point x="161" y="136" type="curve" smooth="yes"/>
      <point x="161" y="227"/>
      <point x="230" y="294"/>
      <point x="320" y="294" type="curve" smooth="yes"/>
      <point x="411" y="294"/>
      <point x="479" y="227"/>
      <point x="479" y="136" type="curve" smooth="yes"/>
      <point x="479" y="45"/>
      <point x="410" y="-22"/>
    </contour>
  </outline>
</glyph>
<glyph name="zero" format="2">
  <advance width="1456"/>
  <unicode hex="0030"/>
  <outline>
    <contour>
      <point x="728.096" y="-30.256" type="curve" smooth="yes"/>
      <point x="366" y="-30.256"/>
      <point x="139.568" y="232.288"/>
      <point x="139.568" y="719.312" type="curve" smooth="yes"/>
      <point x="139.568" y="1207.31"/>
      <point x="366" y="1468.88"/>
      <point x="728.096" y="1468.88" type="curve" smooth="yes"/>
      <point x="1090.19" y="1468.88"/>
      <point x="1316.62" y="1207.31"/>
      <point x="1316.62" y="719.312" type="curve" smooth="yes"/>
      <point x="1316.62" y="232.288"/>
      <point x="1090.19" y="-30.256"/>
    </contour>
    <contour>
      <point x="728.096" y="225.456" type="curve" smooth="yes"/>
      <point x="930.128" y="225.456"/>
      <point x="1028.7" y="420.656"/>
      <point x="1028.7" y="719.312" type="curve" smooth="yes"/>
      <point x="1028.7" y="1018.94"/>
      <point x="930.128" y="1213.17"/>
      <point x="728.096" y="1213.17" type="curve" smooth="yes"/>
      <point x="527.04" y="1213.17"/>
      <point x="427.488" y="1018.94"/>
      <point x="427.488" y="719.312" type="curve" smooth="yes"/>
      <point x="427.488" y="420.656"/>
      <point x="527.04" y="225.456"/>
    </contour>
  </outline>
</glyph>
<glyph name="one" format="2">
  <advance width="1036"/>
  <unicode hex="0031"/>
  <outline>
    <contour>
      <point x="523" y="0" type="line"/>
      <point x="523" y="1163" type="line"/>
      <point x="238" y="992" type="line"/>
      <point x="120" y="1198" type="line"/>
      <point x="523" y="1440" type="line"/>
      <point x="796" y="1440" type="line"/>
      <point x="796" y="0" type="line"/>
    </contour>
  </outline>
</glyph>
<glyph name="two" format="2">
  <advance width="1208"/>
  <unicode hex="0032"/>
  <outline>
    <contour>
      <point x="100" y="2" type="line"/>
      <point x="100" y="238" type="line"/>
      <point x="704" y="774" type="line" smooth="yes"/>
      <point x="772" y="834"/>
      <point x="828" y="940"/>
      <point x="828" y="986" type="qcurve" smooth="yes"/>
      <point x="828" y="1052"/>
      <point x="774" y="1155"/>
      <point x="676" y="1214"/>
      <point x="610" y="1214" type="qcurve" smooth="yes"/>
      <point x="541" y="1214"/>
      <point x="429" y="1151"/>
      <point x="400" y="1100" type="qcurve" smooth="yes"/>
      <point x="381" y="1065"/>
      <point x="375" y="1028" type="qcurve"/>
      <point x="100" y="1055" type="line"/>
      <point x="114" y="1172"/>
      <point x="158" y="1244" type="qcurve" smooth="yes"/>
      <point x="223" y="1352"/>
      <point x="455" y="1470"/>
      <point x="616" y="1470" type="qcurve" smooth="yes"/>
      <point x="757" y="1470"/>
      <point x="980" y="1347"/>
      <point x="1108" y="1127"/>
      <point x="1108" y="982" type="qcurve" smooth="yes"/>
      <point x="1108" y="875"/>
      <point x="1048" y="734"/>
      <point x="930" y="615"/>
      <point x="844" y="540" type="qcurve" smooth="yes"/>
      <point x="454" y="198" type="line"/>
      <point x="432" y="258" type="line"/>
      <point x="1108" y="258" type="line"/>
      <point x="1108" y="2" type="line"/>
    </contour>
  </outline>
</glyph>
<glyph name="three" format="2">
  <advance width="1322"/>
  <unicode hex="0033"/>
  <outline>
    <contour>
      <point x="1202.43" y="451.888" type="curve" smooth="yes"/>
      <point x="1202.43" y="141.52"/>
      <point x="974.048" y="-30.256"/>
      <point x="659.776" y="-30.256" type="curve" smooth="yes"/>
      <point x="390.4" y="-30.256"/>
      <point x="140.544" y="100.528"/>
      <point x="80.032" y="440.176" type="curve"/>
      <point x="364.048" y="482.144" type="line"/>
      <point x="390.4" y="325.984"/>
      <point x="477.264" y="223.504"/>
      <point x="665.632" y="223.504" type="curve" smooth="yes"/>
      <point x="816.912" y="223.504"/>
      <point x="916.464" y="325.008"/>
      <point x="916.464" y="441.152" type="curve" smooth="yes"/>
      <point x="916.464" y="579.744"/>
      <point x="818.864" y="651.968"/>
      <point x="659.776" y="651.968" type="curve" smooth="yes"/>
      <point x="483.12" y="651.968" type="line"/>
      <point x="483.12" y="867.664" type="line"/>
      <point x="809.104" y="1184.86" type="line"/>
      <point x="160.064" y="1184.86" type="line"/>
      <point x="160.064" y="1439.6" type="line"/>
      <point x="1141.92" y="1439.6" type="line"/>
      <point x="1141.92" y="1184.86" type="line"/>
      <point x="806.176" y="858.88" type="line"/>
      <point x="810.08" y="858.88" type="line" smooth="yes"/>
      <point x="1036.51" y="858.88"/>
      <point x="1202.43" y="676.368"/>
    </contour>
  </outline>
</glyph>
<glyph name="four" format="2">
  <advance width="1302"/>
  <unicode hex="0034"/>
  <outline>
    <contour>
      <point x="788.608" y="0" type="line"/>
      <point x="788.608" y="244" type="line"/>
      <point x="99.552" y="244" type="line"/>
      <point x="99.552" y="497.76" type="line"/>
      <point x="558.272" y="1439.6" type="line"/>
      <point x="858.88" y="1439.6" type="line"/>
      <point x="400.16" y="497.76" type="line"/>
      <point x="788.608" y="497.76" type="line"/>
      <point x="788.608" y="929.152" type="line"/>
      <point x="1062.86" y="929.152" type="line"/>
      <point x="1062.86" y="497.76" type="line"/>
      <point x="1202.43" y="497.76" type="line"/>
      <point x="1202.43" y="244" type="line"/>
      <point x="1062.86" y="244" type="line"/>
      <point x="1062.86" y="0" type="line"/>
    </contour>
  </outline>
</glyph>
<glyph name="five" format="2">
  <advance width="1322"/>
  <unicode hex="0035"/>
  <outline>
    <contour>
      <point x="1221.95" y="451.888" type="curve" smooth="yes"/>
      <point x="1221.95" y="142.496"/>
      <point x="994.544" y="-30.256"/>
      <point x="679.296" y="-30.256" type="curve" smooth="yes"/>
      <point x="411.872" y="-30.256"/>
      <point x="162.016" y="100.528"/>
      <point x="99.552" y="440.176" type="curve"/>
      <point x="383.568" y="482.144" type="line"/>
      <point x="409.92" y="325.984"/>
      <point x="498.736" y="223.504"/>
      <point x="685.152" y="223.504" type="curve" smooth="yes"/>
      <point x="837.408" y="223.504"/>
      <point x="935.984" y="325.984"/>
      <point x="935.984" y="441.152" type="curve" smooth="yes"/>
      <point x="935.984" y="578.768"/>
      <point x="838.384" y="651.968"/>
      <point x="679.296" y="651.968" type="curve" smooth="yes"/>
      <point x="196.176" y="651.968" type="line"/>
      <point x="245.952" y="1439.6" type="line"/>
      <point x="1122.4" y="1439.6" type="line"/>
      <point x="1122.4" y="1184.86" type="line"/>
      <point x="502.64" y="1184.86" type="line"/>
      <point x="485.072" y="907.68" type="line"/>
      <point x="685.152" y="907.68" type="line" smooth="yes"/>
      <point x="1034.56" y="907.68"/>
      <point x="1221.95" y="729.072"/>
    </contour>
  </outline>
</glyph>
<glyph name="six" format="2">
  <advance width="1114"/>
  <unicode hex="0036"/>
  <outline>
    <contour>
      <point x="562" y="-30" type="qcurve" smooth="yes"/>
      <point x="419" y="-30"/>
      <point x="192" y="104"/>
      <point x="60" y="343"/>
      <point x="60" y="500" type="qcurve" smooth="yes"/>
      <point x="60" y="536"/>
      <point x="62" y="619"/>
      <point x="91" y="734"/>
      <point x="160" y="891"/>
      <point x="228" y="1002" type="qcurve"/>
      <point x="520" y="1440" type="line"/>
      <point x="828" y="1440" type="line"/>
      <point x="358" y="744" type="line"/>
      <point x="292" y="794" type="line"/>
      <point x="354" y="857"/>
      <point x="517" y="924"/>
      <point x="604" y="924" type="qcurve" smooth="yes"/>
      <point x="740" y="924"/>
      <point x="947" y="802"/>
      <point x="1064" y="590"/>
      <point x="1064" y="454" type="qcurve" smooth="yes"/>
      <point x="1064" y="318"/>
      <point x="926" y="99"/>
      <point x="698" y="-30"/>
    </contour>
    <contour>
      <point x="562" y="230" type="qcurve" smooth="yes"/>
      <point x="624" y="230"/>
      <point x="727" y="290"/>
      <point x="788" y="392"/>
      <point x="788" y="454" type="qcurve" smooth="yes"/>
      <point x="788" y="516"/>
      <point x="728" y="619"/>
      <point x="626" y="680"/>
      <point x="564" y="680" type="qcurve" smooth="yes"/>
      <point x="502" y="680"/>
      <point x="399" y="619"/>
      <point x="338" y="516"/>
      <point x="338" y="454" type="qcurve" smooth="yes"/>
      <point x="338" y="394"/>
      <point x="398" y="292"/>
      <point x="500" y="230"/>
    </contour>
  </outline>
</glyph>
<glyph name="seven" format="2">
  <advance width="1088"/>
  <unicode hex="0037"/>
  <outline>
    <contour>
      <point x="212" y="0" type="line"/>
      <point x="696" y="1184" type="line"/>
      <point x="80" y="1184" type="line"/>
      <point x="80" y="1440" type="line"/>
      <point x="988" y="1440" type="line"/>
      <point x="988" y="1184" type="line"/>
      <point x="506" y="0" type="line"/>
    </contour>
  </outline>
</glyph>
<glyph name="eight" format="2">
  <advance width="1325"/>
  <unicode hex="0038"/>
  <outline>
    <contour>
      <point x="662.704" y="1466.93" type="curve" smooth="yes"/>
      <point x="950.624" y="1466.93"/>
      <point x="1161.44" y="1320.53"/>
      <point x="1161.44" y="1027.73" type="curve" smooth="yes"/>
      <point x="1161.44" y="912.56"/>
      <point x="1108.74" y="785.68"/>
      <point x="997.472" y="738.832" type="curve"/>
      <point x="1120.45" y="686.128"/>
      <point x="1205.36" y="563.152"/>
      <point x="1205.36" y="427.488" type="curve" smooth="yes"/>
      <point x="1205.36" y="119.072"/>
      <point x="977.952" y="-30.256"/>
      <point x="662.704" y="-30.256" type="curve" smooth="yes"/>
      <point x="347.456" y="-30.256"/>
      <point x="120.048" y="119.072"/>
      <point x="120.048" y="427.488" type="curve" smooth="yes"/>
      <point x="120.048" y="562.176"/>
      <point x="203.984" y="688.08"/>
      <point x="327.936" y="738.832" type="curve"/>
      <point x="216.672" y="785.68"/>
      <point x="163.968" y="912.56"/>
      <point x="163.968" y="1027.73" type="curve" smooth="yes"/>
      <point x="163.968" y="1320.53"/>
      <point x="374.784" y="1466.93"/>
    </contour>
    <contour>
      <point x="662.704" y="857.904" type="curve" smooth="yes"/>
      <point x="830.576" y="857.904"/>
      <point x="882.304" y="949.648"/>
      <point x="882.304" y="1030.66" type="curve" smooth="yes"/>
      <point x="882.304" y="1149.73"/>
      <point x="789.584" y="1213.17"/>
      <point x="662.704" y="1213.17" type="curve" smooth="yes"/>
      <point x="534.848" y="1213.17"/>
      <point x="445.056" y="1149.73"/>
      <point x="445.056" y="1030.66" type="curve" smooth="yes"/>
      <point x="445.056" y="949.648"/>
      <point x="493.856" y="857.904"/>
    </contour>
    <contour>
      <point x="662.704" y="601.216" type="curve" smooth="yes"/>
      <point x="492.88" y="601.216"/>
      <point x="406.016" y="537.776"/>
      <point x="406.016" y="416.752" type="curve" smooth="yes"/>
      <point x="406.016" y="296.704"/>
      <point x="492.88" y="223.504"/>
      <point x="662.704" y="223.504" type="curve" smooth="yes"/>
      <point x="832.528" y="223.504"/>
      <point x="919.392" y="296.704"/>
      <point x="919.392" y="416.752" type="curve" smooth="yes"/>
      <point x="919.392" y="537.776"/>
      <point x="832.528" y="601.216"/>
    </contour>
  </outline>
</glyph>
<glyph name="nine" format="2">
  <advance width="1314"/>
  <unicode hex="0039"/>
  <outline>
    <contour>
      <point x="653" y="1469" type="curve" smooth="yes"/>
      <point x="1076" y="1469"/>
      <point x="1225" y="1162"/>
      <point x="1225" y="783" type="curve" smooth="yes"/>
      <point x="1225" y="346"/>
      <point x="1026" y="-30"/>
      <point x="542" y="-30" type="curve" smooth="yes"/>
      <point x="428" y="-30"/>
      <point x="317" y="-10"/>
      <point x="209" y="21" type="curve"/>
      <point x="254" y="278" type="line"/>
      <point x="325" y="247"/>
      <point x="414" y="224"/>
      <point x="491" y="224" type="curve" smooth="yes"/>
      <point x="745" y="224"/>
      <point x="945" y="371"/>
      <point x="951" y="638" type="curve"/>
      <point x="866" y="530"/>
      <point x="723" y="499"/>
      <point x="590" y="499" type="curve" smooth="yes"/>
      <point x="288" y="499"/>
      <point x="88" y="666"/>
      <point x="88" y="978" type="curve" smooth="yes"/>
      <point x="88" y="1311"/>
      <point x="345" y="1469"/>
    </contour>
    <contour>
      <point x="657" y="1210" type="curve" smooth="yes"/>
      <point x="512" y="1210"/>
      <point x="383" y="1151"/>
      <point x="383" y="989" type="curve" smooth="yes"/>
      <point x="383" y="832"/>
      <point x="512" y="767"/>
      <point x="653" y="767" type="curve" smooth="yes"/>
      <point x="793" y="767"/>
      <point x="923" y="829"/>
      <point x="923" y="989" type="curve" smooth="yes"/>
      <point x="923" y="1143"/>
      <point x="797" y="1210"/>
    </contour>
  </outline>
</glyph>
<glyph name="less" format="2">
  <advance width="1290"/>
  <unicode hex="003C"/>
  <outline>
    <contour>
      <point x="764" y="146" type="line"/>
      <point x="280" y="630" type="line"/>
      <point x="764" y="1114" type="line"/>
      <point x="932" y="946" type="line"/>
      <point x="604" y="630" type="line"/>
      <point x="932" y="314" type="line"/>
    </contour>
  </outline>
</glyph>
<glyph name="equal" format="2">
  <advance width="1500"/>
  <unicode hex="003D"/>
  <outline>
    <contour>
      <point x="240" y="810" type="line"/>
      <point x="240" y="1020" type="line"/>
      <point x="1260" y="1020" type="line"/>
      <point x="1260" y="810" type="line"/>
    </contour>
    <contour>
      <point x="240" y="420" type="line"/>
      <point x="240" y="630" type="line"/>
      <point x="1260" y="630" type="line"/>
      <point x="1260" y="420" type="line"/>
    </contour>
  </outline>
</glyph>
<glyph name="greater" format="2">
  <advance width="1290"/>
  <unicode hex="003E"/>
  <outline>
    <contour>
      <point x="358" y="314" type="line"/>
      <point x="686" y="630" type="line"/>
      <point x="358" y="946" type="line"/>
      <point x="526" y="1114" type="line"/>
      <point x="1010" y="630" type="line"/>
      <point x="526" y="146" type="line"/>
    </contour>
  </outline>
</glyph>
<glyph name="question" format="2">
  <advance width="1355"/>
  <unicode hex="003F"/>
  <outline>
    <contour>
      <point x="1252" y="981" type="curve" smooth="yes"/>
      <point x="1252" y="796"/>
      <point x="1184" y="696"/>
      <point x="1029" y="620" type="curve" smooth="yes"/>
      <point x="895" y="554" type="line" smooth="yes"/>
      <point x="859" y="536"/>
      <point x="831" y="511"/>
      <point x="831" y="470" type="curve" smooth="yes"/>
      <point x="831" y="411" type="line"/>
      <point x="573" y="411" type="line"/>
      <point x="573" y="490" type="line" smooth="yes"/>
      <point x="573" y="638"/>
      <point x="626" y="729"/>
      <point x="737" y="786" type="curve" smooth="yes"/>
      <point x="881" y="860" type="line" smooth="yes"/>
      <point x="931" y="886"/>
      <point x="959" y="917"/>
      <point x="959" y="993" type="curve" smooth="yes"/>
      <point x="959" y="1137"/>
      <point x="857" y="1210"/>
      <point x="699" y="1210" type="curve" smooth="yes"/>
      <point x="510" y="1210"/>
      <point x="421" y="1106"/>
      <point x="393" y="946" type="curve"/>
      <point x="102" y="989" type="line"/>
      <point x="165" y="1336"/>
      <point x="421" y="1470"/>
      <point x="714" y="1470" type="curve" smooth="yes"/>
      <point x="1019" y="1470"/>
      <point x="1252" y="1324"/>
    </contour>
    <contour>
      <point x="702" y="-22" type="curve" smooth="yes"/>
      <point x="612" y="-22"/>
      <point x="543" y="46"/>
      <point x="543" y="136" type="curve" smooth="yes"/>
      <point x="543" y="227"/>
      <point x="612" y="294"/>
      <point x="702" y="294" type="curve" smooth="yes"/>
      <point x="793" y="294"/>
      <point x="861" y="227"/>
      <point x="861" y="136" type="curve" smooth="yes"/>
      <point x="861" y="45"/>
      <point x="792" y="-22"/>
    </contour>
  </outline>
  <guideline angle="0" x="0" y="2193.41"/>
  <guideline angle="90" x="-1805.31" y="0"/>
</glyph>
<glyph name="at" format="2">
  <advance width="1834"/>
  <unicode hex="0040"/>
  <outline>
    <contour>
      <point x="912" y="-210" type="curve" smooth="yes"/>
      <point x="688" y="-210"/>
      <point x="501" y="-136"/>
      <point x="368" y="-8" type="curve" smooth="yes"/>
      <point x="235" y="121"/>
      <point x="160" y="299"/>
      <point x="160" y="506" type="curve" smooth="yes"/>
      <point x="160" y="777"/>
      <point x="245" y="973"/>
      <point x="385" y="1101" type="curve" smooth="yes"/>
      <point x="524" y="1229"/>
      <point x="707" y="1290"/>
      <point x="900" y="1290" type="curve" smooth="yes"/>
      <point x="1155" y="1290"/>
      <point x="1349" y="1209"/>
      <point x="1479" y="1077" type="curve" smooth="yes"/>
      <point x="1609" y="944"/>
      <point x="1674" y="767"/>
      <point x="1674" y="574" type="curve" smooth="yes"/>
      <point x="1674" y="441"/>
      <point x="1650" y="338"/>
      <point x="1602" y="264" type="curve" smooth="yes"/>
      <point x="1553" y="189"/>
      <point x="1469" y="152"/>
      <point x="1350" y="152" type="curve" smooth="yes"/>
      <point x="1298" y="152"/>
      <point x="1247" y="164"/>
      <point x="1197" y="188" type="curve" smooth="yes"/>
      <point x="1147" y="212"/>
      <point x="1112" y="248"/>
      <point x="1092" y="296" type="curve"/>
      <point x="1160" y="296" type="line"/>
      <point x="1129" y="241"/>
      <point x="1090" y="204"/>
      <point x="1042" y="183" type="curve" smooth="yes"/>
      <point x="993" y="162"/>
      <point x="944" y="152"/>
      <point x="894" y="152" type="curve" smooth="yes"/>
      <point x="820" y="152"/>
      <point x="755" y="168"/>
      <point x="698" y="201" type="curve" smooth="yes"/>
      <point x="584" y="265"/>
      <point x="514" y="385"/>
      <point x="514" y="540" type="curve" smooth="yes"/>
      <point x="514" y="619"/>
      <point x="531" y="688"/>
      <point x="566" y="746" type="curve" smooth="yes"/>
      <point x="634" y="862"/>
      <point x="755" y="928"/>
      <point x="898" y="928" type="curve" smooth="yes"/>
      <point x="941" y="928"/>
      <point x="987" y="919"/>
      <point x="1035" y="902" type="curve" smooth="yes"/>
      <point x="1082" y="884"/>
      <point x="1119" y="862"/>
      <point x="1146" y="836" type="curve"/>
      <point x="1104" y="778" type="line"/>
      <point x="1104" y="900" type="line"/>
      <point x="1266" y="900" type="line"/>
      <point x="1262" y="506" type="line" smooth="yes"/>
      <point x="1262" y="454"/>
      <point x="1270" y="417"/>
      <point x="1287" y="396" type="curve" smooth="yes"/>
      <point x="1303" y="375"/>
      <point x="1324" y="364"/>
      <point x="1350" y="364" type="curve" smooth="yes"/>
      <point x="1384" y="364"/>
      <point x="1408" y="374"/>
      <point x="1421" y="393" type="curve" smooth="yes"/>
      <point x="1448" y="431"/>
      <point x="1448" y="497"/>
      <point x="1448" y="574" type="curve" smooth="yes"/>
      <point x="1448" y="679"/>
      <point x="1430" y="765"/>
      <point x="1395" y="831" type="curve" smooth="yes"/>
      <point x="1359" y="897"/>
      <point x="1313" y="948"/>
      <point x="1258" y="985" type="curve" smooth="yes"/>
      <point x="1203" y="1021"/>
      <point x="1145" y="1046"/>
      <point x="1085" y="1060" type="curve" smooth="yes"/>
      <point x="1024" y="1073"/>
      <point x="969" y="1080"/>
      <point x="920" y="1080" type="curve" smooth="yes"/>
      <point x="747" y="1080"/>
      <point x="610" y="1028"/>
      <point x="518" y="930" type="curve" smooth="yes"/>
      <point x="425" y="832"/>
      <point x="379" y="691"/>
      <point x="384" y="514" type="curve" smooth="yes"/>
      <point x="391" y="346"/>
      <point x="444" y="218"/>
      <point x="538" y="131" type="curve" smooth="yes"/>
      <point x="632" y="44"/>
      <point x="762" y="0"/>
      <point x="922" y="0" type="curve" smooth="yes"/>
      <point x="958" y="0"/>
      <point x="994" y="3"/>
      <point x="1030" y="9" type="curve" smooth="yes"/>
      <point x="1065" y="15"/>
      <point x="1099" y="23"/>
      <point x="1132" y="34" type="curve"/>
      <point x="1200" y="-166" type="line"/>
      <point x="1111" y="-195"/>
      <point x="1012" y="-210"/>
    </contour>
    <contour>
      <point x="910" y="364" type="curve" smooth="yes"/>
      <point x="953" y="364"/>
      <point x="991" y="376"/>
      <point x="1022" y="401" type="curve" smooth="yes"/>
      <point x="1053" y="426"/>
      <point x="1068" y="472"/>
      <point x="1068" y="540" type="curve" smooth="yes"/>
      <point x="1068" y="597"/>
      <point x="1056" y="641"/>
      <point x="1031" y="671" type="curve" smooth="yes"/>
      <point x="1006" y="701"/>
      <point x="968" y="716"/>
      <point x="918" y="716" type="curve" smooth="yes"/>
      <point x="797" y="716"/>
      <point x="740" y="647"/>
      <point x="740" y="540" type="curve" smooth="yes"/>
      <point x="740" y="432"/>
      <point x="801" y="364"/>
    </contour>
  </outline>
</glyph>
<glyph name="A" format="2">
  <advance width="1366"/>
  <unicode hex="0041"/>
  <outline>
    <contour>
      <point x="40" y="0" type="line"/>
      <point x="480" y="1440" type="line"/>
      <point x="886" y="1440" type="line"/>
      <point x="1326" y="0" type="line"/>
      <point x="1046" y="0" type="line"/>
      <point x="654" y="1270" type="line"/>
      <point x="706" y="1270" type="line"/>
      <point x="320" y="0" type="line"/>
    </contour>
    <contour>
      <point x="304" y="300" type="line"/>
      <point x="304" y="554" type="line"/>
      <point x="1064" y="554" type="line"/>
      <point x="1064" y="300" type="line"/>
    </contour>
  </outline>
</glyph>
<glyph name="D" format="2">
  <advance width="1420"/>
  <unicode hex="0044"/>
  <outline>
    <contour>
      <point x="140" y="0" type="line"/>
      <point x="140" y="1440" type="line"/>
      <point x="606" y="1440" type="line" smooth="yes"/>
      <point x="623" y="1440"/>
      <point x="729" y="1438"/>
      <point x="778" y="1432" type="qcurve" smooth="yes"/>
      <point x="952" y="1411"/>
      <point x="1194" y="1211"/>
      <point x="1320" y="903"/>
      <point x="1320" y="720" type="qcurve" smooth="yes"/>
      <point x="1320" y="537"/>
      <point x="1194" y="229"/>
      <point x="952" y="29"/>
      <point x="778" y="8" type="qcurve" smooth="yes"/>
      <point x="729" y="2"/>
      <point x="623" y="0"/>
      <point x="606" y="0" type="qcurve" smooth="yes"/>
    </contour>
    <contour>
      <point x="416" y="256" type="line"/>
      <point x="606" y="256" type="line" smooth="yes"/>
      <point x="633" y="256"/>
      <point x="725" y="259"/>
      <point x="762" y="266" type="qcurve" smooth="yes"/>
      <point x="856" y="285"/>
      <point x="975" y="423"/>
      <point x="1032" y="617"/>
      <point x="1032" y="720" type="qcurve" smooth="yes"/>
      <point x="1032" y="828"/>
      <point x="973" y="1022"/>
      <point x="853" y="1156"/>
      <point x="762" y="1174" type="qcurve" smooth="yes"/>
      <point x="725" y="1182"/>
      <point x="633" y="1184"/>
      <point x="606" y="1184" type="qcurve" smooth="yes"/>
      <point x="416" y="1184" type="line"/>
    </contour>
  </outline>
</glyph>
<glyph name="G" format="2">
  <advance width="1494"/>
  <unicode hex="0047"/>
  <outline>
    <contour>
      <point x="1196" y="0" type="line"/>
      <point x="1414" y="0" type="line"/>
      <point x="1414" y="806" type="line"/>
      <point x="1165" y="806" type="line"/>
      <point x="1165" y="339" type="line"/>
    </contour>
    <contour>
      <point x="745" y="1470" type="curve" smooth="yes"/>
      <point x="544" y="1470"/>
      <point x="372" y="1394"/>
      <point x="251" y="1262" type="curve" smooth="yes"/>
      <point x="130" y="1130"/>
      <point x="60" y="943"/>
      <point x="60" y="720" type="curve" smooth="yes"/>
      <point x="60" y="484"/>
      <point x="127" y="296"/>
      <point x="244" y="168" type="curve" smooth="yes"/>
      <point x="361" y="39"/>
      <point x="528" y="-30"/>
      <point x="725" y="-30" type="curve" smooth="yes"/>
      <point x="821" y="-30"/>
      <point x="929" y="-11"/>
      <point x="1001" y="25" type="curve" smooth="yes"/>
      <point x="1073" y="60"/>
      <point x="1149" y="110"/>
      <point x="1180" y="173" type="curve"/>
      <point x="1404" y="806" type="line"/>
      <point x="790" y="806" type="line"/>
      <point x="790" y="552" type="line"/>
      <point x="1158" y="552" type="line"/>
      <point x="1151" y="441"/>
      <point x="1087" y="361"/>
      <point x="1022" y="307" type="curve" smooth="yes"/>
      <point x="957" y="253"/>
      <point x="849" y="226"/>
      <point x="753" y="226" type="curve" smooth="yes"/>
      <point x="620" y="226"/>
      <point x="518" y="271"/>
      <point x="450" y="356" type="curve" smooth="yes"/>
      <point x="382" y="440"/>
      <point x="348" y="564"/>
      <point x="348" y="720" type="curve" smooth="yes"/>
      <point x="348" y="876"/>
      <point x="387" y="1000"/>
      <point x="457" y="1084" type="curve" smooth="yes"/>
      <point x="527" y="1168"/>
      <point x="627" y="1214"/>
      <point x="754" y="1214" type="curve" smooth="yes"/>
      <point x="849" y="1214"/>
      <point x="930" y="1188"/>
      <point x="993" y="1140" type="curve" smooth="yes"/>
      <point x="1056" y="1092"/>
      <point x="1099" y="1023"/>
      <point x="1119" y="936" type="curve"/>
      <point x="1397" y="976" type="line"/>
      <point x="1352" y="1140"/>
      <point x="1274" y="1265"/>
      <point x="1166" y="1347" type="curve" smooth="yes"/>
      <point x="1058" y="1429"/>
      <point x="917" y="1470"/>
    </contour>
  </outline>
</glyph>
<glyph name="H" format="2">
  <advance width="1468"/>
  <unicode hex="0048"/>
  <outline>
    <contour>
      <point x="140" y="0" type="line"/>
      <point x="140" y="1440" type="line"/>
      <point x="412" y="1440" type="line"/>
      <point x="412" y="848" type="line"/>
      <point x="1056" y="848" type="line"/>
      <point x="1056" y="1440" type="line"/>
      <point x="1328" y="1440" type="line"/>
      <point x="1328" y="0" type="line"/>
      <point x="1056" y="0" type="line"/>
      <point x="1056" y="594" type="line"/>
      <point x="412" y="594" type="line"/>
      <point x="412" y="0" type="line"/>
    </contour>
  </outline>
</glyph>
<glyph name="K" format="2">
  <advance width="1330"/>
  <unicode hex="004B"/>
  <outline>
    <contour>
      <point x="960" y="1440" type="line"/>
      <point x="1292" y="1440" type="line"/>
      <point x="271" y="323" type="line"/>
      <point x="273" y="696" type="line"/>
    </contour>
    <contour>
      <point x="993" y="0" type="line"/>
      <point x="423" y="696" type="line"/>
      <point x="676" y="799" type="line"/>
      <point x="1330" y="0" type="line"/>
    </contour>
    <contour>
      <point x="140" y="0" type="line"/>
      <point x="140" y="1440" type="line"/>
      <point x="402" y="1440" type="line"/>
      <point x="402" y="0" type="line"/>
    </contour>
  </outline>
</glyph>
<glyph name="M" format="2">
  <advance width="1720"/>
  <unicode hex="004D"/>
  <outline>
    <contour>
      <point x="140" y="0" type="line"/>
      <point x="140" y="1440" type="line"/>
      <point x="414" y="1440" type="line"/>
      <point x="860" y="519" type="line"/>
      <point x="1306" y="1440" type="line"/>
      <point x="1580" y="1440" type="line"/>
      <point x="1580" y="0" type="line"/>
      <point x="1306" y="0" type="line"/>
      <point x="1306" y="900" type="line"/>
      <point x="973" y="211" type="line"/>
      <point x="747" y="211" type="line"/>
      <point x="414" y="900" type="line"/>
      <point x="414" y="0" type="line"/>
    </contour>
  </outline>
</glyph>
<glyph name="P" format="2">
  <advance width="1300"/>
  <unicode hex="0050"/>
  <outline>
    <contour>
      <point x="140" y="0" type="line"/>
      <point x="140" y="1440" type="line"/>
      <point x="748" y="1440" type="line" smooth="yes"/>
      <point x="776" y="1440"/>
      <point x="831" y="1439"/>
      <point x="868" y="1432" type="curve"/>
      <point x="954" y="1419"/>
      <point x="1025" y="1390"/>
      <point x="1080" y="1347" type="curve" smooth="yes"/>
      <point x="1190" y="1260"/>
      <point x="1240" y="1125"/>
      <point x="1240" y="964" type="curve" smooth="yes"/>
      <point x="1240" y="883"/>
      <point x="1227" y="810"/>
      <point x="1201" y="745" type="curve" smooth="yes"/>
      <point x="1148" y="613"/>
      <point x="1039" y="523"/>
      <point x="868" y="496" type="curve" smooth="yes"/>
      <point x="849" y="493"/>
      <point x="828" y="491"/>
      <point x="804" y="490" type="curve" smooth="yes"/>
      <point x="780" y="489"/>
      <point x="761" y="488"/>
      <point x="748" y="488" type="curve" smooth="yes"/>
      <point x="412" y="488" type="line"/>
      <point x="412" y="0" type="line"/>
    </contour>
    <contour>
      <point x="412" y="742" type="line"/>
      <point x="736" y="742" type="line" smooth="yes"/>
      <point x="764" y="742"/>
      <point x="800" y="744"/>
      <point x="828" y="752" type="curve" smooth="yes"/>
      <point x="865" y="762"/>
      <point x="893" y="779"/>
      <point x="913" y="803" type="curve" smooth="yes"/>
      <point x="953" y="850"/>
      <point x="966" y="912"/>
      <point x="966" y="964" type="curve" smooth="yes"/>
      <point x="966" y="990"/>
      <point x="962" y="1018"/>
      <point x="955" y="1047" type="curve"/>
      <point x="939" y="1105"/>
      <point x="901" y="1156"/>
      <point x="828" y="1176" type="curve" smooth="yes"/>
      <point x="800" y="1184"/>
      <point x="764" y="1186"/>
      <point x="736" y="1186" type="curve" smooth="yes"/>
      <point x="412" y="1186" type="line"/>
    </contour>
  </outline>
</glyph>
<glyph name="Q" format="2">
  <advance width="1516"/>
  <unicode hex="0051"/>
  <outline>
    <contour>
      <point x="1171" y="278" type="line"/>
      <point x="1272" y="203"/>
      <point x="1340" y="149"/>
      <point x="1471" y="141" type="curve"/>
      <point x="1445" y="-100" type="line"/>
      <point x="1218" y="-87"/>
      <point x="1146" y="-32"/>
      <point x="986" y="120" type="curve"/>
    </contour>
    <contour>
      <point x="758" y="-30" type="curve" smooth="yes"/>
      <point x="309" y="-30"/>
      <point x="60" y="289"/>
      <point x="60" y="720" type="curve" smooth="yes"/>
      <point x="60" y="1151"/>
      <point x="309" y="1470"/>
      <point x="758" y="1470" type="curve" smooth="yes"/>
      <point x="1207" y="1470"/>
      <point x="1456" y="1151"/>
      <point x="1456" y="720" type="curve" smooth="yes"/>
      <point x="1456" y="289"/>
      <point x="1207" y="-30"/>
    </contour>
    <contour>
      <point x="758" y="226" type="curve" smooth="yes"/>
      <point x="1058" y="226"/>
      <point x="1168" y="452"/>
      <point x="1168" y="720" type="curve" smooth="yes"/>
      <point x="1168" y="990"/>
      <point x="1059" y="1214"/>
      <point x="758" y="1214" type="curve" smooth="yes"/>
      <point x="457" y="1214"/>
      <point x="348" y="989"/>
      <point x="348" y="720" type="curve" smooth="yes"/>
      <point x="348" y="450"/>
      <point x="457" y="226"/>
    </contour>
  </outline>
</glyph>
<glyph name="V" format="2">
  <advance width="1306"/>
  <unicode hex="0056"/>
  <outline>
    <contour>
      <point x="450" y="0" type="line"/>
      <point x="10" y="1440" type="line"/>
      <point x="290" y="1440" type="line"/>
      <point x="650" y="256" type="line"/>
      <point x="1016" y="1440" type="line"/>
      <point x="1296" y="1440" type="line"/>
      <point x="856" y="0" type="line"/>
    </contour>
  </outline>
</glyph>
<glyph name="X" format="2">
  <advance width="1344"/>
  <unicode hex="0058"/>
  <outline>
    <contour>
      <point x="20" y="0" type="line"/>
      <point x="504" y="728" type="line"/>
      <point x="34" y="1440" type="line"/>
      <point x="368" y="1440" type="line"/>
      <point x="674" y="960" type="line"/>
      <point x="976" y="1440" type="line"/>
      <point x="1312" y="1440" type="line"/>
      <point x="842" y="728" type="line"/>
      <point x="1324" y="0" type="line"/>
      <point x="990" y="0" type="line"/>
      <point x="674" y="496" type="line"/>
      <point x="356" y="0" type="line"/>
    </contour>
  </outline>
</glyph>
<glyph name="bracketleft" format="2">
  <advance width="858"/>
  <unicode hex="005B"/>
  <outline>
    <contour>
      <point x="280" y="-420" type="line"/>
      <point x="280" y="1800" type="line"/>
      <point x="738" y="1800" type="line"/>
      <point x="738" y="1560" type="line"/>
      <point x="520" y="1560" type="line"/>
      <point x="520" y="-180" type="line"/>
      <point x="738" y="-180" type="line"/>
      <point x="738" y="-420" type="line"/>
    </contour>
  </outline>
</glyph>
<glyph name="backslash" format="2">
  <advance width="896"/>
  <unicode hex="005C"/>
  <outline>
    <contour>
      <point x="392" y="1440" type="line"/>
      <point x="776" y="0" type="line"/>
      <point x="504" y="0" type="line"/>
      <point x="120" y="1440" type="line"/>
    </contour>
  </outline>
</glyph>
<glyph name="asciicircum" format="2">
  <advance width="1368"/>
  <unicode hex="005E"/>
  <outline>
    <contour>
      <point x="211" y="986" type="line"/>
      <point x="694" y="1470" type="line"/>
      <point x="1179" y="987" type="line"/>
      <point x="1011" y="819" type="line"/>
      <point x="694" y="1146" type="line"/>
      <point x="379" y="818" type="line"/>
    </contour>
  </outline>
</glyph>
<glyph name="a" format="2">
  <advance width="1166"/>
  <unicode hex="0061"/>
  <outline>
    <contour>
      <point x="502" y="196" type="curve" smooth="yes"/>
      <point x="414" y="196"/>
      <point x="348" y="250"/>
      <point x="348" y="324" type="curve" smooth="yes"/>
      <point x="348" y="394"/>
      <point x="424" y="422"/>
      <point x="508" y="434" type="curve" smooth="yes"/>
      <point x="692" y="460" type="line" smooth="yes"/>
      <point x="730" y="466"/>
      <point x="758" y="480"/>
      <point x="776" y="496" type="curve"/>
      <point x="776" y="440"/>
      <point x="778" y="378"/>
      <point x="740" y="320" type="curve" smooth="yes"/>
      <point x="692" y="248"/>
      <point x="606" y="196"/>
    </contour>
    <contour>
      <point x="436" y="-30" type="curve" smooth="yes"/>
      <point x="602" y="-30"/>
      <point x="700" y="8"/>
      <point x="808" y="132" type="curve"/>
      <point x="808" y="0" type="line"/>
      <point x="1046" y="0" type="line"/>
      <point x="1046" y="644" type="line" smooth="yes"/>
      <point x="1046" y="956"/>
      <point x="881" y="1110"/>
      <point x="580" y="1110" type="curve" smooth="yes"/>
      <point x="340" y="1110"/>
      <point x="178" y="1004"/>
      <point x="118" y="808" type="curve"/>
      <point x="364" y="740" type="line"/>
      <point x="392" y="818"/>
      <point x="488" y="858"/>
      <point x="580" y="858" type="curve" smooth="yes"/>
      <point x="674" y="858"/>
      <point x="762" y="822"/>
      <point x="762" y="748" type="curve" smooth="yes"/>
      <point x="762" y="702"/>
      <point x="718" y="686"/>
      <point x="598" y="668" type="curve" smooth="yes"/>
      <point x="418" y="642" type="line" smooth="yes"/>
      <point x="234" y="616"/>
      <point x="80" y="548"/>
      <point x="80" y="304" type="curve" smooth="yes"/>
      <point x="80" y="102"/>
      <point x="218" y="-30"/>
    </contour>
  </outline>
</glyph>
<glyph name="b" format="2">
  <advance width="1248"/>
  <unicode hex="0062"/>
  <outline>
    <contour>
      <point x="670" y="-30" type="curve" smooth="yes"/>
      <point x="563" y="-30"/>
      <point x="473" y="-5"/>
      <point x="401" y="45" type="curve" smooth="yes"/>
      <point x="257" y="145"/>
      <point x="184" y="324"/>
      <point x="184" y="540" type="curve" smooth="yes"/>
      <point x="184" y="648"/>
      <point x="202" y="745"/>
      <point x="238" y="831" type="curve" smooth="yes"/>
      <point x="310" y="1003"/>
      <point x="451" y="1110"/>
      <point x="656" y="1110" type="curve" smooth="yes"/>
      <point x="759" y="1110"/>
      <point x="849" y="1085"/>
      <point x="926" y="1036" type="curve" smooth="yes"/>
      <point x="1003" y="987"/>
      <point x="1062" y="919"/>
      <point x="1105" y="834" type="curve" smooth="yes"/>
      <point x="1147" y="748"/>
      <point x="1168" y="650"/>
      <point x="1168" y="540" type="curve" smooth="yes"/>
      <point x="1168" y="432"/>
      <point x="1147" y="335"/>
      <point x="1106" y="249" type="curve" smooth="yes"/>
      <point x="1064" y="163"/>
      <point x="1006" y="95"/>
      <point x="931" y="45" type="curve" smooth="yes"/>
      <point x="856" y="-5"/>
      <point x="769" y="-30"/>
    </contour>
    <contour>
      <point x="138" y="0" type="line"/>
      <point x="138" y="1440" type="line"/>
      <point x="412" y="1440" type="line"/>
      <point x="412" y="740" type="line"/>
      <point x="378" y="740" type="line"/>
      <point x="378" y="0" type="line"/>
    </contour>
    <contour>
      <point x="626" y="212" type="curve" smooth="yes"/>
      <point x="685" y="212"/>
      <point x="733" y="227"/>
      <point x="770" y="256" type="curve" smooth="yes"/>
      <point x="845" y="315"/>
      <point x="880" y="419"/>
      <point x="880" y="540" type="curve" smooth="yes"/>
      <point x="880" y="600"/>
      <point x="871" y="655"/>
      <point x="852" y="705" type="curve" smooth="yes"/>
      <point x="815" y="804"/>
      <point x="737" y="868"/>
      <point x="616" y="868" type="curve" smooth="yes"/>
      <point x="559" y="868"/>
      <point x="514" y="854"/>
      <point x="479" y="827" type="curve" smooth="yes"/>
      <point x="409" y="772"/>
      <point x="378" y="671"/>
      <point x="378" y="540" type="curve" smooth="yes"/>
      <point x="378" y="475"/>
      <point x="386" y="417"/>
      <point x="402" y="368" type="curve" smooth="yes"/>
      <point x="434" y="269"/>
      <point x="505" y="212"/>
    </contour>
  </outline>
</glyph>
<glyph name="d" format="2">
  <advance width="1298"/>
  <unicode hex="0064"/>
  <outline>
    <contour>
      <point x="1158" y="1440" type="line"/>
      <point x="1158" y="0" type="line"/>
      <point x="886" y="0" type="line"/>
      <point x="886" y="1440" type="line"/>
    </contour>
    <contour>
      <point x="568" y="1110" type="qcurve" smooth="yes"/>
      <point x="683" y="1110"/>
      <point x="838" y="1024"/>
      <point x="933" y="872"/>
      <point x="973" y="663"/>
      <point x="973" y="540" type="qcurve" smooth="yes"/>
      <point x="973" y="417"/>
      <point x="933" y="208"/>
      <point x="838" y="56"/>
      <point x="683" y="-30"/>
      <point x="568" y="-30" type="qcurve" smooth="yes"/>
      <point x="465" y="-30"/>
      <point x="286" y="54"/>
      <point x="155" y="205"/>
      <point x="80" y="415"/>
      <point x="80" y="540" type="qcurve" smooth="yes"/>
      <point x="80" y="666"/>
      <point x="155" y="876"/>
      <point x="286" y="1026"/>
      <point x="465" y="1110"/>
    </contour>
    <contour>
      <point x="628" y="856" type="qcurve" smooth="yes"/>
      <point x="563" y="856"/>
      <point x="465" y="810"/>
      <point x="400" y="726"/>
      <point x="368" y="610"/>
      <point x="368" y="540" type="qcurve" smooth="yes"/>
      <point x="368" y="468"/>
      <point x="401" y="351"/>
      <point x="466" y="269"/>
      <point x="564" y="224"/>
      <point x="628" y="224" type="qcurve" smooth="yes"/>
      <point x="695" y="224"/>
      <point x="792" y="270"/>
      <point x="855" y="353"/>
      <point x="886" y="470"/>
      <point x="886" y="540" type="qcurve" smooth="yes"/>
      <point x="886" y="613"/>
      <point x="853" y="730"/>
      <point x="788" y="812"/>
      <point x="692" y="856"/>
    </contour>
  </outline>
</glyph>
<glyph name="f" format="2">
  <advance width="772"/>
  <unicode hex="0066"/>
  <outline>
    <contour>
      <point x="230" y="0" type="line"/>
      <point x="230" y="1076" type="line" smooth="yes"/>
      <point x="230" y="1373"/>
      <point x="318" y="1470"/>
      <point x="618" y="1470" type="curve" smooth="yes"/>
      <point x="752" y="1470" type="line"/>
      <point x="752" y="1250" type="line"/>
      <point x="674" y="1250" type="line" smooth="yes"/>
      <point x="592" y="1250"/>
      <point x="502" y="1242"/>
      <point x="502" y="1140" type="curve" smooth="yes"/>
      <point x="502" y="0" type="line"/>
    </contour>
    <contour>
      <point x="60" y="870" type="line"/>
      <point x="60" y="1080" type="line"/>
      <point x="752" y="1080" type="line"/>
      <point x="752" y="870" type="line"/>
    </contour>
  </outline>
</glyph>
<glyph name="g" format="2">
  <advance width="1298"/>
  <unicode hex="0067"/>
  <outline>
    <contour>
      <point x="628" y="264" type="curve" smooth="yes"/>
      <point x="807" y="264"/>
      <point x="886" y="395"/>
      <point x="886" y="560" type="curve" smooth="yes"/>
      <point x="886" y="723"/>
      <point x="805" y="856"/>
      <point x="628" y="856" type="curve" smooth="yes"/>
      <point x="453" y="856"/>
      <point x="368" y="722"/>
      <point x="368" y="560" type="curve" smooth="yes"/>
      <point x="368" y="396"/>
      <point x="451" y="264"/>
    </contour>
    <contour>
      <point x="568" y="1110" type="curve" smooth="yes"/>
      <point x="904" y="1110"/>
      <point x="973" y="841"/>
      <point x="973" y="560" type="curve" smooth="yes"/>
      <point x="973" y="279"/>
      <point x="904" y="10"/>
      <point x="568" y="10" type="curve" smooth="yes"/>
      <point x="256" y="10"/>
      <point x="80" y="269"/>
      <point x="80" y="560" type="curve" smooth="yes"/>
      <point x="80" y="852"/>
      <point x="255" y="1110"/>
    </contour>
    <contour>
      <point x="1158" y="56" type="line" smooth="yes"/>
      <point x="1158" y="-275"/>
      <point x="958" y="-510"/>
      <point x="618" y="-510" type="curve" smooth="yes"/>
      <point x="380" y="-510"/>
      <point x="172" y="-391"/>
      <point x="108" y="-152" type="curve"/>
      <point x="386" y="-94" type="line"/>
      <point x="420" y="-205"/>
      <point x="504" y="-256"/>
      <point x="618" y="-256" type="curve" smooth="yes"/>
      <point x="805" y="-256"/>
      <point x="886" y="-110"/>
      <point x="886" y="60" type="curve" smooth="yes"/>
      <point x="886" y="1080" type="line"/>
      <point x="1158" y="1080" type="line"/>
    </contour>
  </outline>
</glyph>
<glyph name="j" format="2">
  <advance width="602"/>
  <unicode hex="006A"/>
  <outline>
    <contour>
      <point x="-20" y="-480" type="line"/>
      <point x="-20" y="-226" type="line"/>
      <point x="28" y="-226" type="line" smooth="yes"/>
      <point x="90" y="-226"/>
      <point x="133" y="-212"/>
      <point x="156" y="-184" type="curve" smooth="yes"/>
      <point x="179" y="-156"/>
      <point x="190" y="-116"/>
      <point x="190" y="-64" type="curve" smooth="yes"/>
      <point x="190" y="1080" type="line"/>
      <point x="462" y="1080" type="line"/>
      <point x="462" y="-196" type="line" smooth="yes"/>
      <point x="462" y="-282"/>
      <point x="435" y="-351"/>
      <point x="382" y="-403" type="curve" smooth="yes"/>
      <point x="328" y="-454"/>
      <point x="255" y="-480"/>
      <point x="164" y="-480" type="curve" smooth="yes"/>
    </contour>
    <contour>
      <point x="326" y="1191" type="curve" smooth="yes"/>
      <point x="281" y="1191"/>
      <point x="243" y="1206"/>
      <point x="213" y="1237" type="curve" smooth="yes"/>
      <point x="182" y="1268"/>
      <point x="167" y="1305"/>
      <point x="167" y="1349" type="curve" smooth="yes"/>
      <point x="167" y="1394"/>
      <point x="182" y="1431"/>
      <point x="213" y="1462" type="curve" smooth="yes"/>
      <point x="243" y="1492"/>
      <point x="281" y="1507"/>
      <point x="326" y="1507" type="curve" smooth="yes"/>
      <point x="372" y="1507"/>
      <point x="410" y="1492"/>
      <point x="440" y="1462" type="curve" smooth="yes"/>
      <point x="470" y="1431"/>
      <point x="485" y="1394"/>
      <point x="485" y="1349" type="curve" smooth="yes"/>
      <point x="485" y="1305"/>
      <point x="470" y="1268"/>
      <point x="440" y="1237" type="curve" smooth="yes"/>
      <point x="410" y="1206"/>
      <point x="372" y="1191"/>
    </contour>
  </outline>
</glyph>
<glyph name="l" format="2">
  <advance width="670"/>
  <unicode hex="006C"/>
  <outline>
    <contour>
      <point x="630" y="240" type="qcurve"/>
      <point x="630" y="0" type="line"/>
      <point x="508" y="0" type="line" smooth="yes"/>
      <point x="444" y="0"/>
      <point x="333" y="27"/>
      <point x="246" y="81"/>
      <point x="186" y="164"/>
      <point x="172" y="219" type="qcurve" smooth="yes"/>
      <point x="166" y="242"/>
      <point x="160" y="291"/>
      <point x="160" y="318" type="qcurve" smooth="yes"/>
      <point x="160" y="1440" type="line"/>
      <point x="432" y="1440" type="line"/>
      <point x="432" y="467" type="line" smooth="yes"/>
      <point x="432" y="446"/>
      <point x="431" y="405"/>
      <point x="431" y="385" type="qcurve"/>
      <point x="432" y="355"/>
      <point x="441" y="302"/>
      <point x="469" y="263"/>
      <point x="520" y="240"/>
      <point x="562" y="240" type="qcurve" smooth="yes"/>
      <point x="579" y="240"/>
      <point x="613" y="240"/>
    </contour>
  </outline>
</glyph>
<glyph name="m" format="2">
  <advance width="1832"/>
  <unicode hex="006D"/>
  <outline>
    <contour>
      <point x="1440" y="0" type="line"/>
      <point x="1440" y="638" type="line" smooth="yes"/>
      <point x="1440" y="709"/>
      <point x="1423" y="765"/>
      <point x="1390" y="805" type="curve"/>
      <point x="1356" y="844"/>
      <point x="1309" y="864"/>
      <point x="1250" y="864" type="curve" smooth="yes"/>
      <point x="1212" y="864"/>
      <point x="1179" y="855"/>
      <point x="1151" y="838" type="curve" smooth="yes"/>
      <point x="1123" y="820"/>
      <point x="1101" y="795"/>
      <point x="1086" y="764" type="curve" smooth="yes"/>
      <point x="1070" y="732"/>
      <point x="1062" y="695"/>
      <point x="1062" y="654" type="curve"/>
      <point x="948" y="730" type="line"/>
      <point x="948" y="804"/>
      <point x="966" y="869"/>
      <point x="1001" y="926" type="curve" smooth="yes"/>
      <point x="1071" y="1039"/>
      <point x="1194" y="1106"/>
      <point x="1338" y="1106" type="curve" smooth="yes"/>
      <point x="1461" y="1106"/>
      <point x="1555" y="1070"/>
      <point x="1618" y="997" type="curve" smooth="yes"/>
      <point x="1681" y="924"/>
      <point x="1712" y="828"/>
      <point x="1712" y="710" type="curve" smooth="yes"/>
      <point x="1712" y="0" type="line"/>
    </contour>
    <contour>
      <point x="138" y="0" type="line"/>
      <point x="138" y="1080" type="line"/>
      <point x="378" y="1080" type="line"/>
      <point x="378" y="722" type="line"/>
      <point x="412" y="722" type="line"/>
      <point x="412" y="0" type="line"/>
    </contour>
    <contour>
      <point x="790" y="0" type="line"/>
      <point x="790" y="638" type="line" smooth="yes"/>
      <point x="790" y="709"/>
      <point x="773" y="765"/>
      <point x="740" y="805" type="curve"/>
      <point x="706" y="844"/>
      <point x="659" y="864"/>
      <point x="600" y="864" type="curve" smooth="yes"/>
      <point x="543" y="864"/>
      <point x="498" y="845"/>
      <point x="464" y="806" type="curve" smooth="yes"/>
      <point x="429" y="767"/>
      <point x="412" y="716"/>
      <point x="412" y="654" type="curve"/>
      <point x="298" y="734" type="line"/>
      <point x="298" y="805"/>
      <point x="316" y="868"/>
      <point x="351" y="924" type="curve" smooth="yes"/>
      <point x="422" y="1036"/>
      <point x="546" y="1106"/>
      <point x="694" y="1106" type="curve" smooth="yes"/>
      <point x="779" y="1106"/>
      <point x="848" y="1088"/>
      <point x="903" y="1052" type="curve" smooth="yes"/>
      <point x="1011" y="980"/>
      <point x="1062" y="854"/>
      <point x="1062" y="710" type="curve" smooth="yes"/>
      <point x="1062" y="0" type="line"/>
    </contour>
  </outline>
</glyph>
<glyph name="p" format="2">
  <advance width="1298"/>
  <unicode hex="0070"/>
  <outline>
    <contour>
      <point x="140" y="-480" type="line"/>
      <point x="140" y="1080" type="line"/>
      <point x="412" y="1080" type="line"/>
      <point x="412" y="-480" type="line"/>
    </contour>
    <contour>
      <point x="730" y="-30" type="qcurve" smooth="yes"/>
      <point x="615" y="-30"/>
      <point x="460" y="56"/>
      <point x="365" y="208"/>
      <point x="325" y="417"/>
      <point x="325" y="540" type="qcurve" smooth="yes"/>
      <point x="325" y="663"/>
      <point x="365" y="872"/>
      <point x="460" y="1024"/>
      <point x="615" y="1110"/>
      <point x="730" y="1110" type="qcurve" smooth="yes"/>
      <point x="834" y="1110"/>
      <point x="1012" y="1026"/>
      <point x="1143" y="875"/>
      <point x="1218" y="665"/>
      <point x="1218" y="540" type="qcurve" smooth="yes"/>
      <point x="1218" y="414"/>
      <point x="1143" y="204"/>
      <point x="1012" y="54"/>
      <point x="834" y="-30"/>
    </contour>
    <contour>
      <point x="670" y="224" type="qcurve" smooth="yes"/>
      <point x="735" y="224"/>
      <point x="833" y="270"/>
      <point x="898" y="354"/>
      <point x="930" y="470"/>
      <point x="930" y="540" type="qcurve" smooth="yes"/>
      <point x="930" y="612"/>
      <point x="897" y="729"/>
      <point x="832" y="811"/>
      <point x="735" y="856"/>
      <point x="670" y="856" type="qcurve" smooth="yes"/>
      <point x="603" y="856"/>
      <point x="506" y="810"/>
      <point x="443" y="727"/>
      <point x="412" y="611"/>
      <point x="412" y="540" type="qcurve" smooth="yes"/>
      <point x="412" y="467"/>
      <point x="445" y="350"/>
      <point x="510" y="268"/>
      <point x="606" y="224"/>
    </contour>
  </outline>
</glyph>
<glyph name="q" format="2">
  <advance width="1298"/>
  <unicode hex="0071"/>
  <outline>
    <contour>
      <point x="1158" y="-480" type="line"/>
      <point x="886" y="-480" type="line"/>
      <point x="886" y="1080" type="line"/>
      <point x="1158" y="1080" type="line"/>
    </contour>
    <contour>
      <point x="568" y="-30" type="qcurve" smooth="yes"/>
      <point x="465" y="-30"/>
      <point x="286" y="54"/>
      <point x="155" y="204"/>
      <point x="80" y="414"/>
      <point x="80" y="540" type="qcurve" smooth="yes"/>
      <point x="80" y="665"/>
      <point x="155" y="875"/>
      <point x="286" y="1026"/>
      <point x="465" y="1110"/>
      <point x="568" y="1110" type="qcurve" smooth="yes"/>
      <point x="683" y="1110"/>
      <point x="838" y="1024"/>
      <point x="933" y="872"/>
      <point x="973" y="663"/>
      <point x="973" y="540" type="qcurve" smooth="yes"/>
      <point x="973" y="417"/>
      <point x="933" y="208"/>
      <point x="838" y="56"/>
      <point x="683" y="-30"/>
    </contour>
    <contour>
      <point x="628" y="224" type="qcurve" smooth="yes"/>
      <point x="692" y="224"/>
      <point x="788" y="268"/>
      <point x="853" y="350"/>
      <point x="886" y="467"/>
      <point x="886" y="540" type="qcurve" smooth="yes"/>
      <point x="886" y="611"/>
      <point x="855" y="727"/>
      <point x="792" y="810"/>
      <point x="695" y="856"/>
      <point x="628" y="856" type="qcurve" smooth="yes"/>
      <point x="564" y="856"/>
      <point x="466" y="811"/>
      <point x="401" y="729"/>
      <point x="368" y="612"/>
      <point x="368" y="540" type="qcurve" smooth="yes"/>
      <point x="368" y="470"/>
      <point x="400" y="354"/>
      <point x="465" y="270"/>
      <point x="563" y="224"/>
    </contour>
  </outline>
</glyph>
<glyph name="r" format="2">
  <advance width="821"/>
  <unicode hex="0072"/>
  <outline>
    <contour>
      <point x="140" y="0" type="line"/>
      <point x="140" y="1080" type="line"/>
      <point x="380" y="1080" type="line"/>
      <point x="380" y="816" type="line"/>
      <point x="354" y="850" type="line"/>
      <point x="400" y="973"/>
      <point x="509" y="1100"/>
      <point x="645" y="1100" type="curve" smooth="yes"/>
      <point x="705" y="1100"/>
      <point x="819" y="1087"/>
      <point x="871" y="1058" type="curve"/>
      <point x="774" y="823" type="line"/>
      <point x="749" y="843"/>
      <point x="712" y="863"/>
      <point x="680" y="863" type="curve" smooth="yes"/>
      <point x="615" y="863"/>
      <point x="557" y="830"/>
      <point x="511" y="781" type="curve" smooth="yes"/>
      <point x="452" y="718"/>
      <point x="414" y="629"/>
      <point x="414" y="552" type="curve" smooth="yes"/>
      <point x="414" y="0" type="line"/>
    </contour>
  </outline>
</glyph>
<glyph name="t" format="2">
  <advance width="888"/>
  <unicode hex="0074"/>
  <outline>
    <contour>
      <point x="788" y="0" type="line"/>
      <point x="676" y="-21"/>
      <point x="461" y="-16"/>
      <point x="292" y="55"/>
      <point x="248" y="134" type="qcurve" smooth="yes"/>
      <point x="208" y="208"/>
      <point x="204" y="361"/>
      <point x="204" y="458" type="qcurve" smooth="yes"/>
      <point x="204" y="1380" type="line"/>
      <point x="476" y="1380" type="line"/>
      <point x="476" y="474" type="line" smooth="yes"/>
      <point x="476" y="411"/>
      <point x="479" y="310"/>
      <point x="498" y="280" type="qcurve" smooth="yes"/>
      <point x="534" y="223"/>
      <point x="692" y="213"/>
      <point x="788" y="226" type="qcurve"/>
    </contour>
    <contour>
      <point x="20" y="870" type="line"/>
      <point x="20" y="1080" type="line"/>
      <point x="788" y="1080" type="line"/>
      <point x="788" y="870" type="line"/>
    </contour>
  </outline>
</glyph>
<glyph name="w" format="2">
  <advance width="1628"/>
  <unicode hex="0077"/>
  <outline>
    <contour>
      <point x="370" y="0" type="line"/>
      <point x="40" y="1082" type="line"/>
      <point x="306" y="1080" type="line"/>
      <point x="502" y="436" type="line"/>
      <point x="701" y="1080" type="line"/>
      <point x="927" y="1080" type="line"/>
      <point x="1126" y="436" type="line"/>
      <point x="1322" y="1080" type="line"/>
      <point x="1588" y="1080" type="line"/>
      <point x="1258" y="0" type="line"/>
      <point x="1050" y="0" type="line"/>
      <point x="814" y="704" type="line"/>
      <point x="578" y="0" type="line"/>
    </contour>
  </outline>
</glyph>
<glyph name="x" format="2">
  <advance width="1126"/>
  <unicode hex="0078"/>
  <outline>
    <contour>
      <point x="20" y="0" type="line"/>
      <point x="406" y="546" type="line"/>
      <point x="28" y="1080" type="line"/>
      <point x="348" y="1080" type="line"/>
      <point x="564" y="760" type="line"/>
      <point x="776" y="1080" type="line"/>
      <point x="1096" y="1080" type="line"/>
      <point x="718" y="546" type="line"/>
      <point x="1106" y="0" type="line"/>
      <point x="786" y="0" type="line"/>
      <point x="564" y="332" type="line"/>
      <point x="340" y="0" type="line"/>
    </contour>
  </outline>
</glyph>
<glyph name="y" format="2">
  <advance width="1176"/>
  <unicode hex="0079"/>
  <outline>
    <contour>
      <point x="80" y="1080" type="line"/>
      <point x="352" y="1080" type="line"/>
      <point x="608" y="332" type="line"/>
      <point x="864" y="1080" type="line"/>
      <point x="1136" y="1080" type="line"/>
      <point x="744" y="0" type="line" smooth="yes"/>
      <point x="636" y="-299"/>
      <point x="593" y="-480"/>
      <point x="230" y="-480" type="curve" smooth="yes"/>
      <point x="152" y="-480" type="line"/>
      <point x="152" y="-242" type="line"/>
      <point x="204" y="-242" type="line" smooth="yes"/>
      <point x="390" y="-242"/>
      <point x="407" y="-160"/>
      <point x="472" y="0" type="curve"/>
    </contour>
  </outline>
</glyph>
<glyph name="braceleft" format="2">
  <advance width="918"/>
  <unicode hex="007B"/>
  <outline>
    <contour>
      <point x="696" y="-420" type="line" smooth="yes"/>
      <point x="558" y="-420"/>
      <point x="402" y="-264"/>
      <point x="402" y="-126" type="qcurve" smooth="yes"/>
      <point x="402" y="458" type="line" smooth="yes"/>
      <point x="402" y="477"/>
      <point x="392" y="490" type="qcurve"/>
      <point x="302" y="618" type="line"/>
      <point x="280" y="651"/>
      <point x="280" y="729"/>
      <point x="302" y="762" type="qcurve"/>
      <point x="392" y="890" type="line"/>
      <point x="402" y="907"/>
      <point x="402" y="922" type="qcurve" smooth="yes"/>
      <point x="402" y="1506" type="line" smooth="yes"/>
      <point x="402" y="1643"/>
      <point x="558" y="1800"/>
      <point x="696" y="1800" type="qcurve" smooth="yes"/>
      <point x="838" y="1800" type="line"/>
      <point x="838" y="1544" type="line"/>
      <point x="716" y="1544" type="line" smooth="yes"/>
      <point x="692" y="1544"/>
      <point x="658" y="1510"/>
      <point x="658" y="1486" type="qcurve" smooth="yes"/>
      <point x="658" y="922" type="line" smooth="yes"/>
      <point x="658" y="824"/>
      <point x="600" y="742" type="qcurve" smooth="yes"/>
      <point x="562" y="690" type="line"/>
      <point x="600" y="638" type="line" smooth="yes"/>
      <point x="658" y="556"/>
      <point x="658" y="458" type="qcurve" smooth="yes"/>
      <point x="658" y="-106" type="line" smooth="yes"/>
      <point x="658" y="-131"/>
      <point x="692" y="-166"/>
      <point x="716" y="-166" type="qcurve" smooth="yes"/>
      <point x="838" y="-166" type="line"/>
      <point x="838" y="-420" type="line"/>
    </contour>
  </outline>
</glyph>
<glyph name="braceright" format="2">
  <advance width="918"/>
  <unicode hex="007D"/>
  <outline>
    <contour>
      <point x="80" y="-420" type="line"/>
      <point x="80" y="-166" type="line"/>
      <point x="202" y="-166" type="line" smooth="yes"/>
      <point x="218" y="-166"/>
      <point x="232" y="-160"/>
      <point x="243" y="-149" type="curve" smooth="yes"/>
      <point x="254" y="-137"/>
      <point x="260" y="-123"/>
      <point x="260" y="-106" type="curve" smooth="yes"/>
      <point x="260" y="458" type="line" smooth="yes"/>
      <point x="260" y="523"/>
      <point x="279" y="583"/>
      <point x="318" y="638" type="curve" smooth="yes"/>
      <point x="356" y="690" type="line"/>
      <point x="318" y="742" type="line" smooth="yes"/>
      <point x="279" y="797"/>
      <point x="260" y="857"/>
      <point x="260" y="922" type="curve" smooth="yes"/>
      <point x="260" y="1486" type="line" smooth="yes"/>
      <point x="260" y="1502"/>
      <point x="254" y="1516"/>
      <point x="243" y="1527" type="curve" smooth="yes"/>
      <point x="232" y="1538"/>
      <point x="218" y="1544"/>
      <point x="202" y="1544" type="curve" smooth="yes"/>
      <point x="80" y="1544" type="line"/>
      <point x="80" y="1800" type="line"/>
      <point x="222" y="1800" type="line" smooth="yes"/>
      <point x="314" y="1800"/>
      <point x="386" y="1774"/>
      <point x="438" y="1722" type="curve" smooth="yes"/>
      <point x="490" y="1669"/>
      <point x="516" y="1597"/>
      <point x="516" y="1506" type="curve" smooth="yes"/>
      <point x="516" y="922" type="line" smooth="yes"/>
      <point x="516" y="912"/>
      <point x="519" y="901"/>
      <point x="526" y="890" type="curve" smooth="yes"/>
      <point x="616" y="762" type="line"/>
      <point x="645" y="718"/>
      <point x="645" y="662"/>
      <point x="616" y="618" type="curve"/>
      <point x="526" y="490" type="line" smooth="yes"/>
      <point x="519" y="481"/>
      <point x="516" y="471"/>
      <point x="516" y="458" type="curve" smooth="yes"/>
      <point x="516" y="-126" type="line" smooth="yes"/>
      <point x="516" y="-218"/>
      <point x="490" y="-290"/>
      <point x="438" y="-342" type="curve" smooth="yes"/>
      <point x="386" y="-394"/>
      <point x="314" y="-420"/>
      <point x="222" y="-420" type="curve" smooth="yes"/>
    </contour>
  </outline>
</glyph>
<glyph name="asciitilde" format="2">
  <advance width="1468"/>
  <unicode hex="007E"/>
  <outline>
    <contour>
      <point x="976" y="390" type="curve" smooth="yes"/>
      <point x="884" y="390"/>
      <point x="800" y="439"/>
      <point x="725" y="494" type="curve" smooth="yes"/>
      <point x="687" y="521"/>
      <point x="652" y="546"/>
      <point x="619" y="567" type="curve" smooth="yes"/>
      <point x="586" y="588"/>
      <point x="555" y="599"/>
      <point x="528" y="599" type="curve" smooth="yes"/>
      <point x="500" y="599"/>
      <point x="480" y="583"/>
      <point x="469" y="552" type="curve" smooth="yes"/>
      <point x="458" y="520"/>
      <point x="459" y="480"/>
      <point x="472" y="432" type="curve"/>
      <point x="235" y="432" type="line"/>
      <point x="215" y="514"/>
      <point x="211" y="588"/>
      <point x="223" y="655" type="curve" smooth="yes"/>
      <point x="246" y="787"/>
      <point x="334" y="872"/>
      <point x="491" y="872" type="curve" smooth="yes"/>
      <point x="583" y="872"/>
      <point x="667" y="823"/>
      <point x="743" y="768" type="curve" smooth="yes"/>
      <point x="819" y="712"/>
      <point x="884" y="663"/>
      <point x="940" y="663" type="curve" smooth="yes"/>
      <point x="968" y="663"/>
      <point x="988" y="679"/>
      <point x="999" y="711" type="curve" smooth="yes"/>
      <point x="1010" y="742"/>
      <point x="1009" y="782"/>
      <point x="996" y="830" type="curve"/>
      <point x="1233" y="830" type="line"/>
      <point x="1252" y="748"/>
      <point x="1256" y="674"/>
      <point x="1245" y="608" type="curve" smooth="yes"/>
      <point x="1222" y="475"/>
      <point x="1135" y="390"/>
    </contour>
  </outline>
</glyph>
<glyph name="exclamdown" format="2">
  <advance width="752"/>
  <unicode hex="00A1"/>
  <outline>
    <contour>
      <point x="376" y="1102" type="curve" smooth="yes"/>
      <point x="422" y="1102"/>
      <point x="460" y="1087"/>
      <point x="490" y="1056" type="curve" smooth="yes"/>
      <point x="520" y="1025"/>
      <point x="535" y="988"/>
      <point x="535" y="944" type="curve" smooth="yes"/>
      <point x="535" y="899"/>
      <point x="520" y="862"/>
      <point x="490" y="832" type="curve" smooth="yes"/>
      <point x="460" y="801"/>
      <point x="422" y="786"/>
      <point x="376" y="786" type="curve" smooth="yes"/>
      <point x="331" y="786"/>
      <point x="293" y="801"/>
      <point x="263" y="832" type="curve"/>
      <point x="232" y="862"/>
      <point x="217" y="899"/>
      <point x="217" y="944" type="curve" smooth="yes"/>
      <point x="217" y="988"/>
      <point x="232" y="1025"/>
      <point x="263" y="1056" type="curve" smooth="yes"/>
      <point x="293" y="1087"/>
      <point x="331" y="1102"/>
    </contour>
    <contour>
      <point x="492" y="660" type="line"/>
      <point x="532" y="-360" type="line"/>
      <point x="220" y="-360" type="line"/>
      <point x="260" y="660" type="line"/>
    </contour>
  </outline>
</glyph>
<glyph name="cent" format="2">
  <advance width="1166"/>
  <unicode hex="00A2"/>
  <outline>
    <contour>
      <point x="524" y="-58" type="line"/>
      <point x="524" y="126" type="line"/>
      <point x="384" y="147"/>
      <point x="185" y="303"/>
      <point x="80" y="543"/>
      <point x="80" y="690" type="qcurve" smooth="yes"/>
      <point x="80" y="837"/>
      <point x="188" y="1076"/>
      <point x="387" y="1231"/>
      <point x="524" y="1252" type="qcurve"/>
      <point x="524" y="1440" type="line"/>
      <point x="734" y="1440" type="line"/>
      <point x="734" y="1250" type="line"/>
      <point x="880" y="1223"/>
      <point x="1076" y="1041"/>
      <point x="1106" y="900" type="qcurve"/>
      <point x="834" y="828" type="line"/>
      <point x="810" y="912"/>
      <point x="691" y="1006"/>
      <point x="616" y="1006" type="qcurve" smooth="yes"/>
      <point x="530" y="1006"/>
      <point x="420" y="923"/>
      <point x="368" y="780"/>
      <point x="368" y="690" type="qcurve" smooth="yes"/>
      <point x="368" y="549"/>
      <point x="493" y="374"/>
      <point x="616" y="374" type="qcurve" smooth="yes"/>
      <point x="708" y="374"/>
      <point x="804" y="458"/>
      <point x="828" y="536" type="qcurve"/>
      <point x="1106" y="478" type="line"/>
      <point x="1067" y="334"/>
      <point x="875" y="157"/>
      <point x="734" y="130" type="qcurve"/>
      <point x="734" y="-58" type="line"/>
    </contour>
  </outline>
</glyph>
<glyph name="sterling" format="2">
  <advance width="1325"/>
  <unicode hex="00A3"/>
  <outline>
    <contour>
      <point x="456" y="188" type="line"/>
      <point x="515" y="247"/>
      <point x="536" y="331"/>
      <point x="536" y="412" type="curve" smooth="yes"/>
      <point x="536" y="616"/>
      <point x="417" y="798"/>
      <point x="417" y="1002" type="curve" smooth="yes"/>
      <point x="417" y="1161"/>
      <point x="534" y="1214"/>
      <point x="675" y="1214" type="curve" smooth="yes"/>
      <point x="811" y="1214"/>
      <point x="921" y="1129"/>
      <point x="951" y="996" type="curve"/>
      <point x="1245" y="1046" type="line"/>
      <point x="1173" y="1327"/>
      <point x="964" y="1468"/>
      <point x="679" y="1468" type="curve" smooth="yes"/>
      <point x="369" y="1468"/>
      <point x="131" y="1336"/>
      <point x="131" y="999" type="curve" smooth="yes"/>
      <point x="131" y="792"/>
      <point x="251" y="606"/>
      <point x="251" y="429" type="curve" smooth="yes"/>
      <point x="251" y="359"/>
      <point x="228" y="299"/>
      <point x="173" y="254" type="curve"/>
    </contour>
    <contour>
      <point x="80" y="0" type="line"/>
      <point x="1189" y="0" type="line"/>
      <point x="1189" y="254" type="line"/>
      <point x="80" y="254" type="line"/>
    </contour>
    <contour>
      <point x="80" y="580" type="line"/>
      <point x="972" y="580" type="line"/>
      <point x="972" y="834" type="line"/>
      <point x="80" y="834" type="line"/>
    </contour>
  </outline>
</glyph>
<glyph name="currency" format="2">
  <advance width="1360"/>
  <unicode hex="00A4"/>
  <outline>
    <contour>
      <point x="680" y="196" type="curve" smooth="yes"/>
      <point x="536" y="196"/>
      <point x="406" y="254"/>
      <point x="310" y="351" type="curve" smooth="yes"/>
      <point x="214" y="447"/>
      <point x="156" y="577"/>
      <point x="156" y="722" type="curve" smooth="yes"/>
      <point x="156" y="866"/>
      <point x="214" y="996"/>
      <point x="310" y="1092" type="curve" smooth="yes"/>
      <point x="406" y="1188"/>
      <point x="536" y="1246"/>
      <point x="680" y="1246" type="curve" smooth="yes"/>
      <point x="825" y="1246"/>
      <point x="955" y="1188"/>
      <point x="1052" y="1092" type="curve" smooth="yes"/>
      <point x="1148" y="996"/>
      <point x="1206" y="866"/>
      <point x="1206" y="722" type="curve" smooth="yes"/>
      <point x="1206" y="577"/>
      <point x="1148" y="447"/>
      <point x="1052" y="351" type="curve" smooth="yes"/>
      <point x="955" y="254"/>
      <point x="825" y="196"/>
    </contour>
    <contour>
      <point x="240" y="100" type="line"/>
      <point x="60" y="280" type="line"/>
      <point x="314" y="534" type="line"/>
      <point x="496" y="354" type="line"/>
    </contour>
    <contour>
      <point x="314" y="904" type="line"/>
      <point x="60" y="1158" type="line"/>
      <point x="240" y="1340" type="line"/>
      <point x="494" y="1086" type="line"/>
    </contour>
    <contour>
      <point x="1120" y="100" type="line"/>
      <point x="866" y="354" type="line"/>
      <point x="1046" y="534" type="line"/>
      <point x="1300" y="280" type="line"/>
    </contour>
    <contour>
      <point x="680" y="424" type="curve" smooth="yes"/>
      <point x="735" y="424"/>
      <point x="784" y="438"/>
      <point x="829" y="465" type="curve" smooth="yes"/>
      <point x="874" y="492"/>
      <point x="909" y="528"/>
      <point x="936" y="573" type="curve" smooth="yes"/>
      <point x="963" y="618"/>
      <point x="976" y="667"/>
      <point x="976" y="720" type="curve" smooth="yes"/>
      <point x="976" y="775"/>
      <point x="963" y="824"/>
      <point x="936" y="869" type="curve" smooth="yes"/>
      <point x="909" y="914"/>
      <point x="873" y="949"/>
      <point x="828" y="976" type="curve" smooth="yes"/>
      <point x="783" y="1003"/>
      <point x="733" y="1016"/>
      <point x="680" y="1016" type="curve" smooth="yes"/>
      <point x="625" y="1016"/>
      <point x="576" y="1003"/>
      <point x="531" y="976" type="curve" smooth="yes"/>
      <point x="486" y="949"/>
      <point x="451" y="914"/>
      <point x="424" y="869" type="curve" smooth="yes"/>
      <point x="397" y="824"/>
      <point x="384" y="775"/>
      <point x="384" y="720" type="curve" smooth="yes"/>
      <point x="384" y="667"/>
      <point x="397" y="618"/>
      <point x="424" y="573" type="curve" smooth="yes"/>
      <point x="451" y="528"/>
      <point x="486" y="492"/>
      <point x="531" y="465" type="curve" smooth="yes"/>
      <point x="576" y="438"/>
      <point x="625" y="424"/>
    </contour>
    <contour>
      <point x="1048" y="906" type="line"/>
      <point x="866" y="1086" type="line"/>
      <point x="1120" y="1340" type="line"/>
      <point x="1300" y="1158" type="line"/>
    </contour>
  </outline>
</glyph>
<glyph name="section" format="2">
  <advance width="1094"/>
  <unicode hex="00A7"/>
  <outline>
    <contour>
      <point x="560" y="-270" type="qcurve" smooth="yes"/>
      <point x="442" y="-270"/>
      <point x="248" y="-194"/>
      <point x="120" y="-37"/>
      <point x="100" y="84" type="qcurve"/>
      <point x="378" y="126" type="line"/>
      <point x="389" y="73"/>
      <point x="448" y="1"/>
      <point x="531" y="-36"/>
      <point x="578" y="-36" type="qcurve" smooth="yes"/>
      <point x="613" y="-36"/>
      <point x="676" y="-14"/>
      <point x="716" y="34"/>
      <point x="716" y="72" type="qcurve" smooth="yes"/>
      <point x="716" y="109"/>
      <point x="669" y="152"/>
      <point x="555" y="187"/>
      <point x="456" y="212" type="qcurve" smooth="yes"/>
      <point x="335" y="243"/>
      <point x="175" y="324"/>
      <point x="96" y="434"/>
      <point x="96" y="510" type="qcurve" smooth="yes"/>
      <point x="96" y="610"/>
      <point x="215" y="733"/>
      <point x="395" y="790"/>
      <point x="486" y="790" type="qcurve"/>
      <point x="512" y="676" type="line"/>
      <point x="439" y="651"/>
      <point x="366" y="594"/>
      <point x="366" y="550" type="qcurve" smooth="yes"/>
      <point x="366" y="508"/>
      <point x="434" y="464"/>
      <point x="563" y="431"/>
      <point x="654" y="406" type="qcurve" smooth="yes"/>
      <point x="769" y="374"/>
      <point x="920" y="296"/>
      <point x="994" y="180"/>
      <point x="994" y="90" type="qcurve" smooth="yes"/>
      <point x="994" y="-27"/>
      <point x="881" y="-187"/>
      <point x="685" y="-270"/>
    </contour>
    <contour>
      <point x="610" y="274" type="qcurve"/>
      <point x="602" y="384" type="line"/>
      <point x="635" y="394"/>
      <point x="697" y="435"/>
      <point x="736" y="494"/>
      <point x="736" y="532" type="qcurve" smooth="yes"/>
      <point x="736" y="569"/>
      <point x="689" y="612"/>
      <point x="575" y="647"/>
      <point x="476" y="672" type="qcurve" smooth="yes"/>
      <point x="355" y="703"/>
      <point x="195" y="782"/>
      <point x="116" y="900"/>
      <point x="116" y="990" type="qcurve" smooth="yes"/>
      <point x="116" y="1108"/>
      <point x="236" y="1258"/>
      <point x="421" y="1330"/>
      <point x="520" y="1330" type="qcurve" smooth="yes"/>
      <point x="621" y="1330"/>
      <point x="804" y="1258"/>
      <point x="929" y="1116"/>
      <point x="944" y="1010" type="qcurve"/>
      <point x="666" y="960" type="line"/>
      <point x="658" y="1006"/>
      <point x="621" y="1067"/>
      <point x="558" y="1098"/>
      <point x="512" y="1098" type="qcurve" smooth="yes"/>
      <point x="477" y="1098"/>
      <point x="420" y="1079"/>
      <point x="386" y="1040"/>
      <point x="386" y="1010" type="qcurve" smooth="yes"/>
      <point x="386" y="967"/>
      <point x="458" y="922"/>
      <point x="588" y="890"/>
      <point x="674" y="866" type="qcurve" smooth="yes"/>
      <point x="788" y="834"/>
      <point x="939" y="757"/>
      <point x="1014" y="644"/>
      <point x="1014" y="558" type="qcurve" smooth="yes"/>
      <point x="1014" y="459"/>
      <point x="918" y="326"/>
      <point x="737" y="265"/>
    </contour>
  </outline>
</glyph>
<glyph name="dieresis" format="2">
  <advance width="1200"/>
  <unicode hex="00A8"/>
  <outline>
    <contour>
      <point x="387" y="1193" type="curve" smooth="yes"/>
      <point x="341" y="1193"/>
      <point x="303" y="1208"/>
      <point x="273" y="1239" type="curve" smooth="yes"/>
      <point x="242" y="1270"/>
      <point x="227" y="1307"/>
      <point x="227" y="1352" type="curve" smooth="yes"/>
      <point x="227" y="1396"/>
      <point x="242" y="1433"/>
      <point x="273" y="1464" type="curve" smooth="yes"/>
      <point x="303" y="1494"/>
      <point x="341" y="1509"/>
      <point x="386" y="1509" type="curve" smooth="yes"/>
      <point x="432" y="1509"/>
      <point x="470" y="1494"/>
      <point x="500" y="1464" type="curve" smooth="yes"/>
      <point x="530" y="1433"/>
      <point x="545" y="1396"/>
      <point x="545" y="1351" type="curve" smooth="yes"/>
      <point x="545" y="1307"/>
      <point x="530" y="1270"/>
      <point x="500" y="1239" type="curve" smooth="yes"/>
      <point x="470" y="1208"/>
      <point x="432" y="1193"/>
    </contour>
    <contour>
      <point x="813" y="1193" type="curve" smooth="yes"/>
      <point x="768" y="1193"/>
      <point x="730" y="1208"/>
      <point x="700" y="1239" type="curve" smooth="yes"/>
      <point x="669" y="1270"/>
      <point x="654" y="1307"/>
      <point x="654" y="1352" type="curve" smooth="yes"/>
      <point x="654" y="1396"/>
      <point x="669" y="1433"/>
      <point x="700" y="1464" type="curve" smooth="yes"/>
      <point x="730" y="1494"/>
      <point x="768" y="1509"/>
      <point x="813" y="1509" type="curve" smooth="yes"/>
      <point x="859" y="1509"/>
      <point x="897" y="1494"/>
      <point x="927" y="1464" type="curve" smooth="yes"/>
      <point x="957" y="1433"/>
      <point x="972" y="1396"/>
      <point x="972" y="1351" type="curve" smooth="yes"/>
      <point x="972" y="1307"/>
      <point x="957" y="1270"/>
      <point x="927" y="1239" type="curve" smooth="yes"/>
      <point x="897" y="1208"/>
      <point x="859" y="1193"/>
    </contour>
  </outline>
</glyph>
<glyph name="copyright" format="2">
  <advance width="1828"/>
  <unicode hex="00A9"/>
  <outline>
    <contour>
      <point x="914" y="-140" type="curve" smooth="yes"/>
      <point x="796" y="-140"/>
      <point x="685" y="-118"/>
      <point x="582" y="-74" type="curve" smooth="yes"/>
      <point x="479" y="-29"/>
      <point x="388" y="32"/>
      <point x="310" y="110" type="curve" smooth="yes"/>
      <point x="232" y="188"/>
      <point x="171" y="279"/>
      <point x="127" y="382" type="curve" smooth="yes"/>
      <point x="82" y="485"/>
      <point x="60" y="596"/>
      <point x="60" y="714" type="curve" smooth="yes"/>
      <point x="60" y="832"/>
      <point x="82" y="943"/>
      <point x="127" y="1046" type="curve" smooth="yes"/>
      <point x="171" y="1149"/>
      <point x="232" y="1240"/>
      <point x="310" y="1318" type="curve" smooth="yes"/>
      <point x="388" y="1396"/>
      <point x="479" y="1457"/>
      <point x="582" y="1502" type="curve" smooth="yes"/>
      <point x="685" y="1546"/>
      <point x="796" y="1568"/>
      <point x="914" y="1568" type="curve" smooth="yes"/>
      <point x="1032" y="1568"/>
      <point x="1143" y="1546"/>
      <point x="1246" y="1502" type="curve" smooth="yes"/>
      <point x="1349" y="1457"/>
      <point x="1440" y="1396"/>
      <point x="1518" y="1318" type="curve" smooth="yes"/>
      <point x="1596" y="1240"/>
      <point x="1657" y="1149"/>
      <point x="1702" y="1046" type="curve" smooth="yes"/>
      <point x="1746" y="943"/>
      <point x="1768" y="832"/>
      <point x="1768" y="714" type="curve" smooth="yes"/>
      <point x="1768" y="596"/>
      <point x="1746" y="485"/>
      <point x="1702" y="382" type="curve" smooth="yes"/>
      <point x="1657" y="279"/>
      <point x="1596" y="188"/>
      <point x="1518" y="110" type="curve" smooth="yes"/>
      <point x="1440" y="32"/>
      <point x="1349" y="-29"/>
      <point x="1246" y="-74" type="curve" smooth="yes"/>
      <point x="1143" y="-118"/>
      <point x="1032" y="-140"/>
    </contour>
    <contour>
      <point x="932" y="286" type="curve" smooth="yes"/>
      <point x="795" y="286"/>
      <point x="704" y="327"/>
      <point x="628" y="420" type="curve" smooth="yes"/>
      <point x="593" y="464"/>
      <point x="568" y="510"/>
      <point x="552" y="559" type="curve" smooth="yes"/>
      <point x="536" y="608"/>
      <point x="528" y="659"/>
      <point x="528" y="714" type="curve" smooth="yes"/>
      <point x="528" y="829"/>
      <point x="563" y="926"/>
      <point x="628" y="1006" type="curve" smooth="yes"/>
      <point x="703" y="1097"/>
      <point x="797" y="1142"/>
      <point x="942" y="1142" type="curve" smooth="yes"/>
      <point x="1018" y="1142"/>
      <point x="1076" y="1131"/>
      <point x="1144" y="1088" type="curve"/>
      <point x="1220" y="1043"/>
      <point x="1277" y="971"/>
      <point x="1298" y="872" type="curve"/>
      <point x="1094" y="818" type="line"/>
      <point x="1085" y="854"/>
      <point x="1066" y="886"/>
      <point x="1034" y="914" type="curve" smooth="yes"/>
      <point x="1005" y="941"/>
      <point x="969" y="952"/>
      <point x="930" y="952" type="curve" smooth="yes"/>
      <point x="870" y="952"/>
      <point x="825" y="927"/>
      <point x="790" y="884" type="curve" smooth="yes"/>
      <point x="754" y="839"/>
      <point x="744" y="777"/>
      <point x="744" y="714" type="curve" smooth="yes"/>
      <point x="744" y="653"/>
      <point x="757" y="594"/>
      <point x="790" y="546" type="curve"/>
      <point x="822" y="502"/>
      <point x="869" y="478"/>
      <point x="934" y="478" type="curve" smooth="yes"/>
      <point x="981" y="478"/>
      <point x="1015" y="489"/>
      <point x="1038" y="512" type="curve" smooth="yes"/>
      <point x="1066" y="540"/>
      <point x="1078" y="565"/>
      <point x="1090" y="598" type="curve"/>
      <point x="1298" y="556" type="line"/>
      <point x="1277" y="479"/>
      <point x="1233" y="407"/>
      <point x="1166" y="356" type="curve" smooth="yes"/>
      <point x="1106" y="311"/>
      <point x="1039" y="286"/>
    </contour>
    <contour>
      <point x="914" y="114" type="curve" smooth="yes"/>
      <point x="1081" y="114"/>
      <point x="1229" y="180"/>
      <point x="1339" y="290" type="curve" smooth="yes"/>
      <point x="1449" y="400"/>
      <point x="1514" y="549"/>
      <point x="1514" y="714" type="curve" smooth="yes"/>
      <point x="1514" y="881"/>
      <point x="1449" y="1029"/>
      <point x="1339" y="1139" type="curve" smooth="yes"/>
      <point x="1229" y="1249"/>
      <point x="1081" y="1314"/>
      <point x="914" y="1314" type="curve" smooth="yes"/>
      <point x="749" y="1314"/>
      <point x="600" y="1249"/>
      <point x="490" y="1139" type="curve" smooth="yes"/>
      <point x="380" y="1029"/>
      <point x="314" y="881"/>
      <point x="314" y="714" type="curve" smooth="yes"/>
      <point x="314" y="549"/>
      <point x="380" y="400"/>
      <point x="490" y="290" type="curve" smooth="yes"/>
      <point x="600" y="180"/>
      <point x="749" y="114"/>
    </contour>
  </outline>
</glyph>
<glyph name="ordfeminine" format="2">
  <advance width="689"/>
  <unicode hex="00AA"/>
  <outline>
    <contour>
      <point x="264" y="786" type="curve" smooth="yes"/>
      <point x="144" y="786"/>
      <point x="48" y="846"/>
      <point x="48" y="972" type="curve" smooth="yes"/>
      <point x="48" y="1128"/>
      <point x="186" y="1180"/>
      <point x="328" y="1205" type="curve" smooth="yes"/>
      <point x="399" y="1217"/>
      <point x="471" y="1223"/>
      <point x="527" y="1231" type="curve"/>
      <point x="468" y="1210" type="line"/>
      <point x="468" y="1217" type="line" smooth="yes"/>
      <point x="468" y="1294"/>
      <point x="425" y="1321"/>
      <point x="348" y="1321" type="curve" smooth="yes"/>
      <point x="292" y="1321"/>
      <point x="239" y="1297"/>
      <point x="218" y="1242" type="curve"/>
      <point x="71" y="1289" type="line"/>
      <point x="110" y="1418"/>
      <point x="220" y="1470"/>
      <point x="348" y="1470" type="curve" smooth="yes"/>
      <point x="538" y="1470"/>
      <point x="628" y="1392"/>
      <point x="628" y="1200" type="curve" smooth="yes"/>
      <point x="628" y="804" type="line"/>
      <point x="485" y="804" type="line"/>
      <point x="485" y="937" type="line"/>
      <point x="505" y="910" type="line"/>
      <point x="442" y="821"/>
      <point x="373" y="786"/>
    </contour>
    <contour>
      <point x="299" y="914" type="curve" smooth="yes"/>
      <point x="431" y="914"/>
      <point x="466" y="1008"/>
      <point x="466" y="1121" type="curve"/>
      <point x="514" y="1109" type="line"/>
      <point x="482" y="1103"/>
      <point x="414" y="1097"/>
      <point x="351" y="1082" type="curve" smooth="yes"/>
      <point x="277" y="1065"/>
      <point x="208" y="1036"/>
      <point x="208" y="985" type="curve" smooth="yes"/>
      <point x="208" y="934"/>
      <point x="254" y="914"/>
    </contour>
    <contour>
      <point x="42" y="560" type="line"/>
      <point x="42" y="698" type="line"/>
      <point x="647" y="698" type="line"/>
      <point x="647" y="560" type="line"/>
    </contour>
  </outline>
</glyph>
<glyph name="guillemotleft" format="2">
  <advance width="1206"/>
  <unicode hex="00AB"/>
  <outline>
    <contour>
      <point x="944" y="94" type="line"/>
      <point x="590" y="540" type="line"/>
      <point x="944" y="986" type="line"/>
      <point x="1086" y="874" type="line"/>
      <point x="820" y="540" type="line"/>
      <point x="1086" y="206" type="line"/>
    </contour>
    <contour>
      <point x="514" y="94" type="line"/>
      <point x="160" y="540" type="line"/>
      <point x="514" y="986" type="line"/>
      <point x="656" y="874" type="line"/>
      <point x="390" y="540" type="line"/>
      <point x="656" y="206" type="line"/>
    </contour>
  </outline>
</glyph>
<glyph name="logicalnot" format="2">
  <advance width="1200"/>
  <unicode hex="00AC"/>
  <outline>
    <contour>
      <point x="870" y="366" type="line"/>
      <point x="870" y="596" type="line"/>
      <point x="120" y="596" type="line"/>
      <point x="120" y="806" type="line"/>
      <point x="1080" y="806" type="line"/>
      <point x="1080" y="366" type="line"/>
    </contour>
  </outline>
</glyph>
<glyph name="registered" format="2">
  <advance width="1330"/>
  <unicode hex="00AE"/>
  <outline>
    <contour>
      <point x="664" y="536" type="curve" smooth="yes"/>
      <point x="520" y="536"/>
      <point x="390" y="594"/>
      <point x="294" y="691" type="curve" smooth="yes"/>
      <point x="198" y="787"/>
      <point x="140" y="917"/>
      <point x="140" y="1062" type="curve" smooth="yes"/>
      <point x="140" y="1206"/>
      <point x="198" y="1336"/>
      <point x="294" y="1432" type="curve" smooth="yes"/>
      <point x="390" y="1528"/>
      <point x="520" y="1586"/>
      <point x="664" y="1586" type="curve" smooth="yes"/>
      <point x="809" y="1586"/>
      <point x="939" y="1528"/>
      <point x="1036" y="1432" type="curve" smooth="yes"/>
      <point x="1132" y="1336"/>
      <point x="1190" y="1206"/>
      <point x="1190" y="1062" type="curve" smooth="yes"/>
      <point x="1190" y="917"/>
      <point x="1132" y="787"/>
      <point x="1036" y="691" type="curve" smooth="yes"/>
      <point x="939" y="594"/>
      <point x="809" y="536"/>
    </contour>
    <contour>
      <point x="666" y="712" type="curve" smooth="yes"/>
      <point x="729" y="712"/>
      <point x="788" y="728"/>
      <point x="841" y="760" type="curve" smooth="yes"/>
      <point x="894" y="792"/>
      <point x="936" y="835"/>
      <point x="968" y="888" type="curve" smooth="yes"/>
      <point x="1000" y="941"/>
      <point x="1016" y="999"/>
      <point x="1016" y="1062" type="curve" smooth="yes"/>
      <point x="1016" y="1127"/>
      <point x="1000" y="1186"/>
      <point x="968" y="1239" type="curve" smooth="yes"/>
      <point x="936" y="1292"/>
      <point x="894" y="1334"/>
      <point x="841" y="1365" type="curve" smooth="yes"/>
      <point x="788" y="1396"/>
      <point x="729" y="1412"/>
      <point x="666" y="1412" type="curve" smooth="yes"/>
      <point x="601" y="1412"/>
      <point x="543" y="1396"/>
      <point x="490" y="1365" type="curve" smooth="yes"/>
      <point x="437" y="1334"/>
      <point x="394" y="1292"/>
      <point x="363" y="1239" type="curve" smooth="yes"/>
      <point x="332" y="1186"/>
      <point x="316" y="1127"/>
      <point x="316" y="1062" type="curve" smooth="yes"/>
      <point x="316" y="999"/>
      <point x="332" y="941"/>
      <point x="363" y="888" type="curve" smooth="yes"/>
      <point x="394" y="835"/>
      <point x="437" y="792"/>
      <point x="490" y="760" type="curve" smooth="yes"/>
      <point x="543" y="728"/>
      <point x="601" y="712"/>
    </contour>
    <contour>
      <point x="498" y="824" type="line"/>
      <point x="498" y="1300" type="line"/>
      <point x="698" y="1300" type="line" smooth="yes"/>
      <point x="749" y="1300"/>
      <point x="789" y="1286"/>
      <point x="817" y="1257" type="curve" smooth="yes"/>
      <point x="845" y="1228"/>
      <point x="860" y="1190"/>
      <point x="862" y="1142" type="curve"/>
      <point x="862" y="1085"/>
      <point x="836" y="1034"/>
      <point x="780" y="1002" type="curve"/>
      <point x="868" y="824" type="line"/>
      <point x="766" y="824" type="line"/>
      <point x="688" y="986" type="line"/>
      <point x="588" y="986" type="line"/>
      <point x="588" y="824" type="line"/>
    </contour>
    <contour>
      <point x="588" y="1070" type="line"/>
      <point x="702" y="1070" type="line" smooth="yes"/>
      <point x="722" y="1070"/>
      <point x="738" y="1077"/>
      <point x="751" y="1091" type="curve"/>
      <point x="764" y="1104"/>
      <point x="770" y="1121"/>
      <point x="770" y="1142" type="curve" smooth="yes"/>
      <point x="770" y="1165"/>
      <point x="765" y="1183"/>
      <point x="754" y="1196" type="curve"/>
      <point x="743" y="1208"/>
      <point x="725" y="1214"/>
      <point x="702" y="1214" type="curve" smooth="yes"/>
      <point x="588" y="1214" type="line"/>
    </contour>
  </outline>
</glyph>
<glyph name="degree" format="2">
  <advance width="900"/>
  <unicode hex="00B0"/>
  <outline>
    <contour>
      <point x="420" y="750" type="curve" smooth="yes"/>
      <point x="354" y="750"/>
      <point x="294" y="766"/>
      <point x="239" y="799" type="curve" smooth="yes"/>
      <point x="130" y="863"/>
      <point x="60" y="977"/>
      <point x="60" y="1110" type="curve" smooth="yes"/>
      <point x="60" y="1175"/>
      <point x="77" y="1235"/>
      <point x="110" y="1290" type="curve" smooth="yes"/>
      <point x="143" y="1345"/>
      <point x="187" y="1388"/>
      <point x="242" y="1421" type="curve" smooth="yes"/>
      <point x="297" y="1454"/>
      <point x="356" y="1470"/>
      <point x="420" y="1470" type="curve" smooth="yes"/>
      <point x="486" y="1470"/>
      <point x="546" y="1454"/>
      <point x="601" y="1422" type="curve" smooth="yes"/>
      <point x="709" y="1357"/>
      <point x="780" y="1243"/>
      <point x="780" y="1110" type="curve" smooth="yes"/>
      <point x="780" y="1043"/>
      <point x="764" y="983"/>
      <point x="731" y="929" type="curve" smooth="yes"/>
      <point x="666" y="820"/>
      <point x="552" y="750"/>
    </contour>
    <contour>
      <point x="420" y="980" type="curve" smooth="yes"/>
      <point x="443" y="980"/>
      <point x="465" y="986"/>
      <point x="485" y="998" type="curve" smooth="yes"/>
      <point x="524" y="1022"/>
      <point x="550" y="1063"/>
      <point x="550" y="1110" type="curve" smooth="yes"/>
      <point x="550" y="1133"/>
      <point x="544" y="1155"/>
      <point x="532" y="1175" type="curve" smooth="yes"/>
      <point x="508" y="1214"/>
      <point x="467" y="1240"/>
      <point x="420" y="1240" type="curve" smooth="yes"/>
      <point x="397" y="1240"/>
      <point x="375" y="1234"/>
      <point x="356" y="1222" type="curve" smooth="yes"/>
      <point x="316" y="1198"/>
      <point x="290" y="1157"/>
      <point x="290" y="1110" type="curve" smooth="yes"/>
      <point x="290" y="1087"/>
      <point x="296" y="1065"/>
      <point x="308" y="1046" type="curve" smooth="yes"/>
      <point x="332" y="1006"/>
      <point x="373" y="980"/>
    </contour>
  </outline>
</glyph>
<glyph name="plusminus" format="2">
  <advance width="1200"/>
  <unicode hex="00B1"/>
  <outline>
    <contour>
      <point x="496" y="440" type="line"/>
      <point x="496" y="656" type="line"/>
      <point x="120" y="656" type="line"/>
      <point x="120" y="866" type="line"/>
      <point x="496" y="866" type="line"/>
      <point x="496" y="1080" type="line"/>
      <point x="706" y="1080" type="line"/>
      <point x="706" y="866" type="line"/>
      <point x="1080" y="866" type="line"/>
      <point x="1080" y="656" type="line"/>
      <point x="706" y="656" type="line"/>
      <point x="706" y="440" type="line"/>
    </contour>
    <contour>
      <point x="120" y="120" type="line"/>
      <point x="120" y="330" type="line"/>
      <point x="1080" y="330" type="line"/>
      <point x="1080" y="120" type="line"/>
    </contour>
  </outline>
</glyph>
<glyph name="twosuperior" format="2">
  <advance width="832"/>
  <unicode hex="00B2"/>
  <outline>
    <contour>
      <point x="100" y="540" type="line"/>
      <point x="100" y="688" type="line"/>
      <point x="478" y="1024" type="line" smooth="yes"/>
      <point x="520" y="1062"/>
      <point x="556" y="1128"/>
      <point x="556" y="1156" type="qcurve" smooth="yes"/>
      <point x="556" y="1219"/>
      <point x="482" y="1300"/>
      <point x="420" y="1300" type="qcurve" smooth="yes"/>
      <point x="377" y="1300"/>
      <point x="308" y="1261"/>
      <point x="290" y="1229" type="qcurve" smooth="yes"/>
      <point x="277" y="1206"/>
      <point x="274" y="1182" type="qcurve"/>
      <point x="100" y="1210" type="line"/>
      <point x="109" y="1271"/>
      <point x="138" y="1319" type="qcurve" smooth="yes"/>
      <point x="178" y="1386"/>
      <point x="327" y="1460"/>
      <point x="424" y="1460" type="qcurve" smooth="yes"/>
      <point x="512" y="1460"/>
      <point x="651" y="1383"/>
      <point x="732" y="1245"/>
      <point x="732" y="1154" type="qcurve" smooth="yes"/>
      <point x="732" y="1087"/>
      <point x="694" y="999"/>
      <point x="620" y="925"/>
      <point x="566" y="878" type="qcurve" smooth="yes"/>
      <point x="322" y="662" type="line"/>
      <point x="308" y="700" type="line"/>
      <point x="732" y="700" type="line"/>
      <point x="732" y="540" type="line"/>
    </contour>
  </outline>
</glyph>
<glyph name="threesuperior" format="2">
  <advance width="904"/>
  <unicode hex="00B3"/>
  <outline>
    <contour>
      <point x="783.728" y="819.84" type="qcurve" smooth="yes"/>
      <point x="783.728" y="746.64"/>
      <point x="732.976" y="634.4"/>
      <point x="642.208" y="557.296"/>
      <point x="517.28" y="517.28"/>
      <point x="444.08" y="517.28" type="qcurve" smooth="yes"/>
      <point x="380.64" y="517.28"/>
      <point x="261.568" y="549.488"/>
      <point x="163.968" y="620.736"/>
      <point x="93.696" y="732.976"/>
      <point x="80.032" y="813.008" type="qcurve"/>
      <point x="257.664" y="838.384" type="line"/>
      <point x="271.328" y="765.184"/>
      <point x="359.168" y="676.368"/>
      <point x="447.984" y="676.368" type="qcurve" smooth="yes"/>
      <point x="483.12" y="676.368"/>
      <point x="540.704" y="698.816"/>
      <point x="581.696" y="736.88"/>
      <point x="605.12" y="785.68"/>
      <point x="605.12" y="813.008" type="qcurve" smooth="yes"/>
      <point x="605.12" y="878.4"/>
      <point x="518.256" y="945.744"/>
      <point x="444.08" y="945.744" type="qcurve" smooth="yes"/>
      <point x="332.816" y="945.744" type="line"/>
      <point x="332.816" y="1080.43" type="line"/>
      <point x="537.776" y="1280.51" type="line"/>
      <point x="129.808" y="1280.51" type="line"/>
      <point x="129.808" y="1439.6" type="line"/>
      <point x="746.64" y="1439.6" type="line"/>
      <point x="746.64" y="1280.51" type="line"/>
      <point x="535.824" y="1075.55" type="line"/>
      <point x="636.352" y="1062.86"/>
      <point x="698.816" y="1016.02" type="qcurve" smooth="yes"/>
      <point x="783.728" y="951.6"/>
    </contour>
  </outline>
</glyph>
<glyph name="acute" format="2">
  <advance width="1110"/>
  <unicode hex="00B4"/>
  <outline>
    <contour>
      <point x="533" y="1980" type="line"/>
      <point x="454" y="1590" type="line"/>
      <point x="624" y="1590" type="line"/>
      <point x="790" y="1980" type="line"/>
    </contour>
  </outline>
</glyph>
<glyph name="paragraph" format="2">
  <advance width="1484"/>
  <unicode hex="00B6"/>
  <outline>
    <contour>
      <point x="668" y="-282" type="line"/>
      <point x="668" y="488" type="line"/>
      <point x="572" y="488" type="line" smooth="yes"/>
      <point x="568" y="488"/>
      <point x="554" y="488"/>
      <point x="530" y="489" type="curve" smooth="yes"/>
      <point x="506" y="490"/>
      <point x="480" y="492"/>
      <point x="452" y="496" type="curve" smooth="yes"/>
      <point x="368" y="508"/>
      <point x="299" y="536"/>
      <point x="244" y="579" type="curve" smooth="yes"/>
      <point x="134" y="666"/>
      <point x="80" y="803"/>
      <point x="80" y="964" type="curve" smooth="yes"/>
      <point x="80" y="1043"/>
      <point x="93" y="1116"/>
      <point x="120" y="1183" type="curve" smooth="yes"/>
      <point x="172" y="1315"/>
      <point x="280" y="1408"/>
      <point x="452" y="1432" type="curve" smooth="yes"/>
      <point x="508" y="1440"/>
      <point x="563" y="1440"/>
      <point x="572" y="1440" type="curve" smooth="yes"/>
      <point x="940" y="1440" type="line"/>
      <point x="940" y="-282" type="line"/>
    </contour>
    <contour>
      <point x="1132" y="-282" type="line"/>
      <point x="1132" y="1440" type="line"/>
      <point x="1404" y="1440" type="line"/>
      <point x="1404" y="-282" type="line"/>
    </contour>
  </outline>
</glyph>
<glyph name="periodcentered" format="2">
  <advance width="560"/>
  <unicode hex="00B7"/>
  <outline>
    <contour>
      <point x="284" y="470" type="curve" smooth="yes"/>
      <point x="238" y="470"/>
      <point x="199" y="485"/>
      <point x="168" y="516" type="curve"/>
      <point x="136" y="546"/>
      <point x="120" y="584"/>
      <point x="120" y="630" type="curve" smooth="yes"/>
      <point x="120" y="676"/>
      <point x="136" y="714"/>
      <point x="168" y="745" type="curve" smooth="yes"/>
      <point x="199" y="775"/>
      <point x="238" y="790"/>
      <point x="284" y="790" type="curve" smooth="yes"/>
      <point x="326" y="790"/>
      <point x="363" y="775"/>
      <point x="394" y="745" type="curve" smooth="yes"/>
      <point x="425" y="714"/>
      <point x="440" y="676"/>
      <point x="440" y="630" type="curve" smooth="yes"/>
      <point x="440" y="584"/>
      <point x="425" y="546"/>
      <point x="394" y="516" type="curve" smooth="yes"/>
      <point x="363" y="485"/>
      <point x="326" y="470"/>
    </contour>
  </outline>
</glyph>
<glyph name="cedilla" format="2">
  <advance width="838"/>
  <unicode hex="00B8"/>
  <outline>
    <contour>
      <point x="382" y="-484" type="qcurve" smooth="yes"/>
      <point x="340" y="-484"/>
      <point x="270" y="-462"/>
      <point x="240" y="-446" type="qcurve"/>
      <point x="298" y="-290" type="line"/>
      <point x="337" y="-302"/>
      <point x="358" y="-302" type="qcurve" smooth="yes"/>
      <point x="385" y="-302"/>
      <point x="414" y="-272"/>
      <point x="414" y="-256" type="qcurve" smooth="yes"/>
      <point x="414" y="-220"/>
      <point x="337" y="-185"/>
      <point x="284" y="-170" type="qcurve"/>
      <point x="354" y="34" type="line"/>
      <point x="512" y="36" type="line"/>
      <point x="476" y="-72" type="line"/>
      <point x="535" y="-102"/>
      <point x="598" y="-197"/>
      <point x="598" y="-262" type="qcurve" smooth="yes"/>
      <point x="598" y="-361"/>
      <point x="469" y="-484"/>
    </contour>
  </outline>
</glyph>
<glyph name="onesuperior" format="2">
  <advance width="703"/>
  <unicode hex="00B9"/>
  <outline>
    <contour>
      <point x="289" y="540" type="line"/>
      <point x="289" y="1255" type="line"/>
      <point x="120" y="1151" type="line"/>
      <point x="120" y="1339" type="line"/>
      <point x="289" y="1440" type="line"/>
      <point x="463" y="1440" type="line"/>
      <point x="463" y="540" type="line"/>
    </contour>
  </outline>
</glyph>
<glyph name="ordmasculine" format="2">
  <advance width="728"/>
  <unicode hex="00BA"/>
  <outline>
    <contour>
      <point x="364" y="777" type="curve" smooth="yes"/>
      <point x="271" y="777"/>
      <point x="192" y="808"/>
      <point x="135" y="861" type="curve" smooth="yes"/>
      <point x="69" y="922"/>
      <point x="31" y="1013"/>
      <point x="31" y="1121" type="curve" smooth="yes"/>
      <point x="31" y="1221"/>
      <point x="64" y="1308"/>
      <point x="123" y="1370" type="curve" smooth="yes"/>
      <point x="180" y="1430"/>
      <point x="263" y="1466"/>
      <point x="364" y="1466" type="curve" smooth="yes"/>
      <point x="470" y="1466"/>
      <point x="556" y="1426"/>
      <point x="615" y="1359" type="curve" smooth="yes"/>
      <point x="668" y="1299"/>
      <point x="697" y="1216"/>
      <point x="697" y="1121" type="curve" smooth="yes"/>
      <point x="697" y="1022"/>
      <point x="665" y="936"/>
      <point x="606" y="874" type="curve" smooth="yes"/>
      <point x="549" y="814"/>
      <point x="466" y="777"/>
    </contour>
    <contour>
      <point x="364" y="940" type="curve" smooth="yes"/>
      <point x="417" y="940"/>
      <point x="453" y="962"/>
      <point x="476" y="995" type="curve" smooth="yes"/>
      <point x="499" y="1029"/>
      <point x="509" y="1074"/>
      <point x="509" y="1121" type="curve" smooth="yes"/>
      <point x="509" y="1166"/>
      <point x="500" y="1209"/>
      <point x="480" y="1242" type="curve" smooth="yes"/>
      <point x="457" y="1279"/>
      <point x="420" y="1303"/>
      <point x="364" y="1303" type="curve" smooth="yes"/>
      <point x="306" y="1303"/>
      <point x="269" y="1279"/>
      <point x="247" y="1242" type="curve" smooth="yes"/>
      <point x="228" y="1210"/>
      <point x="220" y="1167"/>
      <point x="220" y="1121" type="curve" smooth="yes"/>
      <point x="220" y="1070"/>
      <point x="231" y="1021"/>
      <point x="258" y="987" type="curve" smooth="yes"/>
      <point x="281" y="958"/>
      <point x="315" y="940"/>
    </contour>
    <contour>
      <point x="52" y="560" type="line"/>
      <point x="52" y="698" type="line"/>
      <point x="660" y="698" type="line"/>
      <point x="660" y="560" type="line"/>
    </contour>
  </outline>
</glyph>
<glyph name="onequarter" format="2">
  <advance width="2112"/>
  <unicode hex="00BC"/>
  <outline>
    <contour>
      <point x="289" y="540" type="line"/>
      <point x="289" y="1255" type="line"/>
      <point x="120" y="1151" type="line"/>
      <point x="120" y="1339" type="line"/>
      <point x="289" y="1440" type="line"/>
      <point x="463" y="1440" type="line"/>
      <point x="463" y="540" type="line"/>
    </contour>
    <contour>
      <point x="1620" y="0" type="line"/>
      <point x="1620" y="140" type="line"/>
      <point x="1228" y="140" type="line"/>
      <point x="1228" y="300" type="line"/>
      <point x="1512" y="900" type="line"/>
      <point x="1708" y="900" type="line"/>
      <point x="1424" y="300" type="line"/>
      <point x="1620" y="300" type="line"/>
      <point x="1620" y="524" type="line"/>
      <point x="1792" y="524" type="line"/>
      <point x="1792" y="300" type="line"/>
      <point x="1872" y="300" type="line"/>
      <point x="1872" y="140" type="line"/>
      <point x="1792" y="140" type="line"/>
      <point x="1792" y="0" type="line"/>
    </contour>
    <contour>
      <point x="571" y="0" type="line"/>
      <point x="417" y="114" type="line"/>
      <point x="1381" y="1454" type="line"/>
      <point x="1535" y="1338" type="line"/>
    </contour>
  </outline>
</glyph>
<glyph name="onehalf" format="2">
  <advance width="2081"/>
  <unicode hex="00BD"/>
  <outline>
    <contour>
      <point x="289" y="540" type="line"/>
      <point x="289" y="1255" type="line"/>
      <point x="120" y="1151" type="line"/>
      <point x="120" y="1339" type="line"/>
      <point x="289" y="1440" type="line"/>
      <point x="463" y="1440" type="line"/>
      <point x="463" y="540" type="line"/>
    </contour>
    <contour>
      <point x="1349" y="0" type="line"/>
      <point x="1349" y="148" type="line"/>
      <point x="1727" y="484" type="line" smooth="yes"/>
      <point x="1769" y="522"/>
      <point x="1805" y="588"/>
      <point x="1805" y="616" type="qcurve" smooth="yes"/>
      <point x="1805" y="679"/>
      <point x="1731" y="760"/>
      <point x="1669" y="760" type="qcurve" smooth="yes"/>
      <point x="1626" y="760"/>
      <point x="1557" y="721"/>
      <point x="1539" y="689" type="qcurve" smooth="yes"/>
      <point x="1526" y="667"/>
      <point x="1523" y="642" type="qcurve"/>
      <point x="1349" y="664" type="line"/>
      <point x="1356" y="728"/>
      <point x="1387" y="779" type="qcurve" smooth="yes"/>
      <point x="1427" y="847"/>
      <point x="1576" y="920"/>
      <point x="1673" y="920" type="qcurve" smooth="yes"/>
      <point x="1761" y="920"/>
      <point x="1900" y="843"/>
      <point x="1981" y="705"/>
      <point x="1981" y="614" type="qcurve" smooth="yes"/>
      <point x="1981" y="547"/>
      <point x="1943" y="459"/>
      <point x="1869" y="385"/>
      <point x="1815" y="338" type="qcurve" smooth="yes"/>
      <point x="1571" y="122" type="line"/>
      <point x="1557" y="160" type="line"/>
      <point x="1981" y="160" type="line"/>
      <point x="1981" y="0" type="line"/>
    </contour>
    <contour>
      <point x="571" y="0" type="line"/>
      <point x="417" y="114" type="line"/>
      <point x="1381" y="1454" type="line"/>
      <point x="1535" y="1338" type="line"/>
    </contour>
  </outline>
</glyph>
<glyph name="threequarters" format="2">
  <advance width="2087"/>
  <unicode hex="00BE"/>
  <outline>
    <contour>
      <point x="685" y="0" type="line"/>
      <point x="532" y="114" type="line"/>
      <point x="1495" y="1453" type="line"/>
      <point x="1649" y="1337" type="line"/>
    </contour>
    <contour>
      <point x="774" y="820" type="qcurve" smooth="yes"/>
      <point x="774" y="747"/>
      <point x="722" y="634"/>
      <point x="632" y="557"/>
      <point x="508" y="517"/>
      <point x="433" y="517" type="qcurve" smooth="yes"/>
      <point x="371" y="517"/>
      <point x="252" y="549"/>
      <point x="154" y="621"/>
      <point x="84" y="733"/>
      <point x="70" y="813" type="qcurve"/>
      <point x="248" y="838" type="line"/>
      <point x="261" y="765"/>
      <point x="348" y="676"/>
      <point x="438" y="676" type="qcurve" smooth="yes"/>
      <point x="472" y="676"/>
      <point x="531" y="699"/>
      <point x="572" y="737"/>
      <point x="594" y="786"/>
      <point x="594" y="813" type="qcurve" smooth="yes"/>
      <point x="594" y="878"/>
      <point x="508" y="946"/>
      <point x="433" y="946" type="qcurve" smooth="yes"/>
      <point x="323" y="946" type="line"/>
      <point x="323" y="1080" type="line"/>
      <point x="528" y="1281" type="line"/>
      <point x="120" y="1281" type="line"/>
      <point x="120" y="1440" type="line"/>
      <point x="737" y="1440" type="line"/>
      <point x="737" y="1281" type="line"/>
      <point x="526" y="1076" type="line"/>
      <point x="627" y="1063"/>
      <point x="689" y="1016" type="qcurve" smooth="yes"/>
      <point x="774" y="952"/>
    </contour>
    <contour>
      <point x="1720" y="0" type="line"/>
      <point x="1720" y="153" type="line"/>
      <point x="1292" y="153" type="line"/>
      <point x="1292" y="310" type="line"/>
      <point x="1576" y="900" type="line"/>
      <point x="1764" y="900" type="line"/>
      <point x="1480" y="310" type="line"/>
      <point x="1720" y="310" type="line"/>
      <point x="1720" y="581" type="line"/>
      <point x="1891" y="581" type="line"/>
      <point x="1891" y="310" type="line"/>
      <point x="1979" y="310" type="line"/>
      <point x="1979" y="153" type="line"/>
      <point x="1891" y="153" type="line"/>
      <point x="1891" y="0" type="line"/>
    </contour>
  </outline>
</glyph>
<glyph name="questiondown" format="2">
  <advance width="1126"/>
  <unicode hex="00BF"/>
  <outline>
    <contour>
      <point x="3" y="92" type="curve" smooth="yes"/>
      <point x="3" y="236"/>
      <point x="52" y="350"/>
      <point x="144" y="428" type="curve" smooth="yes"/>
      <point x="236" y="506"/>
      <point x="371" y="548"/>
      <point x="540" y="548" type="curve" smooth="yes"/>
      <point x="666" y="548" type="line"/>
      <point x="666" y="292" type="line"/>
      <point x="546" y="292" type="line" smooth="yes"/>
      <point x="389" y="292"/>
      <point x="289" y="218"/>
      <point x="289" y="81" type="curve" smooth="yes"/>
      <point x="289" y="22"/>
      <point x="314" y="-31"/>
      <point x="358" y="-71" type="curve" smooth="yes"/>
      <point x="402" y="-111"/>
      <point x="464" y="-136"/>
      <point x="540" y="-136" type="curve" smooth="yes"/>
      <point x="635" y="-136"/>
      <point x="703" y="-110"/>
      <point x="752" y="-66" type="curve" smooth="yes"/>
      <point x="800" y="-21"/>
      <point x="829" y="43"/>
      <point x="842" y="122" type="curve"/>
      <point x="1126" y="80" type="line"/>
      <point x="1095" y="-89"/>
      <point x="1018" y="-207"/>
      <point x="914" y="-282" type="curve" smooth="yes"/>
      <point x="810" y="-357"/>
      <point x="679" y="-390"/>
      <point x="546" y="-390" type="curve" smooth="yes"/>
      <point x="389" y="-390"/>
      <point x="253" y="-348"/>
      <point x="157" y="-266" type="curve" smooth="yes"/>
      <point x="60" y="-184"/>
      <point x="3" y="-63"/>
    </contour>
    <contour>
      <point x="666" y="680" type="line"/>
      <point x="666" y="292" type="line"/>
      <point x="414" y="292" type="line"/>
      <point x="414" y="680" type="line"/>
    </contour>
    <contour>
      <point x="541" y="1102" type="curve" smooth="yes"/>
      <point x="586" y="1102"/>
      <point x="624" y="1087"/>
      <point x="655" y="1056" type="curve" smooth="yes"/>
      <point x="685" y="1025"/>
      <point x="700" y="988"/>
      <point x="700" y="944" type="curve" smooth="yes"/>
      <point x="700" y="899"/>
      <point x="685" y="862"/>
      <point x="655" y="832" type="curve" smooth="yes"/>
      <point x="624" y="801"/>
      <point x="586" y="786"/>
      <point x="541" y="786" type="curve" smooth="yes"/>
      <point x="495" y="786"/>
      <point x="457" y="801"/>
      <point x="427" y="832" type="curve" smooth="yes"/>
      <point x="397" y="862"/>
      <point x="382" y="899"/>
      <point x="382" y="944" type="curve" smooth="yes"/>
      <point x="382" y="988"/>
      <point x="397" y="1025"/>
      <point x="427" y="1056" type="curve" smooth="yes"/>
      <point x="457" y="1087"/>
      <point x="495" y="1102"/>
    </contour>
  </outline>
</glyph>
<glyph name="Agrave" format="2">
  <advance width="1366"/>
  <unicode hex="00C0"/>
  <outline>
    <contour>
      <point x="724" y="1590" type="line"/>
      <point x="554" y="1590" type="line"/>
      <point x="388" y="1980" type="line"/>
      <point x="645" y="1980" type="line"/>
    </contour>
    <contour>
      <point x="1046" y="0" type="line"/>
      <point x="660" y="1270" type="line"/>
      <point x="712" y="1270" type="line"/>
      <point x="320" y="0" type="line"/>
      <point x="40" y="0" type="line"/>
      <point x="480" y="1440" type="line"/>
      <point x="886" y="1440" type="line"/>
      <point x="1326" y="0" type="line"/>
    </contour>
    <contour>
      <point x="302" y="300" type="line"/>
      <point x="302" y="554" type="line"/>
      <point x="1062" y="554" type="line"/>
      <point x="1062" y="300" type="line"/>
    </contour>
  </outline>
</glyph>
<glyph name="Aacute" format="2">
  <advance width="1366"/>
  <unicode hex="00C1"/>
  <outline>
    <contour>
      <point x="721" y="1980" type="line"/>
      <point x="978" y="1980" type="line"/>
      <point x="812" y="1590" type="line"/>
      <point x="642" y="1590" type="line"/>
    </contour>
    <contour>
      <point x="40" y="0" type="line"/>
      <point x="480" y="1440" type="line"/>
      <point x="886" y="1440" type="line"/>
      <point x="1326" y="0" type="line"/>
      <point x="1046" y="0" type="line"/>
      <point x="654" y="1270" type="line"/>
      <point x="706" y="1270" type="line"/>
      <point x="320" y="0" type="line"/>
    </contour>
    <contour>
      <point x="304" y="300" type="line"/>
      <point x="304" y="554" type="line"/>
      <point x="1064" y="554" type="line"/>
      <point x="1064" y="300" type="line"/>
    </contour>
  </outline>
</glyph>
<glyph name="Acircumflex" format="2">
  <advance width="1366"/>
  <unicode hex="00C2"/>
  <outline>
    <contour>
      <point x="280" y="1590" type="line"/>
      <point x="568" y="1920" type="line"/>
      <point x="792" y="1920" type="line"/>
      <point x="1080" y="1590" type="line"/>
      <point x="830" y="1590" type="line"/>
      <point x="680" y="1770" type="line"/>
      <point x="530" y="1590" type="line"/>
    </contour>
    <contour>
      <point x="40" y="0" type="line"/>
      <point x="480" y="1440" type="line"/>
      <point x="886" y="1440" type="line"/>
      <point x="1326" y="0" type="line"/>
      <point x="1046" y="0" type="line"/>
      <point x="654" y="1270" type="line"/>
      <point x="706" y="1270" type="line"/>
      <point x="320" y="0" type="line"/>
    </contour>
    <contour>
      <point x="304" y="300" type="line"/>
      <point x="304" y="554" type="line"/>
      <point x="1064" y="554" type="line"/>
      <point x="1064" y="300" type="line"/>
    </contour>
  </outline>
</glyph>
<glyph name="Atilde" format="2">
  <advance width="1366"/>
  <unicode hex="00C3"/>
  <outline>
    <contour>
      <point x="856" y="1646" type="curve" smooth="yes"/>
      <point x="791" y="1646"/>
      <point x="732" y="1681"/>
      <point x="678" y="1720" type="curve" smooth="yes"/>
      <point x="624" y="1759"/>
      <point x="577" y="1794"/>
      <point x="538" y="1794" type="curve" smooth="yes"/>
      <point x="518" y="1794"/>
      <point x="504" y="1783"/>
      <point x="497" y="1761" type="curve" smooth="yes"/>
      <point x="489" y="1738"/>
      <point x="489" y="1710"/>
      <point x="498" y="1676" type="curve"/>
      <point x="330" y="1676" type="line"/>
      <point x="309" y="1763"/>
      <point x="314" y="1837"/>
      <point x="343" y="1898" type="curve" smooth="yes"/>
      <point x="372" y="1958"/>
      <point x="428" y="1988"/>
      <point x="512" y="1988" type="curve" smooth="yes"/>
      <point x="577" y="1988"/>
      <point x="637" y="1953"/>
      <point x="691" y="1914" type="curve" smooth="yes"/>
      <point x="745" y="1875"/>
      <point x="791" y="1840"/>
      <point x="830" y="1840" type="curve" smooth="yes"/>
      <point x="870" y="1840"/>
      <point x="889" y="1890"/>
      <point x="870" y="1958" type="curve"/>
      <point x="1038" y="1958" type="line"/>
      <point x="1059" y="1871"/>
      <point x="1055" y="1798"/>
      <point x="1026" y="1737" type="curve" smooth="yes"/>
      <point x="997" y="1676"/>
      <point x="940" y="1646"/>
    </contour>
    <contour>
      <point x="40" y="0" type="line"/>
      <point x="480" y="1440" type="line"/>
      <point x="886" y="1440" type="line"/>
      <point x="1326" y="0" type="line"/>
      <point x="1046" y="0" type="line"/>
      <point x="654" y="1270" type="line"/>
      <point x="706" y="1270" type="line"/>
      <point x="320" y="0" type="line"/>
    </contour>
    <contour>
      <point x="304" y="300" type="line"/>
      <point x="304" y="554" type="line"/>
      <point x="1064" y="554" type="line"/>
      <point x="1064" y="300" type="line"/>
    </contour>
  </outline>
</glyph>
<glyph name="Aring" format="2">
  <advance width="1366"/>
  <unicode hex="00C5"/>
  <outline>
    <contour>
      <point x="684" y="1550" type="qcurve" smooth="yes"/>
      <point x="610" y="1550"/>
      <point x="487" y="1623"/>
      <point x="414" y="1746"/>
      <point x="414" y="1820" type="qcurve" smooth="yes"/>
      <point x="414" y="1895"/>
      <point x="487" y="2017"/>
      <point x="610" y="2090"/>
      <point x="684" y="2090" type="qcurve" smooth="yes"/>
      <point x="759" y="2090"/>
      <point x="881" y="2017"/>
      <point x="954" y="1895"/>
      <point x="954" y="1820" type="qcurve" smooth="yes"/>
      <point x="954" y="1746"/>
      <point x="881" y="1623"/>
      <point x="759" y="1550"/>
    </contour>
    <contour>
      <point x="684" y="1710" type="qcurve" smooth="yes"/>
      <point x="730" y="1710"/>
      <point x="794" y="1775"/>
      <point x="794" y="1820" type="qcurve" smooth="yes"/>
      <point x="794" y="1866"/>
      <point x="730" y="1930"/>
      <point x="684" y="1930" type="qcurve" smooth="yes"/>
      <point x="639" y="1930"/>
      <point x="574" y="1866"/>
      <point x="574" y="1820" type="qcurve" smooth="yes"/>
      <point x="574" y="1775"/>
      <point x="639" y="1710"/>
    </contour>
    <contour>
      <point x="40" y="0" type="line"/>
      <point x="480" y="1440" type="line"/>
      <point x="886" y="1440" type="line"/>
      <point x="1326" y="0" type="line"/>
      <point x="1046" y="0" type="line"/>
      <point x="654" y="1270" type="line"/>
      <point x="706" y="1270" type="line"/>
      <point x="320" y="0" type="line"/>
    </contour>
    <contour>
      <point x="304" y="300" type="line"/>
      <point x="304" y="554" type="line"/>
      <point x="1064" y="554" type="line"/>
      <point x="1064" y="300" type="line"/>
    </contour>
  </outline>
</glyph>
<glyph name="AE" format="2">
  <advance width="1890"/>
  <unicode hex="00C6"/>
  <outline>
    <contour>
      <point x="40" y="0" type="line"/>
      <point x="480" y="1440" type="line"/>
      <point x="940" y="1440" type="line"/>
      <point x="940" y="1186" type="line"/>
      <point x="590" y="1186" type="line"/>
      <point x="706" y="1272" type="line"/>
      <point x="320" y="0" type="line"/>
    </contour>
    <contour>
      <point x="304" y="300" type="line"/>
      <point x="304" y="554" type="line"/>
      <point x="1064" y="554" type="line"/>
      <point x="1064" y="300" type="line"/>
    </contour>
    <contour>
      <point x="850" y="0" type="line"/>
      <point x="850" y="1440" type="line"/>
      <point x="1790" y="1440" type="line"/>
      <point x="1790" y="1186" type="line"/>
      <point x="1122" y="1186" type="line"/>
      <point x="1122" y="878" type="line"/>
      <point x="1670" y="878" type="line"/>
      <point x="1670" y="624" type="line"/>
      <point x="1122" y="624" type="line"/>
      <point x="1122" y="254" type="line"/>
      <point x="1790" y="254" type="line"/>
      <point x="1790" y="0" type="line"/>
    </contour>
  </outline>
</glyph>
<glyph name="Ccedilla" format="2">
  <advance width="1492"/>
  <unicode hex="00C7"/>
  <outline>
    <contour>
      <point x="734" y="-484" type="qcurve" smooth="yes"/>
      <point x="692" y="-484"/>
      <point x="622" y="-462"/>
      <point x="592" y="-446" type="qcurve"/>
      <point x="650" y="-290" type="line"/>
      <point x="689" y="-302"/>
      <point x="710" y="-302" type="qcurve" smooth="yes"/>
      <point x="737" y="-302"/>
      <point x="766" y="-272"/>
      <point x="766" y="-256" type="qcurve" smooth="yes"/>
      <point x="766" y="-220"/>
      <point x="689" y="-185"/>
      <point x="636" y="-170" type="qcurve"/>
      <point x="706" y="34" type="line"/>
      <point x="864" y="36" type="line"/>
      <point x="828" y="-72" type="line"/>
      <point x="887" y="-102"/>
      <point x="950" y="-197"/>
      <point x="950" y="-262" type="qcurve" smooth="yes"/>
      <point x="950" y="-361"/>
      <point x="821" y="-484"/>
    </contour>
    <contour>
      <point x="758" y="-30" type="qcurve" smooth="yes"/>
      <point x="542" y="-30"/>
      <point x="229" y="158"/>
      <point x="60" y="496"/>
      <point x="60" y="720" type="qcurve" smooth="yes"/>
      <point x="60" y="944"/>
      <point x="229" y="1282"/>
      <point x="542" y="1470"/>
      <point x="758" y="1470" type="qcurve" smooth="yes"/>
      <point x="1006" y="1470"/>
      <point x="1343" y="1224"/>
      <point x="1412" y="1014" type="qcurve"/>
      <point x="1138" y="938" type="line"/>
      <point x="1098" y="1069"/>
      <point x="908" y="1214"/>
      <point x="758" y="1214" type="qcurve" smooth="yes"/>
      <point x="621" y="1214"/>
      <point x="438" y="1092"/>
      <point x="346" y="870"/>
      <point x="346" y="720" type="qcurve" smooth="yes"/>
      <point x="346" y="570"/>
      <point x="438" y="348"/>
      <point x="621" y="226"/>
      <point x="758" y="226" type="qcurve" smooth="yes"/>
      <point x="908" y="226"/>
      <point x="1098" y="372"/>
      <point x="1138" y="502" type="qcurve"/>
      <point x="1412" y="426" type="line"/>
      <point x="1343" y="216"/>
      <point x="1006" y="-30"/>
    </contour>
  </outline>
</glyph>
<glyph name="Eacute" format="2">
  <advance width="1180"/>
  <unicode hex="00C9"/>
  <outline>
    <contour>
      <point x="648" y="1980" type="line"/>
      <point x="569" y="1590" type="line"/>
      <point x="739" y="1590" type="line"/>
      <point x="905" y="1980" type="line"/>
    </contour>
    <contour>
      <point x="140" y="0" type="line"/>
      <point x="140" y="1440" type="line"/>
      <point x="1080" y="1440" type="line"/>
      <point x="1080" y="1186" type="line"/>
      <point x="412" y="1186" type="line"/>
      <point x="412" y="878" type="line"/>
      <point x="960" y="878" type="line"/>
      <point x="960" y="624" type="line"/>
      <point x="412" y="624" type="line"/>
      <point x="412" y="254" type="line"/>
      <point x="1080" y="254" type="line"/>
      <point x="1080" y="0" type="line"/>
    </contour>
  </outline>
</glyph>
<glyph name="Icircumflex" format="2">
  <advance width="592"/>
  <unicode hex="00CE"/>
  <outline>
    <contour>
      <point x="-108" y="1590" type="line"/>
      <point x="180" y="1920" type="line"/>
      <point x="404" y="1920" type="line"/>
      <point x="692" y="1590" type="line"/>
      <point x="442" y="1590" type="line"/>
      <point x="292" y="1770" type="line"/>
      <point x="142" y="1590" type="line"/>
    </contour>
    <contour>
      <point x="160" y="0" type="line"/>
      <point x="160" y="1440" type="line"/>
      <point x="432" y="1440" type="line"/>
      <point x="432" y="0" type="line"/>
    </contour>
  </outline>
</glyph>
<glyph name="Idieresis" format="2">
  <advance width="592"/>
  <unicode hex="00CF"/>
  <outline>
    <contour>
      <point x="84" y="1554" type="qcurve" smooth="yes"/>
      <point x="16" y="1554"/>
      <point x="-75" y="1646"/>
      <point x="-75" y="1712" type="qcurve" smooth="yes"/>
      <point x="-75" y="1779"/>
      <point x="16" y="1870"/>
      <point x="84" y="1870" type="qcurve" smooth="yes"/>
      <point x="153" y="1870"/>
      <point x="243" y="1779"/>
      <point x="243" y="1712" type="qcurve" smooth="yes"/>
      <point x="243" y="1646"/>
      <point x="153" y="1554"/>
    </contour>
    <contour>
      <point x="506" y="1554" type="qcurve" smooth="yes"/>
      <point x="438" y="1554"/>
      <point x="347" y="1646"/>
      <point x="347" y="1712" type="qcurve" smooth="yes"/>
      <point x="347" y="1779"/>
      <point x="438" y="1870"/>
      <point x="506" y="1870" type="qcurve" smooth="yes"/>
      <point x="575" y="1870"/>
      <point x="665" y="1779"/>
      <point x="665" y="1712" type="qcurve" smooth="yes"/>
      <point x="665" y="1646"/>
      <point x="575" y="1554"/>
    </contour>
    <contour>
      <point x="160" y="0" type="line"/>
      <point x="160" y="1440" type="line"/>
      <point x="432" y="1440" type="line"/>
      <point x="432" y="0" type="line"/>
    </contour>
  </outline>
</glyph>
<glyph name="Eth" format="2">
  <advance width="1428"/>
  <unicode hex="00D0"/>
  <outline>
    <contour>
      <point x="20" y="616" type="line"/>
      <point x="20" y="826" type="line"/>
      <point x="710" y="826" type="line"/>
      <point x="710" y="616" type="line"/>
    </contour>
    <contour>
      <point x="148" y="0" type="line"/>
      <point x="148" y="1440" type="line"/>
      <point x="614" y="1440" type="line" smooth="yes"/>
      <point x="625" y="1440"/>
      <point x="649" y="1440"/>
      <point x="684" y="1439" type="curve" smooth="yes"/>
      <point x="719" y="1438"/>
      <point x="753" y="1436"/>
      <point x="786" y="1432" type="curve" smooth="yes"/>
      <point x="902" y="1418"/>
      <point x="1000" y="1378"/>
      <point x="1081" y="1311" type="curve" smooth="yes"/>
      <point x="1162" y="1244"/>
      <point x="1223" y="1160"/>
      <point x="1265" y="1057" type="curve" smooth="yes"/>
      <point x="1307" y="954"/>
      <point x="1328" y="842"/>
      <point x="1328" y="720" type="curve" smooth="yes"/>
      <point x="1328" y="598"/>
      <point x="1307" y="486"/>
      <point x="1265" y="383" type="curve" smooth="yes"/>
      <point x="1223" y="280"/>
      <point x="1162" y="196"/>
      <point x="1081" y="129" type="curve" smooth="yes"/>
      <point x="1000" y="62"/>
      <point x="902" y="22"/>
      <point x="786" y="8" type="curve" smooth="yes"/>
      <point x="753" y="4"/>
      <point x="719" y="2"/>
      <point x="684" y="1" type="curve" smooth="yes"/>
      <point x="649" y="0"/>
      <point x="625" y="0"/>
      <point x="614" y="0" type="curve" smooth="yes"/>
    </contour>
    <contour>
      <point x="424" y="256" type="line"/>
      <point x="614" y="256" type="line" smooth="yes"/>
      <point x="632" y="256"/>
      <point x="656" y="257"/>
      <point x="687" y="258" type="curve" smooth="yes"/>
      <point x="718" y="259"/>
      <point x="745" y="261"/>
      <point x="770" y="266" type="curve" smooth="yes"/>
      <point x="833" y="279"/>
      <point x="884" y="308"/>
      <point x="924" y="354" type="curve" smooth="yes"/>
      <point x="1003" y="446"/>
      <point x="1040" y="583"/>
      <point x="1040" y="720" type="curve" smooth="yes"/>
      <point x="1040" y="792"/>
      <point x="1030" y="860"/>
      <point x="1011" y="925" type="curve" smooth="yes"/>
      <point x="971" y="1054"/>
      <point x="891" y="1150"/>
      <point x="770" y="1174" type="curve" smooth="yes"/>
      <point x="745" y="1179"/>
      <point x="718" y="1182"/>
      <point x="687" y="1183" type="curve" smooth="yes"/>
      <point x="656" y="1184"/>
      <point x="632" y="1184"/>
      <point x="614" y="1184" type="curve" smooth="yes"/>
      <point x="424" y="1184" type="line"/>
    </contour>
  </outline>
</glyph>
<glyph name="Ntilde" format="2">
  <advance width="1458"/>
  <unicode hex="00D1"/>
  <outline>
    <contour>
      <point x="922" y="1596" type="curve" smooth="yes"/>
      <point x="857" y="1596"/>
      <point x="798" y="1631"/>
      <point x="744" y="1670" type="curve" smooth="yes"/>
      <point x="690" y="1709"/>
      <point x="643" y="1744"/>
      <point x="604" y="1744" type="curve" smooth="yes"/>
      <point x="584" y="1744"/>
      <point x="570" y="1733"/>
      <point x="563" y="1711" type="curve" smooth="yes"/>
      <point x="555" y="1688"/>
      <point x="555" y="1660"/>
      <point x="564" y="1626" type="curve"/>
      <point x="396" y="1626" type="line"/>
      <point x="375" y="1713"/>
      <point x="380" y="1787"/>
      <point x="409" y="1848" type="curve" smooth="yes"/>
      <point x="438" y="1908"/>
      <point x="494" y="1938"/>
      <point x="578" y="1938" type="curve" smooth="yes"/>
      <point x="643" y="1938"/>
      <point x="703" y="1903"/>
      <point x="757" y="1864" type="curve" smooth="yes"/>
      <point x="811" y="1825"/>
      <point x="857" y="1790"/>
      <point x="896" y="1790" type="curve" smooth="yes"/>
      <point x="936" y="1790"/>
      <point x="955" y="1840"/>
      <point x="936" y="1908" type="curve"/>
      <point x="1104" y="1908" type="line"/>
      <point x="1125" y="1821"/>
      <point x="1121" y="1748"/>
      <point x="1092" y="1687" type="curve" smooth="yes"/>
      <point x="1063" y="1626"/>
      <point x="1006" y="1596"/>
    </contour>
    <contour>
      <point x="140" y="0" type="line"/>
      <point x="140" y="1440" type="line"/>
      <point x="416" y="1440" type="line"/>
      <point x="1042" y="480" type="line"/>
      <point x="1042" y="1440" type="line"/>
      <point x="1318" y="1440" type="line"/>
      <point x="1318" y="0" type="line"/>
      <point x="1042" y="0" type="line"/>
      <point x="416" y="960" type="line"/>
      <point x="416" y="0" type="line"/>
    </contour>
  </outline>
</glyph>
<glyph name="Ocircumflex" format="2">
  <advance width="1516"/>
  <unicode hex="00D4"/>
  <outline>
    <contour>
      <point x="354" y="1590" type="line"/>
      <point x="642" y="1920" type="line"/>
      <point x="866" y="1920" type="line"/>
      <point x="1154" y="1590" type="line"/>
      <point x="904" y="1590" type="line"/>
      <point x="754" y="1770" type="line"/>
      <point x="604" y="1590" type="line"/>
    </contour>
    <contour>
      <point x="758" y="-30" type="curve" smooth="yes"/>
      <point x="614" y="-30"/>
      <point x="490" y="1"/>
      <point x="386" y="64" type="curve" smooth="yes"/>
      <point x="281" y="127"/>
      <point x="201" y="214"/>
      <point x="145" y="327" type="curve" smooth="yes"/>
      <point x="88" y="440"/>
      <point x="60" y="571"/>
      <point x="60" y="720" type="curve" smooth="yes"/>
      <point x="60" y="869"/>
      <point x="88" y="1000"/>
      <point x="145" y="1113" type="curve" smooth="yes"/>
      <point x="201" y="1226"/>
      <point x="281" y="1313"/>
      <point x="386" y="1376" type="curve" smooth="yes"/>
      <point x="490" y="1439"/>
      <point x="614" y="1470"/>
      <point x="758" y="1470" type="curve" smooth="yes"/>
      <point x="902" y="1470"/>
      <point x="1026" y="1439"/>
      <point x="1131" y="1376" type="curve" smooth="yes"/>
      <point x="1235" y="1313"/>
      <point x="1315" y="1226"/>
      <point x="1372" y="1113" type="curve" smooth="yes"/>
      <point x="1428" y="1000"/>
      <point x="1456" y="869"/>
      <point x="1456" y="720" type="curve" smooth="yes"/>
      <point x="1456" y="571"/>
      <point x="1428" y="440"/>
      <point x="1372" y="327" type="curve" smooth="yes"/>
      <point x="1315" y="214"/>
      <point x="1235" y="127"/>
      <point x="1131" y="64" type="curve" smooth="yes"/>
      <point x="1026" y="1"/>
      <point x="902" y="-30"/>
    </contour>
    <contour>
      <point x="758" y="226" type="curve" smooth="yes"/>
      <point x="849" y="225"/>
      <point x="925" y="244"/>
      <point x="986" y="285" type="curve" smooth="yes"/>
      <point x="1107" y="366"/>
      <point x="1168" y="520"/>
      <point x="1168" y="720" type="curve" smooth="yes"/>
      <point x="1168" y="820"/>
      <point x="1153" y="907"/>
      <point x="1123" y="980" type="curve" smooth="yes"/>
      <point x="1062" y="1127"/>
      <point x="941" y="1211"/>
      <point x="758" y="1214" type="curve" smooth="yes"/>
      <point x="667" y="1215"/>
      <point x="591" y="1196"/>
      <point x="530" y="1155" type="curve" smooth="yes"/>
      <point x="409" y="1074"/>
      <point x="348" y="920"/>
      <point x="348" y="720" type="curve" smooth="yes"/>
      <point x="348" y="620"/>
      <point x="363" y="533"/>
      <point x="394" y="460" type="curve" smooth="yes"/>
      <point x="454" y="313"/>
      <point x="575" y="229"/>
    </contour>
  </outline>
</glyph>
<glyph name="Uacute" format="2">
  <advance width="1452"/>
  <unicode hex="00DA"/>
  <outline>
    <contour>
      <point x="734" y="1980" type="line"/>
      <point x="655" y="1590" type="line"/>
      <point x="825" y="1590" type="line"/>
      <point x="991" y="1980" type="line"/>
    </contour>
    <contour>
      <point x="726" y="-30" type="qcurve" smooth="yes"/>
      <point x="552" y="-30"/>
      <point x="288" y="111"/>
      <point x="140" y="367"/>
      <point x="140" y="540" type="qcurve" smooth="yes"/>
      <point x="140" y="1438" type="line"/>
      <point x="416" y="1440" type="line"/>
      <point x="416" y="542" type="line" smooth="yes"/>
      <point x="416" y="471"/>
      <point x="464" y="355"/>
      <point x="549" y="271"/>
      <point x="662" y="226"/>
      <point x="726" y="226" type="qcurve" smooth="yes"/>
      <point x="792" y="226"/>
      <point x="905" y="272"/>
      <point x="989" y="356"/>
      <point x="1036" y="472"/>
      <point x="1036" y="542" type="qcurve" smooth="yes"/>
      <point x="1036" y="1440" type="line"/>
      <point x="1312" y="1440" type="line"/>
      <point x="1312" y="540" type="line" smooth="yes"/>
      <point x="1312" y="367"/>
      <point x="1164" y="111"/>
      <point x="900" y="-30"/>
    </contour>
  </outline>
</glyph>
<glyph name="Udieresis" format="2">
  <advance width="1452"/>
  <unicode hex="00DC"/>
  <outline>
    <contour>
      <point x="514" y="1554" type="qcurve" smooth="yes"/>
      <point x="446" y="1554"/>
      <point x="355" y="1646"/>
      <point x="355" y="1712" type="qcurve" smooth="yes"/>
      <point x="355" y="1779"/>
      <point x="446" y="1870"/>
      <point x="514" y="1870" type="qcurve" smooth="yes"/>
      <point x="583" y="1870"/>
      <point x="673" y="1779"/>
      <point x="673" y="1712" type="qcurve" smooth="yes"/>
      <point x="673" y="1646"/>
      <point x="583" y="1554"/>
    </contour>
    <contour>
      <point x="936" y="1554" type="qcurve" smooth="yes"/>
      <point x="868" y="1554"/>
      <point x="777" y="1646"/>
      <point x="777" y="1712" type="qcurve" smooth="yes"/>
      <point x="777" y="1779"/>
      <point x="868" y="1870"/>
      <point x="936" y="1870" type="qcurve" smooth="yes"/>
      <point x="1005" y="1870"/>
      <point x="1095" y="1779"/>
      <point x="1095" y="1712" type="qcurve" smooth="yes"/>
      <point x="1095" y="1646"/>
      <point x="1005" y="1554"/>
    </contour>
    <contour>
      <point x="726" y="-30" type="qcurve" smooth="yes"/>
      <point x="552" y="-30"/>
      <point x="288" y="111"/>
      <point x="140" y="367"/>
      <point x="140" y="540" type="qcurve" smooth="yes"/>
      <point x="140" y="1438" type="line"/>
      <point x="416" y="1440" type="line"/>
      <point x="416" y="542" type="line" smooth="yes"/>
      <point x="416" y="471"/>
      <point x="464" y="355"/>
      <point x="549" y="271"/>
      <point x="662" y="226"/>
      <point x="726" y="226" type="qcurve" smooth="yes"/>
      <point x="792" y="226"/>
      <point x="905" y="272"/>
      <point x="989" y="356"/>
      <point x="1036" y="472"/>
      <point x="1036" y="542" type="qcurve" smooth="yes"/>
      <point x="1036" y="1440" type="line"/>
      <point x="1312" y="1440" type="line"/>
      <point x="1312" y="540" type="line" smooth="yes"/>
      <point x="1312" y="367"/>
      <point x="1164" y="111"/>
      <point x="900" y="-30"/>
    </contour>
  </outline>
</glyph>
<glyph name="Yacute" format="2">
  <advance width="1260"/>
  <unicode hex="00DD"/>
  <outline>
    <contour>
      <point x="639" y="1980" type="line"/>
      <point x="560" y="1590" type="line"/>
      <point x="730" y="1590" type="line"/>
      <point x="896" y="1980" type="line"/>
    </contour>
    <contour>
      <point x="492" y="0" type="line"/>
      <point x="492" y="586" type="line"/>
      <point x="0" y="1440" type="line"/>
      <point x="318" y="1440" type="line"/>
      <point x="630" y="898" type="line"/>
      <point x="942" y="1440" type="line"/>
      <point x="1260" y="1440" type="line"/>
      <point x="768" y="586" type="line"/>
      <point x="768" y="0" type="line"/>
    </contour>
  </outline>
</glyph>
<glyph name="Thorn" format="2">
  <advance width="1284"/>
  <unicode hex="00DE"/>
  <outline>
    <contour>
      <point x="140" y="0" type="line"/>
      <point x="140" y="1440" type="line"/>
      <point x="416" y="1440" type="line"/>
      <point x="416" y="1196" type="line"/>
      <point x="742" y="1196" type="line" smooth="yes"/>
      <point x="791" y="1196"/>
      <point x="840" y="1189"/>
      <point x="888" y="1174" type="curve" smooth="yes"/>
      <point x="984" y="1145"/>
      <point x="1071" y="1085"/>
      <point x="1128" y="1002" type="curve"/>
      <point x="1188" y="922"/>
      <point x="1223" y="820"/>
      <point x="1224" y="720" type="curve"/>
      <point x="1227" y="620"/>
      <point x="1188" y="518"/>
      <point x="1128" y="438" type="curve" smooth="yes"/>
      <point x="1086" y="380"/>
      <point x="1031" y="334"/>
      <point x="963" y="299" type="curve" smooth="yes"/>
      <point x="895" y="264"/>
      <point x="821" y="246"/>
      <point x="742" y="246" type="curve" smooth="yes"/>
      <point x="416" y="246" type="line"/>
      <point x="416" y="0" type="line"/>
    </contour>
    <contour>
      <point x="416" y="500" type="line"/>
      <point x="740" y="500" type="line" smooth="yes"/>
      <point x="795" y="500"/>
      <point x="863" y="532"/>
      <point x="904" y="588" type="curve" smooth="yes"/>
      <point x="932" y="627"/>
      <point x="951" y="672"/>
      <point x="948" y="720" type="curve"/>
      <point x="947" y="772"/>
      <point x="931" y="825"/>
      <point x="896" y="862" type="curve"/>
      <point x="859" y="906"/>
      <point x="796" y="940"/>
      <point x="740" y="940" type="curve" smooth="yes"/>
      <point x="416" y="940" type="line"/>
    </contour>
  </outline>
</glyph>
<glyph name="germandbls" format="2">
  <advance width="1292"/>
  <unicode hex="00DF"/>
  <outline>
    <contour>
      <point x="710" y="-30" type="qcurve" smooth="yes"/>
      <point x="644" y="-30"/>
      <point x="559" y="-15"/>
      <point x="524" y="0" type="qcurve"/>
      <point x="524" y="266" type="line"/>
      <point x="550" y="256"/>
      <point x="624" y="236"/>
      <point x="670" y="236" type="qcurve" smooth="yes"/>
      <point x="775" y="236"/>
      <point x="900" y="332"/>
      <point x="900" y="432" type="qcurve" smooth="yes"/>
      <point x="900" y="546"/>
      <point x="732" y="644"/>
      <point x="598" y="644" type="qcurve"/>
      <point x="598" y="880" type="line"/>
      <point x="659" y="884"/>
      <point x="742" y="927"/>
      <point x="784" y="1001"/>
      <point x="784" y="1052" type="qcurve" smooth="yes"/>
      <point x="784" y="1130"/>
      <point x="668" y="1216"/>
      <point x="596" y="1216" type="qcurve" smooth="yes"/>
      <point x="548" y="1216"/>
      <point x="465" y="1180"/>
      <point x="438" y="1132" type="qcurve" smooth="yes"/>
      <point x="425" y="1108"/>
      <point x="412" y="1030"/>
      <point x="412" y="986" type="qcurve" smooth="yes"/>
      <point x="412" y="0" type="line"/>
      <point x="138" y="0" type="line"/>
      <point x="138" y="1060" type="line" smooth="yes"/>
      <point x="138" y="1098"/>
      <point x="145" y="1158"/>
      <point x="154" y="1188" type="qcurve" smooth="yes"/>
      <point x="185" y="1289"/>
      <point x="320" y="1413"/>
      <point x="499" y="1470"/>
      <point x="596" y="1470" type="qcurve" smooth="yes"/>
      <point x="724" y="1470"/>
      <point x="934" y="1362"/>
      <point x="1058" y="1175"/>
      <point x="1058" y="1058" type="qcurve" smooth="yes"/>
      <point x="1058" y="982"/>
      <point x="1008" y="849"/>
      <point x="954" y="798" type="qcurve"/>
      <point x="1007" y="776"/>
      <point x="1088" y="703"/>
      <point x="1143" y="606"/>
      <point x="1172" y="491"/>
      <point x="1172" y="428" type="qcurve" smooth="yes"/>
      <point x="1172" y="214"/>
      <point x="934" y="-30"/>
    </contour>
  </outline>
</glyph>
<glyph name="agrave" format="2">
  <advance width="1166"/>
  <unicode hex="00E0"/>
  <outline>
    <component base="a"/>
    <contour>
      <point x="585" y="1620" type="line"/>
      <point x="328" y="1620" type="line"/>
      <point x="494" y="1230" type="line"/>
      <point x="664" y="1230" type="line"/>
    </contour>
  </outline>
</glyph>
<glyph name="aacute" format="2">
  <advance width="1166"/>
  <unicode hex="00E1"/>
  <outline>
    <component base="a"/>
    <contour>
      <point x="614" y="1620" type="line"/>
      <point x="871" y="1620" type="line"/>
      <point x="705" y="1230" type="line"/>
      <point x="535" y="1230" type="line"/>
    </contour>
  </outline>
</glyph>
<glyph name="acircumflex" format="2">
  <advance width="1166"/>
  <unicode hex="00E2"/>
  <outline>
    <component base="a"/>
    <contour>
      <point x="196" y="1230" type="line"/>
      <point x="484" y="1560" type="line"/>
      <point x="708" y="1560" type="line"/>
      <point x="996" y="1230" type="line"/>
      <point x="746" y="1230" type="line"/>
      <point x="596" y="1410" type="line"/>
      <point x="446" y="1230" type="line"/>
    </contour>
  </outline>
</glyph>
<glyph name="atilde" format="2">
  <advance width="1166"/>
  <unicode hex="00E3"/>
  <outline>
    <component base="a"/>
    <contour>
      <point x="790" y="1236" type="qcurve" smooth="yes"/>
      <point x="741" y="1236"/>
      <point x="652" y="1281"/>
      <point x="571" y="1339"/>
      <point x="501" y="1384"/>
      <point x="472" y="1384" type="qcurve" smooth="yes"/>
      <point x="442" y="1384"/>
      <point x="419" y="1317"/>
      <point x="432" y="1266" type="qcurve"/>
      <point x="264" y="1266" type="line"/>
      <point x="233" y="1397"/>
      <point x="320" y="1578"/>
      <point x="446" y="1578" type="qcurve" smooth="yes"/>
      <point x="495" y="1578"/>
      <point x="584" y="1533"/>
      <point x="665" y="1475"/>
      <point x="735" y="1430"/>
      <point x="764" y="1430" type="qcurve" smooth="yes"/>
      <point x="794" y="1430"/>
      <point x="818" y="1497"/>
      <point x="804" y="1548" type="qcurve"/>
      <point x="972" y="1548" type="line"/>
      <point x="1004" y="1418"/>
      <point x="916" y="1236"/>
    </contour>
  </outline>
</glyph>
<glyph name="aring" format="2">
  <advance width="1166"/>
  <unicode hex="00E5"/>
  <outline>
    <component base="a"/>
    <contour>
      <point x="596" y="1190" type="qcurve" smooth="yes"/>
      <point x="522" y="1190"/>
      <point x="399" y="1263"/>
      <point x="326" y="1386"/>
      <point x="326" y="1460" type="qcurve" smooth="yes"/>
      <point x="326" y="1535"/>
      <point x="399" y="1657"/>
      <point x="522" y="1730"/>
      <point x="596" y="1730" type="qcurve" smooth="yes"/>
      <point x="671" y="1730"/>
      <point x="793" y="1657"/>
      <point x="866" y="1535"/>
      <point x="866" y="1460" type="qcurve" smooth="yes"/>
      <point x="866" y="1386"/>
      <point x="793" y="1263"/>
      <point x="671" y="1190"/>
    </contour>
    <contour>
      <point x="596" y="1350" type="qcurve" smooth="yes"/>
      <point x="642" y="1350"/>
      <point x="706" y="1415"/>
      <point x="706" y="1460" type="qcurve" smooth="yes"/>
      <point x="706" y="1506"/>
      <point x="642" y="1570"/>
      <point x="596" y="1570" type="qcurve" smooth="yes"/>
      <point x="551" y="1570"/>
      <point x="486" y="1506"/>
      <point x="486" y="1460" type="qcurve" smooth="yes"/>
      <point x="486" y="1415"/>
      <point x="551" y="1350"/>
    </contour>
  </outline>
</glyph>
<glyph name="ae" format="2">
  <advance width="1868"/>
  <unicode hex="00E6"/>
  <outline>
    <contour>
      <point x="1321" y="-30" type="curve" smooth="yes"/>
      <point x="996" y="-30"/>
      <point x="790" y="209"/>
      <point x="790" y="526" type="curve" smooth="yes"/>
      <point x="790" y="842"/>
      <point x="967" y="1110"/>
      <point x="1306" y="1110" type="curve" smooth="yes"/>
      <point x="1640" y="1110"/>
      <point x="1787" y="848"/>
      <point x="1787" y="543" type="curve" smooth="yes"/>
      <point x="1787" y="517"/>
      <point x="1786" y="490"/>
      <point x="1784" y="464" type="curve"/>
      <point x="1529" y="464" type="line"/>
      <point x="1529" y="646"/>
      <point x="1553" y="874"/>
      <point x="1306" y="874" type="curve" smooth="yes"/>
      <point x="1107" y="874"/>
      <point x="1062" y="708"/>
      <point x="1062" y="540" type="curve" smooth="yes"/>
      <point x="1062" y="381"/>
      <point x="1122" y="224"/>
      <point x="1306" y="224" type="curve" smooth="yes"/>
      <point x="1401" y="224"/>
      <point x="1479" y="272"/>
      <point x="1517" y="360" type="curve"/>
      <point x="1774" y="282" type="line"/>
      <point x="1702" y="94"/>
      <point x="1523" y="-30"/>
    </contour>
    <contour>
      <point x="498" y="182" type="curve" smooth="yes"/>
      <point x="550" y="182"/>
      <point x="602" y="195"/>
      <point x="647" y="223" type="curve" smooth="yes"/>
      <point x="769" y="299"/>
      <point x="782" y="398"/>
      <point x="778" y="532" type="curve"/>
      <point x="876" y="470" type="line"/>
      <point x="648" y="470" type="line" smooth="yes"/>
      <point x="550" y="470"/>
      <point x="346" y="432"/>
      <point x="346" y="300" type="curve" smooth="yes"/>
      <point x="346" y="215"/>
      <point x="425" y="182"/>
    </contour>
    <contour>
      <point x="454" y="-30" type="curve" smooth="yes"/>
      <point x="254" y="-30"/>
      <point x="80" y="71"/>
      <point x="80" y="290" type="curve" smooth="yes"/>
      <point x="80" y="569"/>
      <point x="372" y="650"/>
      <point x="592" y="650" type="curve" smooth="yes"/>
      <point x="838" y="650" type="line"/>
      <point x="774" y="626" type="line"/>
      <point x="776" y="643"/>
      <point x="777" y="664"/>
      <point x="777" y="681" type="curve" smooth="yes"/>
      <point x="777" y="803"/>
      <point x="696" y="862"/>
      <point x="580" y="862" type="curve" smooth="yes"/>
      <point x="486" y="862"/>
      <point x="400" y="819"/>
      <point x="362" y="730" type="curve"/>
      <point x="118" y="804" type="line"/>
      <point x="202" y="996"/>
      <point x="379" y="1110"/>
      <point x="588" y="1110" type="curve" smooth="yes"/>
      <point x="782" y="1110"/>
      <point x="960" y="1038"/>
      <point x="1022" y="840" type="curve" smooth="yes"/>
      <point x="1033" y="806"/>
      <point x="1056" y="674"/>
      <point x="1046" y="644" type="curve" smooth="yes"/>
      <point x="908" y="212" type="line" smooth="yes"/>
      <point x="897" y="178"/>
      <point x="817" y="97"/>
      <point x="787" y="73" type="curve" smooth="yes"/>
      <point x="689" y="-4"/>
      <point x="577" y="-30"/>
    </contour>
    <contour>
      <point x="982" y="464" type="line"/>
      <point x="982" y="674" type="line"/>
      <point x="1659" y="674" type="line"/>
      <point x="1659" y="464" type="line"/>
    </contour>
  </outline>
</glyph>
<glyph name="ccedilla" format="2">
  <advance width="1166"/>
  <unicode hex="00E7"/>
  <outline>
    <contour>
      <point x="586" y="-484" type="curve" smooth="yes"/>
      <point x="530" y="-484"/>
      <point x="484" y="-467"/>
      <point x="444" y="-446" type="curve"/>
      <point x="502" y="-290" type="line"/>
      <point x="528" y="-298"/>
      <point x="548" y="-302"/>
      <point x="562" y="-302" type="curve" smooth="yes"/>
      <point x="598" y="-302"/>
      <point x="618" y="-277"/>
      <point x="618" y="-256" type="curve" smooth="yes"/>
      <point x="618" y="-232"/>
      <point x="605" y="-214"/>
      <point x="580" y="-203" type="curve" smooth="yes"/>
      <point x="554" y="-191"/>
      <point x="523" y="-180"/>
      <point x="488" y="-170" type="curve"/>
      <point x="558" y="34" type="line"/>
      <point x="716" y="36" type="line"/>
      <point x="680" y="-72" type="line"/>
      <point x="759" y="-112"/>
      <point x="802" y="-175"/>
      <point x="802" y="-262" type="curve" smooth="yes"/>
      <point x="802" y="-328"/>
      <point x="781" y="-382"/>
      <point x="738" y="-423" type="curve" smooth="yes"/>
      <point x="695" y="-464"/>
      <point x="644" y="-484"/>
    </contour>
    <contour>
      <point x="616" y="-30" type="curve" smooth="yes"/>
      <point x="504" y="-30"/>
      <point x="408" y="-5"/>
      <point x="328" y="45" type="curve" smooth="yes"/>
      <point x="168" y="145"/>
      <point x="80" y="324"/>
      <point x="80" y="540" type="curve" smooth="yes"/>
      <point x="80" y="649"/>
      <point x="102" y="747"/>
      <point x="147" y="833" type="curve" smooth="yes"/>
      <point x="235" y="1005"/>
      <point x="400" y="1110"/>
      <point x="620" y="1110" type="curve" smooth="yes"/>
      <point x="747" y="1110"/>
      <point x="854" y="1078"/>
      <point x="941" y="1014" type="curve" smooth="yes"/>
      <point x="1027" y="949"/>
      <point x="1082" y="861"/>
      <point x="1106" y="750" type="curve"/>
      <point x="834" y="678" type="line"/>
      <point x="818" y="734"/>
      <point x="790" y="778"/>
      <point x="751" y="809" type="curve" smooth="yes"/>
      <point x="711" y="840"/>
      <point x="666" y="856"/>
      <point x="616" y="856" type="curve" smooth="yes"/>
      <point x="559" y="856"/>
      <point x="512" y="842"/>
      <point x="475" y="815" type="curve" smooth="yes"/>
      <point x="402" y="759"/>
      <point x="368" y="660"/>
      <point x="368" y="540" type="curve" smooth="yes"/>
      <point x="368" y="446"/>
      <point x="389" y="370"/>
      <point x="431" y="312" type="curve" smooth="yes"/>
      <point x="472" y="253"/>
      <point x="534" y="224"/>
      <point x="616" y="224" type="curve" smooth="yes"/>
      <point x="739" y="224"/>
      <point x="796" y="282"/>
      <point x="828" y="386" type="curve"/>
      <point x="1106" y="328" type="line"/>
      <point x="1075" y="213"/>
      <point x="1017" y="125"/>
      <point x="932" y="63" type="curve" smooth="yes"/>
      <point x="847" y="1"/>
      <point x="741" y="-30"/>
    </contour>
  </outline>
</glyph>
<glyph name="eacute" format="2">
  <advance width="1216"/>
  <unicode hex="00E9"/>
  <outline>
    <contour>
      <point x="658" y="1620" type="line"/>
      <point x="915" y="1620" type="line"/>
      <point x="749" y="1230" type="line"/>
      <point x="579" y="1230" type="line"/>
    </contour>
    <contour>
      <point x="642" y="-30" type="curve" smooth="yes"/>
      <point x="531" y="-30"/>
      <point x="434" y="-6"/>
      <point x="350" y="42" type="curve" smooth="yes"/>
      <point x="265" y="89"/>
      <point x="199" y="155"/>
      <point x="152" y="239" type="curve" smooth="yes"/>
      <point x="104" y="322"/>
      <point x="80" y="418"/>
      <point x="80" y="526" type="curve" smooth="yes"/>
      <point x="80" y="644"/>
      <point x="103" y="747"/>
      <point x="150" y="834" type="curve" smooth="yes"/>
      <point x="243" y="1009"/>
      <point x="413" y="1110"/>
      <point x="626" y="1110" type="curve" smooth="yes"/>
      <point x="739" y="1110"/>
      <point x="836" y="1083"/>
      <point x="915" y="1030" type="curve" smooth="yes"/>
      <point x="1074" y="923"/>
      <point x="1154" y="725"/>
      <point x="1131" y="464" type="curve"/>
      <point x="862" y="464" type="line"/>
      <point x="862" y="564" type="line" smooth="yes"/>
      <point x="862" y="674"/>
      <point x="845" y="753"/>
      <point x="810" y="802" type="curve" smooth="yes"/>
      <point x="775" y="850"/>
      <point x="717" y="874"/>
      <point x="638" y="874" type="curve" smooth="yes"/>
      <point x="545" y="874"/>
      <point x="477" y="846"/>
      <point x="434" y="790" type="curve" smooth="yes"/>
      <point x="390" y="733"/>
      <point x="368" y="650"/>
      <point x="368" y="540" type="curve" smooth="yes"/>
      <point x="368" y="439"/>
      <point x="390" y="362"/>
      <point x="434" y="307" type="curve" smooth="yes"/>
      <point x="477" y="252"/>
      <point x="541" y="224"/>
      <point x="626" y="224" type="curve" smooth="yes"/>
      <point x="733" y="224"/>
      <point x="810" y="272"/>
      <point x="850" y="360" type="curve"/>
      <point x="1122" y="282" type="line"/>
      <point x="1081" y="183"/>
      <point x="1017" y="107"/>
      <point x="930" y="52" type="curve" smooth="yes"/>
      <point x="842" y="-3"/>
      <point x="746" y="-30"/>
    </contour>
    <contour>
      <point x="284" y="464" type="line"/>
      <point x="284" y="666" type="line"/>
      <point x="1000" y="666" type="line"/>
      <point x="1000" y="464" type="line"/>
    </contour>
  </outline>
</glyph>
<glyph name="icircumflex" format="2">
  <advance width="592"/>
  <unicode hex="00EE"/>
  <outline>
    <contour>
      <point x="-88" y="1230" type="line"/>
      <point x="200" y="1560" type="line"/>
      <point x="424" y="1560" type="line"/>
      <point x="712" y="1230" type="line"/>
      <point x="462" y="1230" type="line"/>
      <point x="312" y="1410" type="line"/>
      <point x="162" y="1230" type="line"/>
    </contour>
    <contour>
      <point x="160" y="0" type="line"/>
      <point x="160" y="1080" type="line"/>
      <point x="432" y="1080" type="line"/>
      <point x="432" y="0" type="line"/>
    </contour>
  </outline>
</glyph>
<glyph name="eth" format="2">
  <advance width="1202"/>
  <unicode hex="00F0"/>
  <outline>
    <contour>
      <point x="602" y="-30" type="curve" smooth="yes"/>
      <point x="499" y="-30"/>
      <point x="409" y="-8"/>
      <point x="331" y="38" type="curve" smooth="yes"/>
      <point x="174" y="128"/>
      <point x="80" y="293"/>
      <point x="80" y="502" type="curve" smooth="yes"/>
      <point x="80" y="607"/>
      <point x="102" y="700"/>
      <point x="147" y="781" type="curve" smooth="yes"/>
      <point x="235" y="941"/>
      <point x="397" y="1036"/>
      <point x="602" y="1036" type="curve" smooth="yes"/>
      <point x="646" y="1036"/>
      <point x="688" y="1031"/>
      <point x="728" y="1021" type="curve"/>
      <point x="767" y="1010"/>
      <point x="813" y="992"/>
      <point x="866" y="966" type="curve"/>
      <point x="857" y="1023"/>
      <point x="830" y="1077"/>
      <point x="784" y="1128" type="curve" smooth="yes"/>
      <point x="738" y="1179"/>
      <point x="681" y="1221"/>
      <point x="614" y="1255" type="curve" smooth="yes"/>
      <point x="546" y="1289"/>
      <point x="475" y="1309"/>
      <point x="402" y="1314" type="curve"/>
      <point x="444" y="1520" type="line"/>
      <point x="648" y="1515"/>
      <point x="811" y="1440"/>
      <point x="920" y="1304" type="curve" smooth="yes"/>
      <point x="968" y="1245"/>
      <point x="1007" y="1179"/>
      <point x="1037" y="1106" type="curve" smooth="yes"/>
      <point x="1066" y="1032"/>
      <point x="1088" y="947"/>
      <point x="1102" y="850" type="curve" smooth="yes"/>
      <point x="1115" y="753"/>
      <point x="1122" y="639"/>
      <point x="1122" y="510" type="curve" smooth="yes"/>
      <point x="1122" y="400"/>
      <point x="1101" y="305"/>
      <point x="1059" y="224" type="curve" smooth="yes"/>
      <point x="974" y="62"/>
      <point x="814" y="-30"/>
    </contour>
    <contour>
      <point x="602" y="210" type="curve" smooth="yes"/>
      <point x="680" y="210"/>
      <point x="741" y="236"/>
      <point x="785" y="288" type="curve" smooth="yes"/>
      <point x="828" y="339"/>
      <point x="850" y="411"/>
      <point x="850" y="504" type="curve" smooth="yes"/>
      <point x="850" y="596"/>
      <point x="828" y="668"/>
      <point x="785" y="719" type="curve" smooth="yes"/>
      <point x="741" y="770"/>
      <point x="680" y="796"/>
      <point x="602" y="796" type="curve" smooth="yes"/>
      <point x="521" y="796"/>
      <point x="460" y="771"/>
      <point x="417" y="721" type="curve" smooth="yes"/>
      <point x="374" y="670"/>
      <point x="352" y="598"/>
      <point x="352" y="504" type="curve" smooth="yes"/>
      <point x="352" y="410"/>
      <point x="374" y="338"/>
      <point x="417" y="287" type="curve" smooth="yes"/>
      <point x="460" y="236"/>
      <point x="522" y="210"/>
    </contour>
    <contour>
      <point x="640" y="1058" type="line"/>
      <point x="492" y="1190" type="line"/>
      <point x="822" y="1566" type="line"/>
      <point x="970" y="1434" type="line"/>
    </contour>
  </outline>
</glyph>
<glyph name="ntilde" format="2">
  <advance width="1272"/>
  <unicode hex="00F1"/>
  <outline>
    <contour>
      <point x="810" y="1236" type="curve" smooth="yes"/>
      <point x="745" y="1236"/>
      <point x="686" y="1271"/>
      <point x="632" y="1310" type="curve" smooth="yes"/>
      <point x="578" y="1349"/>
      <point x="531" y="1384"/>
      <point x="492" y="1384" type="curve" smooth="yes"/>
      <point x="472" y="1384"/>
      <point x="458" y="1373"/>
      <point x="451" y="1351" type="curve" smooth="yes"/>
      <point x="443" y="1328"/>
      <point x="443" y="1300"/>
      <point x="452" y="1266" type="curve"/>
      <point x="284" y="1266" type="line"/>
      <point x="263" y="1353"/>
      <point x="268" y="1427"/>
      <point x="297" y="1488" type="curve" smooth="yes"/>
      <point x="326" y="1548"/>
      <point x="382" y="1578"/>
      <point x="466" y="1578" type="curve" smooth="yes"/>
      <point x="531" y="1578"/>
      <point x="591" y="1543"/>
      <point x="645" y="1504" type="curve" smooth="yes"/>
      <point x="699" y="1465"/>
      <point x="745" y="1430"/>
      <point x="784" y="1430" type="curve" smooth="yes"/>
      <point x="824" y="1430"/>
      <point x="843" y="1480"/>
      <point x="824" y="1548" type="curve"/>
      <point x="992" y="1548" type="line"/>
      <point x="1013" y="1461"/>
      <point x="1009" y="1388"/>
      <point x="980" y="1327" type="curve" smooth="yes"/>
      <point x="951" y="1266"/>
      <point x="894" y="1236"/>
    </contour>
    <contour>
      <point x="876" y="0" type="line"/>
      <point x="876" y="510" type="line" smooth="yes"/>
      <point x="876" y="535"/>
      <point x="875" y="566"/>
      <point x="872" y="605" type="curve" smooth="yes"/>
      <point x="869" y="643"/>
      <point x="861" y="681"/>
      <point x="847" y="720" type="curve" smooth="yes"/>
      <point x="833" y="759"/>
      <point x="810" y="791"/>
      <point x="779" y="817" type="curve" smooth="yes"/>
      <point x="747" y="843"/>
      <point x="702" y="856"/>
      <point x="644" y="856" type="curve" smooth="yes"/>
      <point x="597" y="856"/>
      <point x="541" y="845"/>
      <point x="494" y="803" type="curve" smooth="yes"/>
      <point x="447" y="761"/>
      <point x="414" y="683"/>
      <point x="414" y="548" type="curve"/>
      <point x="258" y="622" type="line"/>
      <point x="258" y="707"/>
      <point x="275" y="787"/>
      <point x="310" y="862" type="curve" smooth="yes"/>
      <point x="345" y="937"/>
      <point x="397" y="997"/>
      <point x="467" y="1043" type="curve" smooth="yes"/>
      <point x="536" y="1089"/>
      <point x="624" y="1112"/>
      <point x="730" y="1112" type="curve" smooth="yes"/>
      <point x="815" y="1112"/>
      <point x="884" y="1098"/>
      <point x="937" y="1069" type="curve" smooth="yes"/>
      <point x="990" y="1040"/>
      <point x="1032" y="1004"/>
      <point x="1062" y="960" type="curve" smooth="yes"/>
      <point x="1091" y="916"/>
      <point x="1112" y="870"/>
      <point x="1125" y="823" type="curve" smooth="yes"/>
      <point x="1150" y="727"/>
      <point x="1152" y="642"/>
      <point x="1152" y="606" type="curve" smooth="yes"/>
      <point x="1152" y="0" type="line"/>
    </contour>
    <contour>
      <point x="138" y="0" type="line"/>
      <point x="138" y="1080" type="line"/>
      <point x="380" y="1080" type="line"/>
      <point x="380" y="722" type="line"/>
      <point x="414" y="722" type="line"/>
      <point x="414" y="0" type="line"/>
    </contour>
  </outline>
</glyph>
<glyph name="otilde" format="2">
  <advance width="1254"/>
  <unicode hex="00F5"/>
  <outline>
    <contour>
      <point x="800" y="1236" type="curve" smooth="yes"/>
      <point x="735" y="1236"/>
      <point x="676" y="1271"/>
      <point x="622" y="1310" type="curve" smooth="yes"/>
      <point x="568" y="1349"/>
      <point x="521" y="1384"/>
      <point x="482" y="1384" type="curve" smooth="yes"/>
      <point x="462" y="1384"/>
      <point x="448" y="1373"/>
      <point x="441" y="1351" type="curve"/>
      <point x="433" y="1328"/>
      <point x="433" y="1300"/>
      <point x="442" y="1266" type="curve"/>
      <point x="274" y="1266" type="line"/>
      <point x="253" y="1353"/>
      <point x="258" y="1427"/>
      <point x="287" y="1488" type="curve" smooth="yes"/>
      <point x="316" y="1548"/>
      <point x="372" y="1578"/>
      <point x="456" y="1578" type="curve" smooth="yes"/>
      <point x="521" y="1578"/>
      <point x="581" y="1543"/>
      <point x="635" y="1504" type="curve" smooth="yes"/>
      <point x="689" y="1465"/>
      <point x="735" y="1430"/>
      <point x="774" y="1430" type="curve" smooth="yes"/>
      <point x="814" y="1430"/>
      <point x="833" y="1480"/>
      <point x="814" y="1548" type="curve"/>
      <point x="982" y="1548" type="line"/>
      <point x="1003" y="1461"/>
      <point x="999" y="1388"/>
      <point x="970" y="1327" type="curve" smooth="yes"/>
      <point x="941" y="1266"/>
      <point x="884" y="1236"/>
    </contour>
    <contour>
      <point x="626" y="-30" type="curve" smooth="yes"/>
      <point x="517" y="-30"/>
      <point x="422" y="-6"/>
      <point x="340" y="43" type="curve" smooth="yes"/>
      <point x="176" y="140"/>
      <point x="80" y="317"/>
      <point x="80" y="540" type="curve" smooth="yes"/>
      <point x="80" y="653"/>
      <point x="103" y="752"/>
      <point x="150" y="838" type="curve" smooth="yes"/>
      <point x="243" y="1009"/>
      <point x="413" y="1110"/>
      <point x="626" y="1110" type="curve" smooth="yes"/>
      <point x="735" y="1110"/>
      <point x="830" y="1086"/>
      <point x="913" y="1037" type="curve" smooth="yes"/>
      <point x="1077" y="940"/>
      <point x="1174" y="763"/>
      <point x="1174" y="540" type="curve" smooth="yes"/>
      <point x="1174" y="428"/>
      <point x="1151" y="329"/>
      <point x="1105" y="244" type="curve" smooth="yes"/>
      <point x="1058" y="158"/>
      <point x="994" y="91"/>
      <point x="912" y="43" type="curve" smooth="yes"/>
      <point x="829" y="-6"/>
      <point x="734" y="-30"/>
    </contour>
    <contour>
      <point x="626" y="224" type="curve" smooth="yes"/>
      <point x="713" y="224"/>
      <point x="779" y="254"/>
      <point x="822" y="313" type="curve" smooth="yes"/>
      <point x="865" y="372"/>
      <point x="886" y="447"/>
      <point x="886" y="540" type="curve" smooth="yes"/>
      <point x="886" y="636"/>
      <point x="864" y="713"/>
      <point x="821" y="770" type="curve" smooth="yes"/>
      <point x="777" y="827"/>
      <point x="712" y="856"/>
      <point x="626" y="856" type="curve" smooth="yes"/>
      <point x="567" y="856"/>
      <point x="518" y="843"/>
      <point x="480" y="816" type="curve" smooth="yes"/>
      <point x="404" y="763"/>
      <point x="368" y="665"/>
      <point x="368" y="540" type="curve" smooth="yes"/>
      <point x="368" y="443"/>
      <point x="390" y="367"/>
      <point x="434" y="310" type="curve" smooth="yes"/>
      <point x="477" y="253"/>
      <point x="541" y="224"/>
    </contour>
  </outline>
</glyph>
<glyph name="oslash" format="2">
  <advance width="1254"/>
  <unicode hex="00F8"/>
  <outline>
    <contour>
      <point x="236" y="-30" type="line"/>
      <point x="56" y="150" type="line"/>
      <point x="238" y="332" type="line"/>
      <point x="320" y="372" type="line"/>
      <point x="832" y="882" type="line"/>
      <point x="852" y="944" type="line"/>
      <point x="1018" y="1110" type="line"/>
      <point x="1198" y="928" type="line"/>
      <point x="1024" y="756" type="line"/>
      <point x="958" y="730" type="line"/>
      <point x="456" y="228" type="line"/>
      <point x="406" y="140" type="line"/>
    </contour>
    <contour>
      <point x="626" y="-30" type="curve" smooth="yes"/>
      <point x="517" y="-30"/>
      <point x="422" y="-6"/>
      <point x="340" y="43" type="curve" smooth="yes"/>
      <point x="176" y="140"/>
      <point x="80" y="317"/>
      <point x="80" y="540" type="curve" smooth="yes"/>
      <point x="80" y="653"/>
      <point x="103" y="752"/>
      <point x="150" y="838" type="curve" smooth="yes"/>
      <point x="243" y="1009"/>
      <point x="413" y="1110"/>
      <point x="626" y="1110" type="curve" smooth="yes"/>
      <point x="735" y="1110"/>
      <point x="830" y="1086"/>
      <point x="913" y="1037" type="curve" smooth="yes"/>
      <point x="1077" y="940"/>
      <point x="1174" y="763"/>
      <point x="1174" y="540" type="curve" smooth="yes"/>
      <point x="1174" y="428"/>
      <point x="1151" y="329"/>
      <point x="1105" y="244" type="curve" smooth="yes"/>
      <point x="1058" y="158"/>
      <point x="994" y="91"/>
      <point x="912" y="43" type="curve" smooth="yes"/>
      <point x="829" y="-6"/>
      <point x="734" y="-30"/>
    </contour>
    <contour>
      <point x="626" y="224" type="curve" smooth="yes"/>
      <point x="713" y="224"/>
      <point x="779" y="254"/>
      <point x="822" y="313" type="curve" smooth="yes"/>
      <point x="865" y="372"/>
      <point x="886" y="447"/>
      <point x="886" y="540" type="curve" smooth="yes"/>
      <point x="886" y="636"/>
      <point x="864" y="713"/>
      <point x="821" y="770" type="curve" smooth="yes"/>
      <point x="777" y="827"/>
      <point x="712" y="856"/>
      <point x="626" y="856" type="curve" smooth="yes"/>
      <point x="567" y="856"/>
      <point x="518" y="843"/>
      <point x="480" y="816" type="curve" smooth="yes"/>
      <point x="404" y="763"/>
      <point x="368" y="665"/>
      <point x="368" y="540" type="curve" smooth="yes"/>
      <point x="368" y="443"/>
      <point x="390" y="367"/>
      <point x="434" y="310" type="curve" smooth="yes"/>
      <point x="477" y="253"/>
      <point x="541" y="224"/>
    </contour>
  </outline>
</glyph>
<glyph name="ugrave" format="2">
  <advance width="1272"/>
  <unicode hex="00F9"/>
  <outline>
    <contour>
      <point x="613" y="1620" type="line"/>
      <point x="692" y="1230" type="line"/>
      <point x="522" y="1230" type="line"/>
      <point x="356" y="1620" type="line"/>
    </contour>
    <contour>
      <point x="542" y="-32" type="curve" smooth="yes"/>
      <point x="457" y="-32"/>
      <point x="388" y="-18"/>
      <point x="335" y="11" type="curve" smooth="yes"/>
      <point x="282" y="40"/>
      <point x="240" y="76"/>
      <point x="211" y="120" type="curve" smooth="yes"/>
      <point x="181" y="164"/>
      <point x="160" y="210"/>
      <point x="147" y="258" type="curve" smooth="yes"/>
      <point x="122" y="353"/>
      <point x="120" y="438"/>
      <point x="120" y="474" type="curve" smooth="yes"/>
      <point x="120" y="1080" type="line"/>
      <point x="396" y="1080" type="line"/>
      <point x="396" y="570" type="line" smooth="yes"/>
      <point x="396" y="545"/>
      <point x="397" y="514"/>
      <point x="400" y="476" type="curve" smooth="yes"/>
      <point x="403" y="437"/>
      <point x="411" y="399"/>
      <point x="425" y="360" type="curve" smooth="yes"/>
      <point x="439" y="321"/>
      <point x="462" y="289"/>
      <point x="494" y="263" type="curve" smooth="yes"/>
      <point x="525" y="237"/>
      <point x="570" y="224"/>
      <point x="628" y="224" type="curve" smooth="yes"/>
      <point x="675" y="224"/>
      <point x="731" y="236"/>
      <point x="778" y="278" type="curve" smooth="yes"/>
      <point x="825" y="320"/>
      <point x="858" y="399"/>
      <point x="858" y="532" type="curve"/>
      <point x="1014" y="458" type="line"/>
      <point x="1014" y="373"/>
      <point x="997" y="293"/>
      <point x="962" y="218" type="curve" smooth="yes"/>
      <point x="927" y="143"/>
      <point x="875" y="83"/>
      <point x="806" y="37" type="curve" smooth="yes"/>
      <point x="736" y="-9"/>
      <point x="648" y="-32"/>
    </contour>
    <contour>
      <point x="892" y="0" type="line"/>
      <point x="892" y="358" type="line"/>
      <point x="858" y="358" type="line"/>
      <point x="858" y="1080" type="line"/>
      <point x="1132" y="1080" type="line"/>
      <point x="1132" y="0" type="line"/>
    </contour>
  </outline>
</glyph>
<glyph name="yacute" format="2">
  <advance width="1146"/>
  <unicode hex="00FD"/>
  <outline>
    <contour>
      <point x="597" y="1620" type="line"/>
      <point x="854" y="1620" type="line"/>
      <point x="688" y="1230" type="line"/>
      <point x="518" y="1230" type="line"/>
    </contour>
    <contour>
      <point x="580" y="314" type="line"/>
      <point x="312" y="1080" type="line"/>
      <point x="40" y="1080" type="line"/>
      <point x="444" y="0" type="line"/>
      <point x="468" y="0" type="line"/>
      <point x="455" y="-36"/>
      <point x="428" y="-99"/>
      <point x="401" y="-150"/>
      <point x="372" y="-186"/>
      <point x="358" y="-196" type="qcurve"/>
      <point x="345" y="-204"/>
      <point x="316" y="-214"/>
      <point x="283" y="-220"/>
      <point x="243" y="-222"/>
      <point x="220" y="-222" type="qcurve"/>
      <point x="220" y="-480" type="line"/>
      <point x="270" y="-480"/>
      <point x="350" y="-478"/>
      <point x="417" y="-467"/>
      <point x="474" y="-446"/>
      <point x="500" y="-426" type="qcurve" smooth="yes"/>
      <point x="530" y="-404"/>
      <point x="578" y="-342"/>
      <point x="617" y="-269"/>
      <point x="650" y="-188"/>
      <point x="666" y="-146" type="qcurve" smooth="yes"/>
      <point x="1126" y="1080" type="line"/>
      <point x="856" y="1080" type="line"/>
    </contour>
  </outline>
</glyph>
<glyph name="thorn" format="2">
  <advance width="1296"/>
  <unicode hex="00FE"/>
  <outline>
    <contour>
      <point x="138" y="-480" type="line"/>
      <point x="138" y="1440" type="line"/>
      <point x="410" y="1440" type="line"/>
      <point x="410" y="-480" type="line"/>
    </contour>
    <contour>
      <point x="728" y="-30" type="qcurve" smooth="yes"/>
      <point x="613" y="-30"/>
      <point x="458" y="56"/>
      <point x="363" y="208"/>
      <point x="323" y="417"/>
      <point x="323" y="540" type="qcurve" smooth="yes"/>
      <point x="323" y="663"/>
      <point x="363" y="872"/>
      <point x="458" y="1024"/>
      <point x="613" y="1110"/>
      <point x="728" y="1110" type="qcurve" smooth="yes"/>
      <point x="832" y="1110"/>
      <point x="1010" y="1026"/>
      <point x="1141" y="875"/>
      <point x="1216" y="665"/>
      <point x="1216" y="540" type="qcurve" smooth="yes"/>
      <point x="1216" y="414"/>
      <point x="1141" y="204"/>
      <point x="1010" y="54"/>
      <point x="832" y="-30"/>
    </contour>
    <contour>
      <point x="668" y="224" type="qcurve" smooth="yes"/>
      <point x="733" y="224"/>
      <point x="831" y="270"/>
      <point x="896" y="354"/>
      <point x="928" y="470"/>
      <point x="928" y="540" type="qcurve" smooth="yes"/>
      <point x="928" y="612"/>
      <point x="895" y="729"/>
      <point x="830" y="811"/>
      <point x="733" y="856"/>
      <point x="668" y="856" type="qcurve" smooth="yes"/>
      <point x="601" y="856"/>
      <point x="504" y="810"/>
      <point x="441" y="727"/>
      <point x="410" y="611"/>
      <point x="410" y="540" type="qcurve" smooth="yes"/>
      <point x="410" y="467"/>
      <point x="443" y="350"/>
      <point x="508" y="268"/>
      <point x="604" y="224"/>
    </contour>
  </outline>
</glyph>
<glyph name="amacron" format="2">
  <advance width="1166"/>
  <unicode hex="0101"/>
  <outline>
    <component base="a"/>
    <contour>
      <point x="350" y="1320" type="line"/>
      <point x="350" y="1528" type="line"/>
      <point x="894" y="1528" type="line"/>
      <point x="894" y="1320" type="line"/>
    </contour>
  </outline>
</glyph>
<glyph name="Abreve" format="2">
  <advance width="1366"/>
  <unicode hex="0102"/>
  <outline>
    <contour>
      <point x="684" y="1560" type="curve" smooth="yes"/>
      <point x="625" y="1560"/>
      <point x="572" y="1574"/>
      <point x="524" y="1603" type="curve" smooth="yes"/>
      <point x="428" y="1660"/>
      <point x="366" y="1761"/>
      <point x="366" y="1878" type="curve"/>
      <point x="576" y="1878" type="line"/>
      <point x="576" y="1848"/>
      <point x="587" y="1823"/>
      <point x="608" y="1802" type="curve" smooth="yes"/>
      <point x="629" y="1781"/>
      <point x="654" y="1770"/>
      <point x="684" y="1770" type="curve" smooth="yes"/>
      <point x="714" y="1770"/>
      <point x="740" y="1781"/>
      <point x="761" y="1802" type="curve" smooth="yes"/>
      <point x="782" y="1823"/>
      <point x="792" y="1848"/>
      <point x="792" y="1878" type="curve"/>
      <point x="1002" y="1878" type="line"/>
      <point x="1002" y="1819"/>
      <point x="988" y="1766"/>
      <point x="959" y="1718" type="curve" smooth="yes"/>
      <point x="902" y="1622"/>
      <point x="801" y="1560"/>
    </contour>
    <contour>
      <point x="40" y="0" type="line"/>
      <point x="480" y="1440" type="line"/>
      <point x="886" y="1440" type="line"/>
      <point x="1326" y="0" type="line"/>
      <point x="1046" y="0" type="line"/>
      <point x="654" y="1270" type="line"/>
      <point x="706" y="1270" type="line"/>
      <point x="320" y="0" type="line"/>
    </contour>
    <contour>
      <point x="304" y="300" type="line"/>
      <point x="304" y="554" type="line"/>
      <point x="1064" y="554" type="line"/>
      <point x="1064" y="300" type="line"/>
    </contour>
  </outline>
</glyph>
<glyph name="abreve" format="2">
  <advance width="1166"/>
  <unicode hex="0103"/>
  <outline>
    <component base="a"/>
    <contour>
      <point x="592" y="1200" type="curve" smooth="yes"/>
      <point x="533" y="1200"/>
      <point x="480" y="1214"/>
      <point x="432" y="1243" type="curve" smooth="yes"/>
      <point x="336" y="1300"/>
      <point x="274" y="1401"/>
      <point x="274" y="1518" type="curve"/>
      <point x="484" y="1518" type="line"/>
      <point x="484" y="1488"/>
      <point x="495" y="1463"/>
      <point x="516" y="1442" type="curve" smooth="yes"/>
      <point x="537" y="1421"/>
      <point x="562" y="1410"/>
      <point x="592" y="1410" type="curve" smooth="yes"/>
      <point x="622" y="1410"/>
      <point x="648" y="1421"/>
      <point x="669" y="1442" type="curve" smooth="yes"/>
      <point x="690" y="1463"/>
      <point x="700" y="1488"/>
      <point x="700" y="1518" type="curve"/>
      <point x="910" y="1518" type="line"/>
      <point x="910" y="1459"/>
      <point x="896" y="1406"/>
      <point x="867" y="1358" type="curve" smooth="yes"/>
      <point x="810" y="1262"/>
      <point x="709" y="1200"/>
    </contour>
  </outline>
</glyph>
<glyph name="Aogonek" format="2">
  <advance width="1366"/>
  <unicode hex="0104"/>
  <outline>
    <contour>
      <point x="1120" y="-478" type="curve" smooth="yes"/>
      <point x="1076" y="-478"/>
      <point x="1037" y="-467"/>
      <point x="1004" y="-446" type="curve" smooth="yes"/>
      <point x="937" y="-403"/>
      <point x="898" y="-331"/>
      <point x="898" y="-252" type="curve" smooth="yes"/>
      <point x="898" y="-203"/>
      <point x="912" y="-153"/>
      <point x="940" y="-104" type="curve" smooth="yes"/>
      <point x="995" y="-5"/>
      <point x="1093" y="81"/>
      <point x="1212" y="132" type="curve"/>
      <point x="1326" y="0" type="line"/>
      <point x="1285" y="-21"/>
      <point x="1248" y="-45"/>
      <point x="1215" y="-73" type="curve" smooth="yes"/>
      <point x="1148" y="-129"/>
      <point x="1106" y="-189"/>
      <point x="1106" y="-230" type="curve" smooth="yes"/>
      <point x="1106" y="-258"/>
      <point x="1129" y="-280"/>
      <point x="1158" y="-280" type="curve" smooth="yes"/>
      <point x="1178" y="-280"/>
      <point x="1202" y="-270"/>
      <point x="1226" y="-250" type="curve"/>
      <point x="1320" y="-374" type="line"/>
      <point x="1272" y="-439"/>
      <point x="1196" y="-478"/>
    </contour>
    <contour>
      <point x="40" y="0" type="line"/>
      <point x="480" y="1440" type="line"/>
      <point x="886" y="1440" type="line"/>
      <point x="1326" y="0" type="line"/>
      <point x="1046" y="0" type="line"/>
      <point x="654" y="1270" type="line"/>
      <point x="706" y="1270" type="line"/>
      <point x="320" y="0" type="line"/>
    </contour>
    <contour>
      <point x="304" y="300" type="line"/>
      <point x="304" y="554" type="line"/>
      <point x="1064" y="554" type="line"/>
      <point x="1064" y="300" type="line"/>
    </contour>
  </outline>
</glyph>
<glyph name="aogonek" format="2">
  <advance width="1166"/>
  <unicode hex="0105"/>
  <outline>
    <component base="a"/>
    <contour>
      <point x="840" y="-478" type="qcurve" smooth="yes"/>
      <point x="774" y="-478"/>
      <point x="674" y="-414"/>
      <point x="618" y="-311"/>
      <point x="618" y="-252" type="qcurve" smooth="yes"/>
      <point x="618" y="-178"/>
      <point x="701" y="-30"/>
      <point x="843" y="94"/>
      <point x="932" y="132" type="qcurve"/>
      <point x="1046" y="0" type="line"/>
      <point x="985" y="-31"/>
      <point x="885" y="-115"/>
      <point x="826" y="-199"/>
      <point x="826" y="-230" type="qcurve" smooth="yes"/>
      <point x="826" y="-251"/>
      <point x="856" y="-280"/>
      <point x="878" y="-280" type="qcurve" smooth="yes"/>
      <point x="893" y="-280"/>
      <point x="928" y="-265"/>
      <point x="946" y="-250" type="qcurve"/>
      <point x="1040" y="-374" type="line"/>
      <point x="1004" y="-423"/>
      <point x="897" y="-478"/>
    </contour>
  </outline>
</glyph>
<glyph name="cacute" format="2">
  <advance width="1166"/>
  <unicode hex="0107"/>
  <outline>
    <contour>
      <point x="627" y="1620" type="line"/>
      <point x="884" y="1620" type="line"/>
      <point x="718" y="1230" type="line"/>
      <point x="548" y="1230" type="line"/>
    </contour>
    <contour>
      <point x="616" y="-30" type="qcurve" smooth="yes"/>
      <point x="448" y="-30"/>
      <point x="208" y="120"/>
      <point x="80" y="378"/>
      <point x="80" y="540" type="qcurve" smooth="yes"/>
      <point x="80" y="704"/>
      <point x="213" y="962"/>
      <point x="455" y="1110"/>
      <point x="620" y="1110" type="qcurve" smooth="yes"/>
      <point x="811" y="1110"/>
      <point x="1070" y="917"/>
      <point x="1106" y="750" type="qcurve"/>
      <point x="834" y="678" type="line"/>
      <point x="810" y="762"/>
      <point x="691" y="856"/>
      <point x="616" y="856" type="qcurve" smooth="yes"/>
      <point x="530" y="856"/>
      <point x="420" y="773"/>
      <point x="368" y="630"/>
      <point x="368" y="540" type="qcurve" smooth="yes"/>
      <point x="368" y="399"/>
      <point x="493" y="224"/>
      <point x="616" y="224" type="qcurve" smooth="yes"/>
      <point x="708" y="224"/>
      <point x="804" y="308"/>
      <point x="828" y="386" type="qcurve"/>
      <point x="1106" y="328" type="line"/>
      <point x="1060" y="156"/>
      <point x="804" y="-30"/>
    </contour>
  </outline>
</glyph>
<glyph name="Ccircumflex" format="2">
  <advance width="1492"/>
  <unicode hex="0108"/>
  <outline>
    <contour>
      <point x="354" y="1590" type="line"/>
      <point x="642" y="1920" type="line"/>
      <point x="866" y="1920" type="line"/>
      <point x="1154" y="1590" type="line"/>
      <point x="904" y="1590" type="line"/>
      <point x="754" y="1770" type="line"/>
      <point x="604" y="1590" type="line"/>
    </contour>
    <contour>
      <point x="758" y="-30" type="qcurve" smooth="yes"/>
      <point x="542" y="-30"/>
      <point x="229" y="158"/>
      <point x="60" y="496"/>
      <point x="60" y="720" type="qcurve" smooth="yes"/>
      <point x="60" y="944"/>
      <point x="229" y="1282"/>
      <point x="542" y="1470"/>
      <point x="758" y="1470" type="qcurve" smooth="yes"/>
      <point x="1006" y="1470"/>
      <point x="1343" y="1224"/>
      <point x="1412" y="1014" type="qcurve"/>
      <point x="1138" y="938" type="line"/>
      <point x="1098" y="1069"/>
      <point x="908" y="1214"/>
      <point x="758" y="1214" type="qcurve" smooth="yes"/>
      <point x="621" y="1214"/>
      <point x="438" y="1092"/>
      <point x="346" y="870"/>
      <point x="346" y="720" type="qcurve" smooth="yes"/>
      <point x="346" y="570"/>
      <point x="438" y="348"/>
      <point x="621" y="226"/>
      <point x="758" y="226" type="qcurve" smooth="yes"/>
      <point x="908" y="226"/>
      <point x="1098" y="372"/>
      <point x="1138" y="502" type="qcurve"/>
      <point x="1412" y="426" type="line"/>
      <point x="1343" y="216"/>
      <point x="1006" y="-30"/>
    </contour>
  </outline>
</glyph>
<glyph name="ccircumflex" format="2">
  <advance width="1166"/>
  <unicode hex="0109"/>
  <outline>
    <contour>
      <point x="224" y="1230" type="line"/>
      <point x="512" y="1560" type="line"/>
      <point x="736" y="1560" type="line"/>
      <point x="1024" y="1230" type="line"/>
      <point x="774" y="1230" type="line"/>
      <point x="624" y="1410" type="line"/>
      <point x="474" y="1230" type="line"/>
    </contour>
    <contour>
      <point x="616" y="-30" type="curve" smooth="yes"/>
      <point x="504" y="-30"/>
      <point x="408" y="-5"/>
      <point x="328" y="45" type="curve" smooth="yes"/>
      <point x="168" y="145"/>
      <point x="80" y="324"/>
      <point x="80" y="540" type="curve" smooth="yes"/>
      <point x="80" y="649"/>
      <point x="102" y="747"/>
      <point x="147" y="833" type="curve" smooth="yes"/>
      <point x="235" y="1005"/>
      <point x="400" y="1110"/>
      <point x="620" y="1110" type="curve" smooth="yes"/>
      <point x="747" y="1110"/>
      <point x="854" y="1078"/>
      <point x="941" y="1014" type="curve" smooth="yes"/>
      <point x="1027" y="949"/>
      <point x="1082" y="861"/>
      <point x="1106" y="750" type="curve"/>
      <point x="834" y="678" type="line"/>
      <point x="818" y="734"/>
      <point x="790" y="778"/>
      <point x="751" y="809" type="curve" smooth="yes"/>
      <point x="711" y="840"/>
      <point x="666" y="856"/>
      <point x="616" y="856" type="curve" smooth="yes"/>
      <point x="559" y="856"/>
      <point x="512" y="842"/>
      <point x="475" y="815" type="curve" smooth="yes"/>
      <point x="402" y="759"/>
      <point x="368" y="660"/>
      <point x="368" y="540" type="curve" smooth="yes"/>
      <point x="368" y="446"/>
      <point x="389" y="370"/>
      <point x="431" y="312" type="curve" smooth="yes"/>
      <point x="472" y="253"/>
      <point x="534" y="224"/>
      <point x="616" y="224" type="curve" smooth="yes"/>
      <point x="739" y="224"/>
      <point x="796" y="282"/>
      <point x="828" y="386" type="curve"/>
      <point x="1106" y="328" type="line"/>
      <point x="1075" y="213"/>
      <point x="1017" y="125"/>
      <point x="932" y="63" type="curve" smooth="yes"/>
      <point x="847" y="1"/>
      <point x="741" y="-30"/>
    </contour>
  </outline>
</glyph>
<glyph name="Ccaron" format="2">
  <advance width="1492"/>
  <unicode hex="010C"/>
  <outline>
    <contour>
      <point x="346" y="1920" type="line"/>
      <point x="596" y="1920" type="line"/>
      <point x="746" y="1740" type="line"/>
      <point x="896" y="1920" type="line"/>
      <point x="1146" y="1920" type="line"/>
      <point x="858" y="1590" type="line"/>
      <point x="634" y="1590" type="line"/>
    </contour>
    <contour>
      <point x="758" y="-30" type="curve" smooth="yes"/>
      <point x="614" y="-30"/>
      <point x="490" y="1"/>
      <point x="386" y="64" type="curve" smooth="yes"/>
      <point x="281" y="127"/>
      <point x="201" y="214"/>
      <point x="145" y="327" type="curve" smooth="yes"/>
      <point x="88" y="440"/>
      <point x="60" y="571"/>
      <point x="60" y="720" type="curve" smooth="yes"/>
      <point x="60" y="869"/>
      <point x="88" y="1000"/>
      <point x="145" y="1113" type="curve" smooth="yes"/>
      <point x="201" y="1226"/>
      <point x="281" y="1313"/>
      <point x="386" y="1376" type="curve" smooth="yes"/>
      <point x="490" y="1439"/>
      <point x="614" y="1470"/>
      <point x="758" y="1470" type="curve" smooth="yes"/>
      <point x="923" y="1470"/>
      <point x="1062" y="1429"/>
      <point x="1175" y="1347" type="curve" smooth="yes"/>
      <point x="1287" y="1265"/>
      <point x="1366" y="1154"/>
      <point x="1412" y="1014" type="curve"/>
      <point x="1138" y="938" type="line"/>
      <point x="1111" y="1025"/>
      <point x="1066" y="1093"/>
      <point x="1003" y="1142" type="curve" smooth="yes"/>
      <point x="940" y="1190"/>
      <point x="858" y="1214"/>
      <point x="758" y="1214" type="curve" smooth="yes"/>
      <point x="667" y="1214"/>
      <point x="591" y="1194"/>
      <point x="530" y="1153" type="curve" smooth="yes"/>
      <point x="408" y="1072"/>
      <point x="346" y="920"/>
      <point x="346" y="720" type="curve" smooth="yes"/>
      <point x="346" y="620"/>
      <point x="361" y="533"/>
      <point x="392" y="459" type="curve" smooth="yes"/>
      <point x="453" y="311"/>
      <point x="575" y="226"/>
      <point x="758" y="226" type="curve" smooth="yes"/>
      <point x="858" y="226"/>
      <point x="940" y="250"/>
      <point x="1003" y="299" type="curve" smooth="yes"/>
      <point x="1066" y="348"/>
      <point x="1111" y="415"/>
      <point x="1138" y="502" type="curve"/>
      <point x="1412" y="426" type="line"/>
      <point x="1366" y="286"/>
      <point x="1287" y="175"/>
      <point x="1175" y="93" type="curve" smooth="yes"/>
      <point x="1062" y="11"/>
      <point x="923" y="-30"/>
    </contour>
  </outline>
</glyph>
